<svg width="65" height="46" viewBox="0 0 65 46" fill="none" xmlns="http://www.w3.org/2000/svg">
<g clip-path="url(#clip0_329_30346)">
<mask id="mask0_329_30346" style="mask-type:alpha" maskUnits="userSpaceOnUse" x="-21" y="-24" width="91" height="94">
<path d="M1.46692 41.7407H4.0706C4.4786 41.7407 4.80607 42.0682 4.80607 42.4761V45.0798C4.80607 45.4878 4.4786 45.8153 4.0706 45.8153H1.46692C1.05892 45.8153 0.731445 45.4878 0.731445 45.0798V42.4761C0.731445 42.0682 1.05892 41.7407 1.46692 41.7407Z" fill="#435CDB"/>
<path d="M6.89954 41.7407H9.50322C9.91122 41.7407 10.2387 42.0682 10.2387 42.4761V45.0798C10.2387 45.4878 9.91122 45.8153 9.50322 45.8153H6.89954C6.49154 45.8153 6.16406 45.4878 6.16406 45.0798V42.4761C6.16406 42.0682 6.49154 41.7407 6.89954 41.7407Z" fill="#435CDB"/>
<path d="M12.3326 41.7407H14.9363C15.3443 41.7407 15.6718 42.0682 15.6718 42.4761V45.0798C15.6718 45.4878 15.3443 45.8153 14.9363 45.8153H12.3326C11.9246 45.8153 11.5972 45.4878 11.5972 45.0798V42.4761C11.5972 42.0682 11.9246 41.7407 12.3326 41.7407Z" fill="#435CDB"/>
<path d="M17.7653 41.7407H20.3689C20.7769 41.7407 21.1044 42.0682 21.1044 42.4761V45.0798C21.1044 45.4878 20.7769 45.8153 20.3689 45.8153H17.7653C17.3573 45.8153 17.0298 45.4878 17.0298 45.0798V42.4761C17.0298 42.0682 17.3573 41.7407 17.7653 41.7407Z" fill="#435CDB"/>
<path d="M23.1984 41.7407H25.802C26.21 41.7407 26.5375 42.0682 26.5375 42.4761V45.0798C26.5375 45.4878 26.21 45.8153 25.802 45.8153H23.1984C22.7904 45.8153 22.4629 45.4878 22.4629 45.0798V42.4761C22.4629 42.0682 22.7904 41.7407 23.1984 41.7407Z" fill="#435CDB"/>
<path d="M28.631 41.7407H31.2347C31.6427 41.7407 31.9701 42.0682 31.9701 42.4761V45.0798C31.9701 45.4878 31.6427 45.8153 31.2347 45.8153H28.631C28.223 45.8153 27.8955 45.4878 27.8955 45.0798V42.4761C27.8955 42.0682 28.223 41.7407 28.631 41.7407Z" fill="#435CDB"/>
<path d="M34.0641 41.7407H36.6678C37.0758 41.7407 37.4032 42.0682 37.4032 42.4761V45.0798C37.4032 45.4878 37.0758 45.8153 36.6678 45.8153H34.0641C33.6561 45.8153 33.3286 45.4878 33.3286 45.0798V42.4761C33.3286 42.0682 33.6561 41.7407 34.0641 41.7407Z" fill="#435CDB"/>
<path d="M39.4967 41.7407H42.1004C42.5084 41.7407 42.8359 42.0682 42.8359 42.4761V45.0798C42.8359 45.4878 42.5084 45.8153 42.1004 45.8153H39.4967C39.0887 45.8153 38.7612 45.4878 38.7612 45.0798V42.4761C38.7612 42.0682 39.0887 41.7407 39.4967 41.7407Z" fill="#435CDB"/>
<path d="M44.9293 41.7407H47.533C47.941 41.7407 48.2685 42.0682 48.2685 42.4761V45.0798C48.2685 45.4878 47.941 45.8153 47.533 45.8153H44.9293C44.5213 45.8153 44.1938 45.4878 44.1938 45.0798V42.4761C44.1938 42.0682 44.5213 41.7407 44.9293 41.7407Z" fill="#435CDB"/>
<path d="M50.3624 41.7407H52.9661C53.3741 41.7407 53.7016 42.0682 53.7016 42.4761V45.0798C53.7016 45.4878 53.3741 45.8153 52.9661 45.8153H50.3624C49.9544 45.8153 49.627 45.4878 49.627 45.0798V42.4761C49.627 42.0682 49.9544 41.7407 50.3624 41.7407Z" fill="#435CDB"/>
<path d="M55.795 41.7407H58.3987C58.8067 41.7407 59.1342 42.0682 59.1342 42.4761V45.0798C59.1342 45.4878 58.8067 45.8153 58.3987 45.8153H55.795C55.387 45.8153 55.0596 45.4878 55.0596 45.0798V42.4761C55.0596 42.0682 55.387 41.7407 55.795 41.7407Z" fill="#435CDB"/>
<path d="M61.2281 41.7407H63.8318C64.2398 41.7407 64.5673 42.0682 64.5673 42.4761V45.0798C64.5673 45.4878 64.2398 45.8153 63.8318 45.8153H61.2281C60.8201 45.8153 60.4927 45.4878 60.4927 45.0798V42.4761C60.4927 42.0682 60.8201 41.7407 61.2281 41.7407Z" fill="#435CDB"/>
<path d="M1.46692 35.8551H4.0706C4.4786 35.8551 4.80607 36.1826 4.80607 36.5906V39.1943C4.80607 39.6023 4.4786 39.9298 4.0706 39.9298H1.46692C1.05892 39.9298 0.731445 39.6023 0.731445 39.1943V36.5906C0.731445 36.1826 1.05892 35.8551 1.46692 35.8551Z" fill="#435CDB"/>
<path d="M6.89954 35.8551H9.50322C9.91122 35.8551 10.2387 36.1826 10.2387 36.5906V39.1943C10.2387 39.6023 9.91122 39.9298 9.50322 39.9298H6.89954C6.49154 39.9298 6.16406 39.6023 6.16406 39.1943V36.5906C6.16406 36.1826 6.49154 35.8551 6.89954 35.8551Z" fill="#435CDB"/>
<path d="M12.3326 35.8551H14.9363C15.3443 35.8551 15.6718 36.1826 15.6718 36.5906V39.1943C15.6718 39.6023 15.3443 39.9298 14.9363 39.9298H12.3326C11.9246 39.9298 11.5972 39.6023 11.5972 39.1943V36.5906C11.5972 36.1826 11.9246 35.8551 12.3326 35.8551Z" fill="#435CDB"/>
<path d="M17.7653 35.8551H20.3689C20.7769 35.8551 21.1044 36.1826 21.1044 36.5906V39.1943C21.1044 39.6023 20.7769 39.9298 20.3689 39.9298H17.7653C17.3573 39.9298 17.0298 39.6023 17.0298 39.1943V36.5906C17.0298 36.1826 17.3573 35.8551 17.7653 35.8551Z" fill="#435CDB"/>
<path d="M23.1984 35.8551H25.802C26.21 35.8551 26.5375 36.1826 26.5375 36.5906V39.1943C26.5375 39.6023 26.21 39.9298 25.802 39.9298H23.1984C22.7904 39.9298 22.4629 39.6023 22.4629 39.1943V36.5906C22.4629 36.1826 22.7904 35.8551 23.1984 35.8551Z" fill="#435CDB"/>
<path d="M28.631 35.8551H31.2347C31.6427 35.8551 31.9701 36.1826 31.9701 36.5906V39.1943C31.9701 39.6023 31.6427 39.9298 31.2347 39.9298H28.631C28.223 39.9298 27.8955 39.6023 27.8955 39.1943V36.5906C27.8955 36.1826 28.223 35.8551 28.631 35.8551Z" fill="#435CDB"/>
<path d="M34.0641 35.8551H36.6678C37.0758 35.8551 37.4032 36.1826 37.4032 36.5906V39.1943C37.4032 39.6023 37.0758 39.9298 36.6678 39.9298H34.0641C33.6561 39.9298 33.3286 39.6023 33.3286 39.1943V36.5906C33.3286 36.1826 33.6561 35.8551 34.0641 35.8551Z" fill="#435CDB"/>
<path d="M39.4967 35.8551H42.1004C42.5084 35.8551 42.8359 36.1826 42.8359 36.5906V39.1943C42.8359 39.6023 42.5084 39.9298 42.1004 39.9298H39.4967C39.0887 39.9298 38.7612 39.6023 38.7612 39.1943V36.5906C38.7612 36.1826 39.0887 35.8551 39.4967 35.8551Z" fill="#435CDB"/>
<path d="M44.9293 35.8551H47.533C47.941 35.8551 48.2685 36.1826 48.2685 36.5906V39.1943C48.2685 39.6023 47.941 39.9298 47.533 39.9298H44.9293C44.5213 39.9298 44.1938 39.6023 44.1938 39.1943V36.5906C44.1938 36.1826 44.5213 35.8551 44.9293 35.8551Z" fill="#435CDB"/>
<path d="M50.3624 35.8551H52.9661C53.3741 35.8551 53.7016 36.1826 53.7016 36.5906V39.1943C53.7016 39.6023 53.3741 39.9298 52.9661 39.9298H50.3624C49.9544 39.9298 49.627 39.6023 49.627 39.1943V36.5906C49.627 36.1826 49.9544 35.8551 50.3624 35.8551Z" fill="#435CDB"/>
<path d="M55.795 35.8551H58.3987C58.8067 35.8551 59.1342 36.1826 59.1342 36.5906V39.1943C59.1342 39.6023 58.8067 39.9298 58.3987 39.9298H55.795C55.387 39.9298 55.0596 39.6023 55.0596 39.1943V36.5906C55.0596 36.1826 55.387 35.8551 55.795 35.8551Z" fill="#435CDB"/>
<path d="M61.2281 35.8551H63.8318C64.2398 35.8551 64.5673 36.1826 64.5673 36.5906V39.1943C64.5673 39.6023 64.2398 39.9298 63.8318 39.9298H61.2281C60.8201 39.9298 60.4927 39.6023 60.4927 39.1943V36.5906C60.4927 36.1826 60.8201 35.8551 61.2281 35.8551Z" fill="#435CDB"/>
<path d="M1.46692 29.9696H4.0706C4.4786 29.9696 4.80607 30.297 4.80607 30.705V33.3087C4.80607 33.7167 4.4786 34.0442 4.0706 34.0442H1.46692C1.05892 34.0442 0.731445 33.7167 0.731445 33.3087V30.705C0.731445 30.297 1.05892 29.9696 1.46692 29.9696Z" fill="#435CDB"/>
<path d="M6.89954 29.9696H9.50322C9.91122 29.9696 10.2387 30.297 10.2387 30.705V33.3087C10.2387 33.7167 9.91122 34.0442 9.50322 34.0442H6.89954C6.49154 34.0442 6.16406 33.7167 6.16406 33.3087V30.705C6.16406 30.297 6.49154 29.9696 6.89954 29.9696Z" fill="#435CDB"/>
<path d="M12.3326 29.9696H14.9363C15.3443 29.9696 15.6718 30.297 15.6718 30.705V33.3087C15.6718 33.7167 15.3443 34.0442 14.9363 34.0442H12.3326C11.9246 34.0442 11.5972 33.7167 11.5972 33.3087V30.705C11.5972 30.297 11.9246 29.9696 12.3326 29.9696Z" fill="#435CDB"/>
<path d="M17.7653 29.9696H20.3689C20.7769 29.9696 21.1044 30.297 21.1044 30.705V33.3087C21.1044 33.7167 20.7769 34.0442 20.3689 34.0442H17.7653C17.3573 34.0442 17.0298 33.7167 17.0298 33.3087V30.705C17.0298 30.297 17.3573 29.9696 17.7653 29.9696Z" fill="#435CDB"/>
<path d="M23.1984 29.9696H25.802C26.21 29.9696 26.5375 30.297 26.5375 30.705V33.3087C26.5375 33.7167 26.21 34.0442 25.802 34.0442H23.1984C22.7904 34.0442 22.4629 33.7167 22.4629 33.3087V30.705C22.4629 30.297 22.7904 29.9696 23.1984 29.9696Z" fill="#435CDB"/>
<path d="M28.631 29.9696H31.2347C31.6427 29.9696 31.9701 30.297 31.9701 30.705V33.3087C31.9701 33.7167 31.6427 34.0442 31.2347 34.0442H28.631C28.223 34.0442 27.8955 33.7167 27.8955 33.3087V30.705C27.8955 30.297 28.223 29.9696 28.631 29.9696Z" fill="#435CDB"/>
<path d="M34.0636 29.9696H36.6673C37.0753 29.9696 37.4028 30.297 37.4028 30.705V33.3087C37.4028 33.7167 37.0753 34.0442 36.6673 34.0442H34.0636C33.6556 34.0442 33.3281 33.7167 33.3281 33.3087V30.705C33.3281 30.297 33.6556 29.9696 34.0636 29.9696Z" fill="#435CDB"/>
<path d="M39.4967 29.9696H42.1004C42.5084 29.9696 42.8359 30.297 42.8359 30.705V33.3087C42.8359 33.7167 42.5084 34.0442 42.1004 34.0442H39.4967C39.0887 34.0442 38.7612 33.7167 38.7612 33.3087V30.705C38.7612 30.297 39.0887 29.9696 39.4967 29.9696Z" fill="#435CDB"/>
<path d="M44.9293 29.9696H47.533C47.941 29.9696 48.2685 30.297 48.2685 30.705V33.3087C48.2685 33.7167 47.941 34.0442 47.533 34.0442H44.9293C44.5213 34.0442 44.1938 33.7167 44.1938 33.3087V30.705C44.1938 30.297 44.5213 29.9696 44.9293 29.9696Z" fill="#435CDB"/>
<path d="M50.3624 29.9696H52.9661C53.3741 29.9696 53.7016 30.297 53.7016 30.705V33.3087C53.7016 33.7167 53.3741 34.0442 52.9661 34.0442H50.3624C49.9544 34.0442 49.627 33.7167 49.627 33.3087V30.705C49.627 30.297 49.9544 29.9696 50.3624 29.9696Z" fill="#435CDB"/>
<path d="M55.795 29.9696H58.3987C58.8067 29.9696 59.1342 30.297 59.1342 30.705V33.3087C59.1342 33.7167 58.8067 34.0442 58.3987 34.0442H55.795C55.387 34.0442 55.0596 33.7167 55.0596 33.3087V30.705C55.0596 30.297 55.387 29.9696 55.795 29.9696Z" fill="#435CDB"/>
<path d="M61.2281 29.9696H63.8318C64.2398 29.9696 64.5673 30.297 64.5673 30.705V33.3087C64.5673 33.7167 64.2398 34.0442 63.8318 34.0442H61.2281C60.8201 34.0442 60.4927 33.7167 60.4927 33.3087V30.705C60.4927 30.297 60.8201 29.9696 61.2281 29.9696Z" fill="#435CDB"/>
<path d="M1.46692 24.084H4.0706C4.4786 24.084 4.80607 24.4115 4.80607 24.8195V27.4232C4.80607 27.8312 4.4786 28.1586 4.0706 28.1586H1.46692C1.05892 28.1586 0.731445 27.8312 0.731445 27.4232V24.8195C0.731445 24.4115 1.05892 24.084 1.46692 24.084Z" fill="#435CDB"/>
<path d="M6.89954 24.084H9.50322C9.91122 24.084 10.2387 24.4115 10.2387 24.8195V27.4232C10.2387 27.8312 9.91122 28.1586 9.50322 28.1586H6.89954C6.49154 28.1586 6.16406 27.8312 6.16406 27.4232V24.8195C6.16406 24.4115 6.49154 24.084 6.89954 24.084Z" fill="#435CDB"/>
<path d="M12.3326 24.084H14.9363C15.3443 24.084 15.6718 24.4115 15.6718 24.8195V27.4232C15.6718 27.8312 15.3443 28.1586 14.9363 28.1586H12.3326C11.9246 28.1586 11.5972 27.8312 11.5972 27.4232V24.8195C11.5972 24.4115 11.9246 24.084 12.3326 24.084Z" fill="#435CDB"/>
<path d="M17.7653 24.084H20.3689C20.7769 24.084 21.1044 24.4115 21.1044 24.8195V27.4232C21.1044 27.8312 20.7769 28.1586 20.3689 28.1586H17.7653C17.3573 28.1586 17.0298 27.8312 17.0298 27.4232V24.8195C17.0298 24.4115 17.3573 24.084 17.7653 24.084Z" fill="#435CDB"/>
<path d="M23.1984 24.084H25.802C26.21 24.084 26.5375 24.4115 26.5375 24.8195V27.4232C26.5375 27.8312 26.21 28.1586 25.802 28.1586H23.1984C22.7904 28.1586 22.4629 27.8312 22.4629 27.4232V24.8195C22.4629 24.4115 22.7904 24.084 23.1984 24.084Z" fill="#435CDB"/>
<path d="M28.631 24.084H31.2347C31.6427 24.084 31.9701 24.4115 31.9701 24.8195V27.4232C31.9701 27.8312 31.6427 28.1586 31.2347 28.1586H28.631C28.223 28.1586 27.8955 27.8312 27.8955 27.4232V24.8195C27.8955 24.4115 28.223 24.084 28.631 24.084Z" fill="#435CDB"/>
<path d="M34.0641 24.084H36.6678C37.0758 24.084 37.4032 24.4115 37.4032 24.8195V27.4232C37.4032 27.8312 37.0758 28.1586 36.6678 28.1586H34.0641C33.6561 28.1586 33.3286 27.8312 33.3286 27.4232V24.8195C33.3286 24.4115 33.6561 24.084 34.0641 24.084Z" fill="#435CDB"/>
<path d="M39.4967 24.084H42.1004C42.5084 24.084 42.8359 24.4115 42.8359 24.8195V27.4232C42.8359 27.8312 42.5084 28.1586 42.1004 28.1586H39.4967C39.0887 28.1586 38.7612 27.8312 38.7612 27.4232V24.8195C38.7612 24.4115 39.0887 24.084 39.4967 24.084Z" fill="#435CDB"/>
<path d="M44.9293 24.084H47.533C47.941 24.084 48.2685 24.4115 48.2685 24.8195V27.4232C48.2685 27.8312 47.941 28.1586 47.533 28.1586H44.9293C44.5213 28.1586 44.1938 27.8312 44.1938 27.4232V24.8195C44.1938 24.4115 44.5213 24.084 44.9293 24.084Z" fill="#435CDB"/>
<path d="M50.3624 24.084H52.9661C53.3741 24.084 53.7016 24.4115 53.7016 24.8195V27.4232C53.7016 27.8312 53.3741 28.1586 52.9661 28.1586H50.3624C49.9544 28.1586 49.627 27.8312 49.627 27.4232V24.8195C49.627 24.4115 49.9544 24.084 50.3624 24.084Z" fill="#435CDB"/>
<path d="M55.795 24.084H58.3987C58.8067 24.084 59.1342 24.4115 59.1342 24.8195V27.4232C59.1342 27.8312 58.8067 28.1586 58.3987 28.1586H55.795C55.387 28.1586 55.0596 27.8312 55.0596 27.4232V24.8195C55.0596 24.4115 55.387 24.084 55.795 24.084Z" fill="#435CDB"/>
<path d="M61.2281 24.084H63.8318C64.2398 24.084 64.5673 24.4115 64.5673 24.8195V27.4232C64.5673 27.8312 64.2398 28.1586 63.8318 28.1586H61.2281C60.8201 28.1586 60.4927 27.8312 60.4927 27.4232V24.8195C60.4927 24.4115 60.8201 24.084 61.2281 24.084Z" fill="#435CDB"/>
<path d="M1.46692 18.1984H4.0706C4.4786 18.1984 4.80607 18.5259 4.80607 18.9339V21.5375C4.80607 21.9455 4.4786 22.273 4.0706 22.273H1.46692C1.05892 22.273 0.731445 21.9455 0.731445 21.5375V18.9339C0.731445 18.5259 1.05892 18.1984 1.46692 18.1984Z" fill="#435CDB"/>
<path d="M6.89954 18.1984H9.50322C9.91122 18.1984 10.2387 18.5259 10.2387 18.9339V21.5375C10.2387 21.9455 9.91122 22.273 9.50322 22.273H6.89954C6.49154 22.273 6.16406 21.9455 6.16406 21.5375V18.9339C6.16406 18.5259 6.49154 18.1984 6.89954 18.1984Z" fill="#435CDB"/>
<path d="M12.3326 18.1984H14.9363C15.3443 18.1984 15.6718 18.5259 15.6718 18.9339V21.5375C15.6718 21.9455 15.3443 22.273 14.9363 22.273H12.3326C11.9246 22.273 11.5972 21.9455 11.5972 21.5375V18.9339C11.5972 18.5259 11.9246 18.1984 12.3326 18.1984Z" fill="#435CDB"/>
<path d="M17.7653 18.1984H20.3689C20.7769 18.1984 21.1044 18.5259 21.1044 18.9339V21.5375C21.1044 21.9455 20.7769 22.273 20.3689 22.273H17.7653C17.3573 22.273 17.0298 21.9455 17.0298 21.5375V18.9339C17.0298 18.5259 17.3573 18.1984 17.7653 18.1984Z" fill="#435CDB"/>
<path d="M23.1984 18.1984H25.802C26.21 18.1984 26.5375 18.5259 26.5375 18.9339V21.5375C26.5375 21.9455 26.21 22.273 25.802 22.273H23.1984C22.7904 22.273 22.4629 21.9455 22.4629 21.5375V18.9339C22.4629 18.5259 22.7904 18.1984 23.1984 18.1984Z" fill="#435CDB"/>
<path d="M28.631 18.1984H31.2347C31.6427 18.1984 31.9701 18.5259 31.9701 18.9339V21.5375C31.9701 21.9455 31.6427 22.273 31.2347 22.273H28.631C28.223 22.273 27.8955 21.9455 27.8955 21.5375V18.9339C27.8955 18.5259 28.223 18.1984 28.631 18.1984Z" fill="#435CDB"/>
<path d="M34.0641 18.1984H36.6678C37.0758 18.1984 37.4032 18.5259 37.4032 18.9339V21.5375C37.4032 21.9455 37.0758 22.273 36.6678 22.273H34.0641C33.6561 22.273 33.3286 21.9455 33.3286 21.5375V18.9339C33.3286 18.5259 33.6561 18.1984 34.0641 18.1984Z" fill="#435CDB"/>
<path d="M39.4967 18.1984H42.1004C42.5084 18.1984 42.8359 18.5259 42.8359 18.9339V21.5375C42.8359 21.9455 42.5084 22.273 42.1004 22.273H39.4967C39.0887 22.273 38.7612 21.9455 38.7612 21.5375V18.9339C38.7612 18.5259 39.0887 18.1984 39.4967 18.1984Z" fill="#435CDB"/>
<path d="M44.9293 18.1984H47.533C47.941 18.1984 48.2685 18.5259 48.2685 18.9339V21.5375C48.2685 21.9455 47.941 22.273 47.533 22.273H44.9293C44.5213 22.273 44.1938 21.9455 44.1938 21.5375V18.9339C44.1938 18.5259 44.5213 18.1984 44.9293 18.1984Z" fill="#435CDB"/>
<path d="M50.3624 18.1984H52.9661C53.3741 18.1984 53.7016 18.5259 53.7016 18.9339V21.5375C53.7016 21.9455 53.3741 22.273 52.9661 22.273H50.3624C49.9544 22.273 49.627 21.9455 49.627 21.5375V18.9339C49.627 18.5259 49.9544 18.1984 50.3624 18.1984Z" fill="#435CDB"/>
<path d="M55.795 18.1984H58.3987C58.8067 18.1984 59.1342 18.5259 59.1342 18.9339V21.5375C59.1342 21.9455 58.8067 22.273 58.3987 22.273H55.795C55.387 22.273 55.0596 21.9455 55.0596 21.5375V18.9339C55.0596 18.5259 55.387 18.1984 55.795 18.1984Z" fill="#435CDB"/>
<path d="M61.2281 18.1984H63.8318C64.2398 18.1984 64.5673 18.5259 64.5673 18.9339V21.5375C64.5673 21.9455 64.2398 22.273 63.8318 22.273H61.2281C60.8201 22.273 60.4927 21.9455 60.4927 21.5375V18.9339C60.4927 18.5259 60.8201 18.1984 61.2281 18.1984Z" fill="#435CDB"/>
<path d="M1.46692 12.3128H4.0706C4.4786 12.3128 4.80607 12.6403 4.80607 13.0483V15.652C4.80607 16.06 4.4786 16.3874 4.0706 16.3874H1.46692C1.05892 16.3874 0.731445 16.06 0.731445 15.652V13.0483C0.731445 12.6403 1.05892 12.3128 1.46692 12.3128Z" fill="#435CDB"/>
<path d="M6.89954 12.3128H9.50322C9.91122 12.3128 10.2387 12.6403 10.2387 13.0483V15.652C10.2387 16.06 9.91122 16.3874 9.50322 16.3874H6.89954C6.49154 16.3874 6.16406 16.06 6.16406 15.652V13.0483C6.16406 12.6403 6.49154 12.3128 6.89954 12.3128Z" fill="#435CDB"/>
<path d="M12.3326 12.3128H14.9363C15.3443 12.3128 15.6718 12.6403 15.6718 13.0483V15.652C15.6718 16.06 15.3443 16.3874 14.9363 16.3874H12.3326C11.9246 16.3874 11.5972 16.06 11.5972 15.652V13.0483C11.5972 12.6403 11.9246 12.3128 12.3326 12.3128Z" fill="#435CDB"/>
<path d="M17.7653 12.3128H20.3689C20.7769 12.3128 21.1044 12.6403 21.1044 13.0483V15.652C21.1044 16.06 20.7769 16.3874 20.3689 16.3874H17.7653C17.3573 16.3874 17.0298 16.06 17.0298 15.652V13.0483C17.0298 12.6403 17.3573 12.3128 17.7653 12.3128Z" fill="#435CDB"/>
<path d="M23.1984 12.3128H25.802C26.21 12.3128 26.5375 12.6403 26.5375 13.0483V15.652C26.5375 16.06 26.21 16.3874 25.802 16.3874H23.1984C22.7904 16.3874 22.4629 16.06 22.4629 15.652V13.0483C22.4629 12.6403 22.7904 12.3128 23.1984 12.3128Z" fill="#435CDB"/>
<path d="M28.631 12.3128H31.2347C31.6427 12.3128 31.9701 12.6403 31.9701 13.0483V15.652C31.9701 16.06 31.6427 16.3874 31.2347 16.3874H28.631C28.223 16.3874 27.8955 16.06 27.8955 15.652V13.0483C27.8955 12.6403 28.223 12.3128 28.631 12.3128Z" fill="#435CDB"/>
<path d="M34.0641 12.3128H36.6678C37.0758 12.3128 37.4032 12.6403 37.4032 13.0483V15.652C37.4032 16.06 37.0758 16.3874 36.6678 16.3874H34.0641C33.6561 16.3874 33.3286 16.06 33.3286 15.652V13.0483C33.3286 12.6403 33.6561 12.3128 34.0641 12.3128Z" fill="#435CDB"/>
<path d="M39.4967 12.3128H42.1004C42.5084 12.3128 42.8359 12.6403 42.8359 13.0483V15.652C42.8359 16.06 42.5084 16.3874 42.1004 16.3874H39.4967C39.0887 16.3874 38.7612 16.06 38.7612 15.652V13.0483C38.7612 12.6403 39.0887 12.3128 39.4967 12.3128Z" fill="#435CDB"/>
<path d="M44.9293 12.3128H47.533C47.941 12.3128 48.2685 12.6403 48.2685 13.0483V15.652C48.2685 16.06 47.941 16.3874 47.533 16.3874H44.9293C44.5213 16.3874 44.1938 16.06 44.1938 15.652V13.0483C44.1938 12.6403 44.5213 12.3128 44.9293 12.3128Z" fill="#435CDB"/>
<path d="M50.3624 12.3128H52.9661C53.3741 12.3128 53.7016 12.6403 53.7016 13.0483V15.652C53.7016 16.06 53.3741 16.3874 52.9661 16.3874H50.3624C49.9544 16.3874 49.627 16.06 49.627 15.652V13.0483C49.627 12.6403 49.9544 12.3128 50.3624 12.3128Z" fill="#435CDB"/>
<path d="M55.795 12.3128H58.3987C58.8067 12.3128 59.1342 12.6403 59.1342 13.0483V15.652C59.1342 16.06 58.8067 16.3874 58.3987 16.3874H55.795C55.387 16.3874 55.0596 16.06 55.0596 15.652V13.0483C55.0596 12.6403 55.387 12.3128 55.795 12.3128Z" fill="#435CDB"/>
<path d="M61.2281 12.3128H63.8318C64.2398 12.3128 64.5673 12.6403 64.5673 13.0483V15.652C64.5673 16.06 64.2398 16.3874 63.8318 16.3874H61.2281C60.8201 16.3874 60.4927 16.06 60.4927 15.652V13.0483C60.4927 12.6403 60.8201 12.3128 61.2281 12.3128Z" fill="#435CDB"/>
<path d="M1.46692 6.42723H4.0706C4.4786 6.42723 4.80607 6.7547 4.80607 7.1627V9.76638C4.80607 10.1744 4.4786 10.5019 4.0706 10.5019H1.46692C1.05892 10.5019 0.731445 10.1744 0.731445 9.76638V7.1627C0.731445 6.7547 1.05892 6.42723 1.46692 6.42723Z" fill="#435CDB"/>
<path d="M6.89954 6.42723H9.50322C9.91122 6.42723 10.2387 6.7547 10.2387 7.1627V9.76638C10.2387 10.1744 9.91122 10.5019 9.50322 10.5019H6.89954C6.49154 10.5019 6.16406 10.1744 6.16406 9.76638V7.1627C6.16406 6.7547 6.49154 6.42723 6.89954 6.42723Z" fill="#435CDB"/>
<path d="M12.3326 6.42723H14.9363C15.3443 6.42723 15.6718 6.7547 15.6718 7.1627V9.76638C15.6718 10.1744 15.3443 10.5019 14.9363 10.5019H12.3326C11.9246 10.5019 11.5972 10.1744 11.5972 9.76638V7.1627C11.5972 6.7547 11.9246 6.42723 12.3326 6.42723Z" fill="#435CDB"/>
<path d="M17.7653 6.42723H20.3689C20.7769 6.42723 21.1044 6.7547 21.1044 7.1627V9.76638C21.1044 10.1744 20.7769 10.5019 20.3689 10.5019H17.7653C17.3573 10.5019 17.0298 10.1744 17.0298 9.76638V7.1627C17.0298 6.7547 17.3573 6.42723 17.7653 6.42723Z" fill="#435CDB"/>
<path d="M23.1984 6.42723H25.802C26.21 6.42723 26.5375 6.7547 26.5375 7.1627V9.76638C26.5375 10.1744 26.21 10.5019 25.802 10.5019H23.1984C22.7904 10.5019 22.4629 10.1744 22.4629 9.76638V7.1627C22.4629 6.7547 22.7904 6.42723 23.1984 6.42723Z" fill="#435CDB"/>
<path d="M28.631 6.42723H31.2347C31.6427 6.42723 31.9701 6.7547 31.9701 7.1627V9.76638C31.9701 10.1744 31.6427 10.5019 31.2347 10.5019H28.631C28.223 10.5019 27.8955 10.1744 27.8955 9.76638V7.1627C27.8955 6.7547 28.223 6.42723 28.631 6.42723Z" fill="#435CDB"/>
<path d="M34.0641 6.42723H36.6678C37.0758 6.42723 37.4032 6.7547 37.4032 7.1627V9.76638C37.4032 10.1744 37.0758 10.5019 36.6678 10.5019H34.0641C33.6561 10.5019 33.3286 10.1744 33.3286 9.76638V7.1627C33.3286 6.7547 33.6561 6.42723 34.0641 6.42723Z" fill="#435CDB"/>
<path d="M39.4967 6.42723H42.1004C42.5084 6.42723 42.8359 6.7547 42.8359 7.1627V9.76638C42.8359 10.1744 42.5084 10.5019 42.1004 10.5019H39.4967C39.0887 10.5019 38.7612 10.1744 38.7612 9.76638V7.1627C38.7612 6.7547 39.0887 6.42723 39.4967 6.42723Z" fill="#435CDB"/>
<path d="M44.9293 6.42723H47.533C47.941 6.42723 48.2685 6.7547 48.2685 7.1627V9.76638C48.2685 10.1744 47.941 10.5019 47.533 10.5019H44.9293C44.5213 10.5019 44.1938 10.1744 44.1938 9.76638V7.1627C44.1938 6.7547 44.5213 6.42723 44.9293 6.42723Z" fill="#435CDB"/>
<path d="M50.3624 6.42723H52.9661C53.3741 6.42723 53.7016 6.7547 53.7016 7.1627V9.76638C53.7016 10.1744 53.3741 10.5019 52.9661 10.5019H50.3624C49.9544 10.5019 49.627 10.1744 49.627 9.76638V7.1627C49.627 6.7547 49.9544 6.42723 50.3624 6.42723Z" fill="#435CDB"/>
<path d="M55.795 6.42723H58.3987C58.8067 6.42723 59.1342 6.7547 59.1342 7.1627V9.76638C59.1342 10.1744 58.8067 10.5019 58.3987 10.5019H55.795C55.387 10.5019 55.0596 10.1744 55.0596 9.76638V7.1627C55.0596 6.7547 55.387 6.42723 55.795 6.42723Z" fill="#435CDB"/>
<path d="M61.2281 6.42723H63.8318C64.2398 6.42723 64.5673 6.7547 64.5673 7.1627V9.76638C64.5673 10.1744 64.2398 10.5019 63.8318 10.5019H61.2281C60.8201 10.5019 60.4927 10.1744 60.4927 9.76638V7.1627C60.4927 6.7547 60.8201 6.42723 61.2281 6.42723Z" fill="#435CDB"/>
<path d="M1.46692 0.541702H4.0706C4.4786 0.541702 4.80607 0.869176 4.80607 1.27718V3.88086C4.80607 4.28886 4.4786 4.61633 4.0706 4.61633H1.46692C1.05892 4.61633 0.731445 4.28886 0.731445 3.88086V1.27718C0.731445 0.869176 1.05892 0.541702 1.46692 0.541702Z" fill="#435CDB"/>
<path d="M6.89954 0.541702H9.50322C9.91122 0.541702 10.2387 0.869176 10.2387 1.27718V3.88086C10.2387 4.28886 9.91122 4.61633 9.50322 4.61633H6.89954C6.49154 4.61633 6.16406 4.28886 6.16406 3.88086V1.27718C6.16406 0.869176 6.49154 0.541702 6.89954 0.541702Z" fill="#435CDB"/>
<path d="M12.3326 0.541702H14.9363C15.3443 0.541702 15.6718 0.869176 15.6718 1.27718V3.88086C15.6718 4.28886 15.3443 4.61633 14.9363 4.61633H12.3326C11.9246 4.61633 11.5972 4.28886 11.5972 3.88086V1.27718C11.5972 0.869176 11.9246 0.541702 12.3326 0.541702Z" fill="#435CDB"/>
<path d="M17.7653 0.541702H20.3689C20.7769 0.541702 21.1044 0.869176 21.1044 1.27718V3.88086C21.1044 4.28886 20.7769 4.61633 20.3689 4.61633H17.7653C17.3573 4.61633 17.0298 4.28886 17.0298 3.88086V1.27718C17.0298 0.869176 17.3573 0.541702 17.7653 0.541702Z" fill="#435CDB"/>
<path d="M23.1984 0.541702H25.802C26.21 0.541702 26.5375 0.869176 26.5375 1.27718V3.88086C26.5375 4.28886 26.21 4.61633 25.802 4.61633H23.1984C22.7904 4.61633 22.4629 4.28886 22.4629 3.88086V1.27718C22.4629 0.869176 22.7904 0.541702 23.1984 0.541702Z" fill="#435CDB"/>
<path d="M28.631 0.541702H31.2347C31.6427 0.541702 31.9701 0.869176 31.9701 1.27718V3.88086C31.9701 4.28886 31.6427 4.61633 31.2347 4.61633H28.631C28.223 4.61633 27.8955 4.28886 27.8955 3.88086V1.27718C27.8955 0.869176 28.223 0.541702 28.631 0.541702Z" fill="#435CDB"/>
<path d="M34.0636 0.541702H36.6673C37.0753 0.541702 37.4028 0.869176 37.4028 1.27718V3.88086C37.4028 4.28886 37.0753 4.61633 36.6673 4.61633H34.0636C33.6556 4.61633 33.3281 4.28886 33.3281 3.88086V1.27718C33.3281 0.869176 33.6556 0.541702 34.0636 0.541702Z" fill="#435CDB"/>
<path d="M39.4967 0.541702H42.1004C42.5084 0.541702 42.8359 0.869176 42.8359 1.27718V3.88086C42.8359 4.28886 42.5084 4.61633 42.1004 4.61633H39.4967C39.0887 4.61633 38.7612 4.28886 38.7612 3.88086V1.27718C38.7612 0.869176 39.0887 0.541702 39.4967 0.541702Z" fill="#435CDB"/>
<path d="M44.9293 0.541702H47.533C47.941 0.541702 48.2685 0.869176 48.2685 1.27718V3.88086C48.2685 4.28886 47.941 4.61633 47.533 4.61633H44.9293C44.5213 4.61633 44.1938 4.28886 44.1938 3.88086V1.27718C44.1938 0.869176 44.5213 0.541702 44.9293 0.541702Z" fill="#435CDB"/>
<path d="M50.3624 0.541702H52.9661C53.3741 0.541702 53.7016 0.869176 53.7016 1.27718V3.88086C53.7016 4.28886 53.3741 4.61633 52.9661 4.61633H50.3624C49.9544 4.61633 49.627 4.28886 49.627 3.88086V1.27718C49.627 0.869176 49.9544 0.541702 50.3624 0.541702Z" fill="#435CDB"/>
<path d="M55.795 0.541702H58.3987C58.8067 0.541702 59.1342 0.869176 59.1342 1.27718V3.88086C59.1342 4.28886 58.8067 4.61633 58.3987 4.61633H55.795C55.387 4.61633 55.0596 4.28886 55.0596 3.88086V1.27718C55.0596 0.869176 55.387 0.541702 55.795 0.541702Z" fill="#435CDB"/>
<path d="M61.2281 0.541702H63.8318C64.2398 0.541702 64.5673 0.869176 64.5673 1.27718V3.88086C64.5673 4.28886 64.2398 4.61633 63.8318 4.61633H61.2281C60.8201 4.61633 60.4927 4.28886 60.4927 3.88086V1.27718C60.4927 0.869176 60.8201 0.541702 61.2281 0.541702Z" fill="#435CDB"/>
</mask>
<g mask="url(#mask0_329_30346)">
<path fill-rule="evenodd" clip-rule="evenodd" d="M0 41.3703H21.5C24.9833 41.3703 27.5 46 27.5 46H33H38.5C38.6302 45.7508 38.7553 45.5054 38.8778 45.2651L38.8779 45.2649C40.094 42.8798 41.0524 41 44.1209 41H50.5934L45.5525 32.4196L39.4161 37.9749C38.6294 38.5755 38 38.2752 38 37.5245V12L59.7134 27.0144C60.3428 27.4648 59.8708 29.4167 58.9267 29.4167H51.5316L57.1959 38.7256C57.636 39.4255 57.3923 40.3864 56.5923 41H65V38.1111V-3.05176e-05H43.6667C36.5556 -3.05176e-05 33 5.08145 33 10.8889C33 5.08145 29.3333 -3.05176e-05 22 -3.05176e-05H0V41.3703Z" fill="#A6B3C9"/>
</g>
</g>
<defs>
<clipPath id="clip0_329_30346">
<rect width="65" height="46" fill="white"/>
</clipPath>
</defs>
</svg>
