<svg width="65" height="46" viewBox="0 0 65 46" fill="none" xmlns="http://www.w3.org/2000/svg">
<g clip-path="url(#clip0_329_32442)">
<mask id="mask0_329_32442" style="mask-type:alpha" maskUnits="userSpaceOnUse" x="-10" y="-24" width="91" height="94">
<path d="M1.6012 41.7406H4.20488C4.61288 41.7406 4.94035 42.068 4.94035 42.476V45.0797C4.94035 45.4877 4.61288 45.8152 4.20488 45.8152H1.6012C1.1932 45.8152 0.865723 45.4877 0.865723 45.0797V42.476C0.865723 42.068 1.1932 41.7406 1.6012 41.7406Z" fill="#435CDB"/>
<path d="M7.03381 41.7406H9.63749C10.0455 41.7406 10.373 42.068 10.373 42.476V45.0797C10.373 45.4877 10.0455 45.8152 9.63749 45.8152H7.03381C6.62581 45.8152 6.29834 45.4877 6.29834 45.0797V42.476C6.29834 42.068 6.62581 41.7406 7.03381 41.7406Z" fill="#435CDB"/>
<path d="M12.4669 41.7406H15.0706C15.4786 41.7406 15.8061 42.068 15.8061 42.476V45.0797C15.8061 45.4877 15.4786 45.8152 15.0706 45.8152H12.4669C12.0589 45.8152 11.7314 45.4877 11.7314 45.0797V42.476C11.7314 42.068 12.0589 41.7406 12.4669 41.7406Z" fill="#435CDB"/>
<path d="M17.8995 41.7406H20.5032C20.9112 41.7406 21.2387 42.068 21.2387 42.476V45.0797C21.2387 45.4877 20.9112 45.8152 20.5032 45.8152H17.8995C17.4915 45.8152 17.1641 45.4877 17.1641 45.0797V42.476C17.1641 42.068 17.4915 41.7406 17.8995 41.7406Z" fill="#435CDB"/>
<path d="M23.3326 41.7406H25.9363C26.3443 41.7406 26.6718 42.068 26.6718 42.476V45.0797C26.6718 45.4877 26.3443 45.8152 25.9363 45.8152H23.3326C22.9246 45.8152 22.5972 45.4877 22.5972 45.0797V42.476C22.5972 42.068 22.9246 41.7406 23.3326 41.7406Z" fill="#435CDB"/>
<path d="M28.7653 41.7406H31.3689C31.7769 41.7406 32.1044 42.068 32.1044 42.476V45.0797C32.1044 45.4877 31.7769 45.8152 31.3689 45.8152H28.7653C28.3573 45.8152 28.0298 45.4877 28.0298 45.0797V42.476C28.0298 42.068 28.3573 41.7406 28.7653 41.7406Z" fill="#435CDB"/>
<path d="M34.1984 41.7406H36.802C37.21 41.7406 37.5375 42.068 37.5375 42.476V45.0797C37.5375 45.4877 37.21 45.8152 36.802 45.8152H34.1984C33.7904 45.8152 33.4629 45.4877 33.4629 45.0797V42.476C33.4629 42.068 33.7904 41.7406 34.1984 41.7406Z" fill="#435CDB"/>
<path d="M39.631 41.7406H42.2347C42.6427 41.7406 42.9701 42.068 42.9701 42.476V45.0797C42.9701 45.4877 42.6427 45.8152 42.2347 45.8152H39.631C39.223 45.8152 38.8955 45.4877 38.8955 45.0797V42.476C38.8955 42.068 39.223 41.7406 39.631 41.7406Z" fill="#435CDB"/>
<path d="M45.0641 41.7406H47.6678C48.0758 41.7406 48.4032 42.068 48.4032 42.476V45.0797C48.4032 45.4877 48.0758 45.8152 47.6678 45.8152H45.0641C44.6561 45.8152 44.3286 45.4877 44.3286 45.0797V42.476C44.3286 42.068 44.6561 41.7406 45.0641 41.7406Z" fill="#435CDB"/>
<path d="M50.4967 41.7406H53.1004C53.5084 41.7406 53.8359 42.068 53.8359 42.476V45.0797C53.8359 45.4877 53.5084 45.8152 53.1004 45.8152H50.4967C50.0887 45.8152 49.7612 45.4877 49.7612 45.0797V42.476C49.7612 42.068 50.0887 41.7406 50.4967 41.7406Z" fill="#435CDB"/>
<path d="M55.9293 41.7406H58.533C58.941 41.7406 59.2685 42.068 59.2685 42.476V45.0797C59.2685 45.4877 58.941 45.8152 58.533 45.8152H55.9293C55.5213 45.8152 55.1938 45.4877 55.1938 45.0797V42.476C55.1938 42.068 55.5213 41.7406 55.9293 41.7406Z" fill="#435CDB"/>
<path d="M61.3624 41.7406H63.9661C64.3741 41.7406 64.7016 42.068 64.7016 42.476V45.0797C64.7016 45.4877 64.3741 45.8152 63.9661 45.8152H61.3624C60.9544 45.8152 60.627 45.4877 60.627 45.0797V42.476C60.627 42.068 60.9544 41.7406 61.3624 41.7406Z" fill="#435CDB"/>
<path d="M1.6012 35.855H4.20488C4.61288 35.855 4.94035 36.1825 4.94035 36.5905V39.1942C4.94035 39.6022 4.61288 39.9297 4.20488 39.9297H1.6012C1.1932 39.9297 0.865723 39.6022 0.865723 39.1942V36.5905C0.865723 36.1825 1.1932 35.855 1.6012 35.855Z" fill="#435CDB"/>
<path d="M7.03381 35.855H9.63749C10.0455 35.855 10.373 36.1825 10.373 36.5905V39.1942C10.373 39.6022 10.0455 39.9297 9.63749 39.9297H7.03381C6.62581 39.9297 6.29834 39.6022 6.29834 39.1942V36.5905C6.29834 36.1825 6.62581 35.855 7.03381 35.855Z" fill="#435CDB"/>
<path d="M12.4669 35.855H15.0706C15.4786 35.855 15.8061 36.1825 15.8061 36.5905V39.1942C15.8061 39.6022 15.4786 39.9297 15.0706 39.9297H12.4669C12.0589 39.9297 11.7314 39.6022 11.7314 39.1942V36.5905C11.7314 36.1825 12.0589 35.855 12.4669 35.855Z" fill="#435CDB"/>
<path d="M17.8995 35.855H20.5032C20.9112 35.855 21.2387 36.1825 21.2387 36.5905V39.1942C21.2387 39.6022 20.9112 39.9297 20.5032 39.9297H17.8995C17.4915 39.9297 17.1641 39.6022 17.1641 39.1942V36.5905C17.1641 36.1825 17.4915 35.855 17.8995 35.855Z" fill="#435CDB"/>
<path d="M23.3326 35.855H25.9363C26.3443 35.855 26.6718 36.1825 26.6718 36.5905V39.1942C26.6718 39.6022 26.3443 39.9297 25.9363 39.9297H23.3326C22.9246 39.9297 22.5972 39.6022 22.5972 39.1942V36.5905C22.5972 36.1825 22.9246 35.855 23.3326 35.855Z" fill="#435CDB"/>
<path d="M28.7653 35.855H31.3689C31.7769 35.855 32.1044 36.1825 32.1044 36.5905V39.1942C32.1044 39.6022 31.7769 39.9297 31.3689 39.9297H28.7653C28.3573 39.9297 28.0298 39.6022 28.0298 39.1942V36.5905C28.0298 36.1825 28.3573 35.855 28.7653 35.855Z" fill="#435CDB"/>
<path d="M34.1984 35.855H36.802C37.21 35.855 37.5375 36.1825 37.5375 36.5905V39.1942C37.5375 39.6022 37.21 39.9297 36.802 39.9297H34.1984C33.7904 39.9297 33.4629 39.6022 33.4629 39.1942V36.5905C33.4629 36.1825 33.7904 35.855 34.1984 35.855Z" fill="#435CDB"/>
<path d="M39.631 35.855H42.2347C42.6427 35.855 42.9701 36.1825 42.9701 36.5905V39.1942C42.9701 39.6022 42.6427 39.9297 42.2347 39.9297H39.631C39.223 39.9297 38.8955 39.6022 38.8955 39.1942V36.5905C38.8955 36.1825 39.223 35.855 39.631 35.855Z" fill="#435CDB"/>
<path d="M45.0641 35.855H47.6678C48.0758 35.855 48.4032 36.1825 48.4032 36.5905V39.1942C48.4032 39.6022 48.0758 39.9297 47.6678 39.9297H45.0641C44.6561 39.9297 44.3286 39.6022 44.3286 39.1942V36.5905C44.3286 36.1825 44.6561 35.855 45.0641 35.855Z" fill="#435CDB"/>
<path d="M50.4967 35.855H53.1004C53.5084 35.855 53.8359 36.1825 53.8359 36.5905V39.1942C53.8359 39.6022 53.5084 39.9297 53.1004 39.9297H50.4967C50.0887 39.9297 49.7612 39.6022 49.7612 39.1942V36.5905C49.7612 36.1825 50.0887 35.855 50.4967 35.855Z" fill="#435CDB"/>
<path d="M55.9293 35.855H58.533C58.941 35.855 59.2685 36.1825 59.2685 36.5905V39.1942C59.2685 39.6022 58.941 39.9297 58.533 39.9297H55.9293C55.5213 39.9297 55.1938 39.6022 55.1938 39.1942V36.5905C55.1938 36.1825 55.5213 35.855 55.9293 35.855Z" fill="#435CDB"/>
<path d="M61.3624 35.855H63.9661C64.3741 35.855 64.7016 36.1825 64.7016 36.5905V39.1942C64.7016 39.6022 64.3741 39.9297 63.9661 39.9297H61.3624C60.9544 39.9297 60.627 39.6022 60.627 39.1942V36.5905C60.627 36.1825 60.9544 35.855 61.3624 35.855Z" fill="#435CDB"/>
<path d="M1.6012 29.9695H4.20488C4.61288 29.9695 4.94035 30.2969 4.94035 30.7049V33.3086C4.94035 33.7166 4.61288 34.0441 4.20488 34.0441H1.6012C1.1932 34.0441 0.865723 33.7166 0.865723 33.3086V30.7049C0.865723 30.2969 1.1932 29.9695 1.6012 29.9695Z" fill="#435CDB"/>
<path d="M7.03381 29.9695H9.63749C10.0455 29.9695 10.373 30.2969 10.373 30.7049V33.3086C10.373 33.7166 10.0455 34.0441 9.63749 34.0441H7.03381C6.62581 34.0441 6.29834 33.7166 6.29834 33.3086V30.7049C6.29834 30.2969 6.62581 29.9695 7.03381 29.9695Z" fill="#435CDB"/>
<path d="M12.4669 29.9695H15.0706C15.4786 29.9695 15.8061 30.2969 15.8061 30.7049V33.3086C15.8061 33.7166 15.4786 34.0441 15.0706 34.0441H12.4669C12.0589 34.0441 11.7314 33.7166 11.7314 33.3086V30.7049C11.7314 30.2969 12.0589 29.9695 12.4669 29.9695Z" fill="#435CDB"/>
<path d="M17.8995 29.9695H20.5032C20.9112 29.9695 21.2387 30.2969 21.2387 30.7049V33.3086C21.2387 33.7166 20.9112 34.0441 20.5032 34.0441H17.8995C17.4915 34.0441 17.1641 33.7166 17.1641 33.3086V30.7049C17.1641 30.2969 17.4915 29.9695 17.8995 29.9695Z" fill="#435CDB"/>
<path d="M23.3326 29.9695H25.9363C26.3443 29.9695 26.6718 30.2969 26.6718 30.7049V33.3086C26.6718 33.7166 26.3443 34.0441 25.9363 34.0441H23.3326C22.9246 34.0441 22.5972 33.7166 22.5972 33.3086V30.7049C22.5972 30.2969 22.9246 29.9695 23.3326 29.9695Z" fill="#435CDB"/>
<path d="M28.7653 29.9695H31.3689C31.7769 29.9695 32.1044 30.2969 32.1044 30.7049V33.3086C32.1044 33.7166 31.7769 34.0441 31.3689 34.0441H28.7653C28.3573 34.0441 28.0298 33.7166 28.0298 33.3086V30.7049C28.0298 30.2969 28.3573 29.9695 28.7653 29.9695Z" fill="#435CDB"/>
<path d="M34.1984 29.9695H36.802C37.21 29.9695 37.5375 30.2969 37.5375 30.7049V33.3086C37.5375 33.7166 37.21 34.0441 36.802 34.0441H34.1984C33.7904 34.0441 33.4629 33.7166 33.4629 33.3086V30.7049C33.4629 30.2969 33.7904 29.9695 34.1984 29.9695Z" fill="#435CDB"/>
<path d="M39.631 29.9695H42.2347C42.6427 29.9695 42.9701 30.2969 42.9701 30.7049V33.3086C42.9701 33.7166 42.6427 34.0441 42.2347 34.0441H39.631C39.223 34.0441 38.8955 33.7166 38.8955 33.3086V30.7049C38.8955 30.2969 39.223 29.9695 39.631 29.9695Z" fill="#435CDB"/>
<path d="M45.0636 29.9695H47.6673C48.0753 29.9695 48.4028 30.2969 48.4028 30.7049V33.3086C48.4028 33.7166 48.0753 34.0441 47.6673 34.0441H45.0636C44.6556 34.0441 44.3281 33.7166 44.3281 33.3086V30.7049C44.3281 30.2969 44.6556 29.9695 45.0636 29.9695Z" fill="#435CDB"/>
<path d="M50.4967 29.9695H53.1004C53.5084 29.9695 53.8359 30.2969 53.8359 30.7049V33.3086C53.8359 33.7166 53.5084 34.0441 53.1004 34.0441H50.4967C50.0887 34.0441 49.7612 33.7166 49.7612 33.3086V30.7049C49.7612 30.2969 50.0887 29.9695 50.4967 29.9695Z" fill="#435CDB"/>
<path d="M55.9293 29.9695H58.533C58.941 29.9695 59.2685 30.2969 59.2685 30.7049V33.3086C59.2685 33.7166 58.941 34.0441 58.533 34.0441H55.9293C55.5213 34.0441 55.1938 33.7166 55.1938 33.3086V30.7049C55.1938 30.2969 55.5213 29.9695 55.9293 29.9695Z" fill="#435CDB"/>
<path d="M61.3624 29.9695H63.9661C64.3741 29.9695 64.7016 30.2969 64.7016 30.7049V33.3086C64.7016 33.7166 64.3741 34.0441 63.9661 34.0441H61.3624C60.9544 34.0441 60.627 33.7166 60.627 33.3086V30.7049C60.627 30.2969 60.9544 29.9695 61.3624 29.9695Z" fill="#435CDB"/>
<path d="M1.6012 24.0839H4.20488C4.61288 24.0839 4.94035 24.4114 4.94035 24.8194V27.423C4.94035 27.831 4.61288 28.1585 4.20488 28.1585H1.6012C1.1932 28.1585 0.865723 27.831 0.865723 27.423V24.8194C0.865723 24.4114 1.1932 24.0839 1.6012 24.0839Z" fill="#435CDB"/>
<path d="M7.03381 24.0839H9.63749C10.0455 24.0839 10.373 24.4114 10.373 24.8194V27.423C10.373 27.831 10.0455 28.1585 9.63749 28.1585H7.03381C6.62581 28.1585 6.29834 27.831 6.29834 27.423V24.8194C6.29834 24.4114 6.62581 24.0839 7.03381 24.0839Z" fill="#435CDB"/>
<path d="M12.4669 24.0839H15.0706C15.4786 24.0839 15.8061 24.4114 15.8061 24.8194V27.423C15.8061 27.831 15.4786 28.1585 15.0706 28.1585H12.4669C12.0589 28.1585 11.7314 27.831 11.7314 27.423V24.8194C11.7314 24.4114 12.0589 24.0839 12.4669 24.0839Z" fill="#435CDB"/>
<path d="M17.8995 24.0839H20.5032C20.9112 24.0839 21.2387 24.4114 21.2387 24.8194V27.423C21.2387 27.831 20.9112 28.1585 20.5032 28.1585H17.8995C17.4915 28.1585 17.1641 27.831 17.1641 27.423V24.8194C17.1641 24.4114 17.4915 24.0839 17.8995 24.0839Z" fill="#435CDB"/>
<path d="M23.3326 24.0839H25.9363C26.3443 24.0839 26.6718 24.4114 26.6718 24.8194V27.423C26.6718 27.831 26.3443 28.1585 25.9363 28.1585H23.3326C22.9246 28.1585 22.5972 27.831 22.5972 27.423V24.8194C22.5972 24.4114 22.9246 24.0839 23.3326 24.0839Z" fill="#435CDB"/>
<path d="M28.7653 24.0839H31.3689C31.7769 24.0839 32.1044 24.4114 32.1044 24.8194V27.423C32.1044 27.831 31.7769 28.1585 31.3689 28.1585H28.7653C28.3573 28.1585 28.0298 27.831 28.0298 27.423V24.8194C28.0298 24.4114 28.3573 24.0839 28.7653 24.0839Z" fill="#435CDB"/>
<path d="M34.1984 24.0839H36.802C37.21 24.0839 37.5375 24.4114 37.5375 24.8194V27.423C37.5375 27.831 37.21 28.1585 36.802 28.1585H34.1984C33.7904 28.1585 33.4629 27.831 33.4629 27.423V24.8194C33.4629 24.4114 33.7904 24.0839 34.1984 24.0839Z" fill="#435CDB"/>
<path d="M39.631 24.0839H42.2347C42.6427 24.0839 42.9701 24.4114 42.9701 24.8194V27.423C42.9701 27.831 42.6427 28.1585 42.2347 28.1585H39.631C39.223 28.1585 38.8955 27.831 38.8955 27.423V24.8194C38.8955 24.4114 39.223 24.0839 39.631 24.0839Z" fill="#435CDB"/>
<path d="M45.0641 24.0839H47.6678C48.0758 24.0839 48.4032 24.4114 48.4032 24.8194V27.423C48.4032 27.831 48.0758 28.1585 47.6678 28.1585H45.0641C44.6561 28.1585 44.3286 27.831 44.3286 27.423V24.8194C44.3286 24.4114 44.6561 24.0839 45.0641 24.0839Z" fill="#435CDB"/>
<path d="M50.4967 24.0839H53.1004C53.5084 24.0839 53.8359 24.4114 53.8359 24.8194V27.423C53.8359 27.831 53.5084 28.1585 53.1004 28.1585H50.4967C50.0887 28.1585 49.7612 27.831 49.7612 27.423V24.8194C49.7612 24.4114 50.0887 24.0839 50.4967 24.0839Z" fill="#435CDB"/>
<path d="M55.9293 24.0839H58.533C58.941 24.0839 59.2685 24.4114 59.2685 24.8194V27.423C59.2685 27.831 58.941 28.1585 58.533 28.1585H55.9293C55.5213 28.1585 55.1938 27.831 55.1938 27.423V24.8194C55.1938 24.4114 55.5213 24.0839 55.9293 24.0839Z" fill="#435CDB"/>
<path d="M61.3624 24.0839H63.9661C64.3741 24.0839 64.7016 24.4114 64.7016 24.8194V27.423C64.7016 27.831 64.3741 28.1585 63.9661 28.1585H61.3624C60.9544 28.1585 60.627 27.831 60.627 27.423V24.8194C60.627 24.4114 60.9544 24.0839 61.3624 24.0839Z" fill="#435CDB"/>
<path d="M1.6012 18.1983H4.20488C4.61288 18.1983 4.94035 18.5257 4.94035 18.9337V21.5374C4.94035 21.9454 4.61288 22.2729 4.20488 22.2729H1.6012C1.1932 22.2729 0.865723 21.9454 0.865723 21.5374V18.9337C0.865723 18.5257 1.1932 18.1983 1.6012 18.1983Z" fill="#435CDB"/>
<path d="M7.03381 18.1983H9.63749C10.0455 18.1983 10.373 18.5257 10.373 18.9337V21.5374C10.373 21.9454 10.0455 22.2729 9.63749 22.2729H7.03381C6.62581 22.2729 6.29834 21.9454 6.29834 21.5374V18.9337C6.29834 18.5257 6.62581 18.1983 7.03381 18.1983Z" fill="#435CDB"/>
<path d="M12.4669 18.1983H15.0706C15.4786 18.1983 15.8061 18.5257 15.8061 18.9337V21.5374C15.8061 21.9454 15.4786 22.2729 15.0706 22.2729H12.4669C12.0589 22.2729 11.7314 21.9454 11.7314 21.5374V18.9337C11.7314 18.5257 12.0589 18.1983 12.4669 18.1983Z" fill="#435CDB"/>
<path d="M17.8995 18.1983H20.5032C20.9112 18.1983 21.2387 18.5257 21.2387 18.9337V21.5374C21.2387 21.9454 20.9112 22.2729 20.5032 22.2729H17.8995C17.4915 22.2729 17.1641 21.9454 17.1641 21.5374V18.9337C17.1641 18.5257 17.4915 18.1983 17.8995 18.1983Z" fill="#435CDB"/>
<path d="M23.3326 18.1983H25.9363C26.3443 18.1983 26.6718 18.5257 26.6718 18.9337V21.5374C26.6718 21.9454 26.3443 22.2729 25.9363 22.2729H23.3326C22.9246 22.2729 22.5972 21.9454 22.5972 21.5374V18.9337C22.5972 18.5257 22.9246 18.1983 23.3326 18.1983Z" fill="#435CDB"/>
<path d="M28.7653 18.1983H31.3689C31.7769 18.1983 32.1044 18.5257 32.1044 18.9337V21.5374C32.1044 21.9454 31.7769 22.2729 31.3689 22.2729H28.7653C28.3573 22.2729 28.0298 21.9454 28.0298 21.5374V18.9337C28.0298 18.5257 28.3573 18.1983 28.7653 18.1983Z" fill="#435CDB"/>
<path d="M34.1984 18.1983H36.802C37.21 18.1983 37.5375 18.5257 37.5375 18.9337V21.5374C37.5375 21.9454 37.21 22.2729 36.802 22.2729H34.1984C33.7904 22.2729 33.4629 21.9454 33.4629 21.5374V18.9337C33.4629 18.5257 33.7904 18.1983 34.1984 18.1983Z" fill="#435CDB"/>
<path d="M39.631 18.1983H42.2347C42.6427 18.1983 42.9701 18.5257 42.9701 18.9337V21.5374C42.9701 21.9454 42.6427 22.2729 42.2347 22.2729H39.631C39.223 22.2729 38.8955 21.9454 38.8955 21.5374V18.9337C38.8955 18.5257 39.223 18.1983 39.631 18.1983Z" fill="#435CDB"/>
<path d="M45.0641 18.1983H47.6678C48.0758 18.1983 48.4032 18.5257 48.4032 18.9337V21.5374C48.4032 21.9454 48.0758 22.2729 47.6678 22.2729H45.0641C44.6561 22.2729 44.3286 21.9454 44.3286 21.5374V18.9337C44.3286 18.5257 44.6561 18.1983 45.0641 18.1983Z" fill="#435CDB"/>
<path d="M50.4967 18.1983H53.1004C53.5084 18.1983 53.8359 18.5257 53.8359 18.9337V21.5374C53.8359 21.9454 53.5084 22.2729 53.1004 22.2729H50.4967C50.0887 22.2729 49.7612 21.9454 49.7612 21.5374V18.9337C49.7612 18.5257 50.0887 18.1983 50.4967 18.1983Z" fill="#435CDB"/>
<path d="M55.9293 18.1983H58.533C58.941 18.1983 59.2685 18.5257 59.2685 18.9337V21.5374C59.2685 21.9454 58.941 22.2729 58.533 22.2729H55.9293C55.5213 22.2729 55.1938 21.9454 55.1938 21.5374V18.9337C55.1938 18.5257 55.5213 18.1983 55.9293 18.1983Z" fill="#435CDB"/>
<path d="M61.3624 18.1983H63.9661C64.3741 18.1983 64.7016 18.5257 64.7016 18.9337V21.5374C64.7016 21.9454 64.3741 22.2729 63.9661 22.2729H61.3624C60.9544 22.2729 60.627 21.9454 60.627 21.5374V18.9337C60.627 18.5257 60.9544 18.1983 61.3624 18.1983Z" fill="#435CDB"/>
<path d="M1.6012 12.3127H4.20488C4.61288 12.3127 4.94035 12.6402 4.94035 13.0482V15.6519C4.94035 16.0599 4.61288 16.3873 4.20488 16.3873H1.6012C1.1932 16.3873 0.865723 16.0599 0.865723 15.6519V13.0482C0.865723 12.6402 1.1932 12.3127 1.6012 12.3127Z" fill="#435CDB"/>
<path d="M7.03381 12.3127H9.63749C10.0455 12.3127 10.373 12.6402 10.373 13.0482V15.6519C10.373 16.0599 10.0455 16.3873 9.63749 16.3873H7.03381C6.62581 16.3873 6.29834 16.0599 6.29834 15.6519V13.0482C6.29834 12.6402 6.62581 12.3127 7.03381 12.3127Z" fill="#435CDB"/>
<path d="M12.4669 12.3127H15.0706C15.4786 12.3127 15.8061 12.6402 15.8061 13.0482V15.6519C15.8061 16.0599 15.4786 16.3873 15.0706 16.3873H12.4669C12.0589 16.3873 11.7314 16.0599 11.7314 15.6519V13.0482C11.7314 12.6402 12.0589 12.3127 12.4669 12.3127Z" fill="#435CDB"/>
<path d="M17.8995 12.3127H20.5032C20.9112 12.3127 21.2387 12.6402 21.2387 13.0482V15.6519C21.2387 16.0599 20.9112 16.3873 20.5032 16.3873H17.8995C17.4915 16.3873 17.1641 16.0599 17.1641 15.6519V13.0482C17.1641 12.6402 17.4915 12.3127 17.8995 12.3127Z" fill="#435CDB"/>
<path d="M23.3326 12.3127H25.9363C26.3443 12.3127 26.6718 12.6402 26.6718 13.0482V15.6519C26.6718 16.0599 26.3443 16.3873 25.9363 16.3873H23.3326C22.9246 16.3873 22.5972 16.0599 22.5972 15.6519V13.0482C22.5972 12.6402 22.9246 12.3127 23.3326 12.3127Z" fill="#435CDB"/>
<path d="M28.7653 12.3127H31.3689C31.7769 12.3127 32.1044 12.6402 32.1044 13.0482V15.6519C32.1044 16.0599 31.7769 16.3873 31.3689 16.3873H28.7653C28.3573 16.3873 28.0298 16.0599 28.0298 15.6519V13.0482C28.0298 12.6402 28.3573 12.3127 28.7653 12.3127Z" fill="#435CDB"/>
<path d="M34.1984 12.3127H36.802C37.21 12.3127 37.5375 12.6402 37.5375 13.0482V15.6519C37.5375 16.0599 37.21 16.3873 36.802 16.3873H34.1984C33.7904 16.3873 33.4629 16.0599 33.4629 15.6519V13.0482C33.4629 12.6402 33.7904 12.3127 34.1984 12.3127Z" fill="#435CDB"/>
<path d="M39.631 12.3127H42.2347C42.6427 12.3127 42.9701 12.6402 42.9701 13.0482V15.6519C42.9701 16.0599 42.6427 16.3873 42.2347 16.3873H39.631C39.223 16.3873 38.8955 16.0599 38.8955 15.6519V13.0482C38.8955 12.6402 39.223 12.3127 39.631 12.3127Z" fill="#435CDB"/>
<path d="M45.0641 12.3127H47.6678C48.0758 12.3127 48.4032 12.6402 48.4032 13.0482V15.6519C48.4032 16.0599 48.0758 16.3873 47.6678 16.3873H45.0641C44.6561 16.3873 44.3286 16.0599 44.3286 15.6519V13.0482C44.3286 12.6402 44.6561 12.3127 45.0641 12.3127Z" fill="#435CDB"/>
<path d="M50.4967 12.3127H53.1004C53.5084 12.3127 53.8359 12.6402 53.8359 13.0482V15.6519C53.8359 16.0599 53.5084 16.3873 53.1004 16.3873H50.4967C50.0887 16.3873 49.7612 16.0599 49.7612 15.6519V13.0482C49.7612 12.6402 50.0887 12.3127 50.4967 12.3127Z" fill="#435CDB"/>
<path d="M55.9293 12.3127H58.533C58.941 12.3127 59.2685 12.6402 59.2685 13.0482V15.6519C59.2685 16.0599 58.941 16.3873 58.533 16.3873H55.9293C55.5213 16.3873 55.1938 16.0599 55.1938 15.6519V13.0482C55.1938 12.6402 55.5213 12.3127 55.9293 12.3127Z" fill="#435CDB"/>
<path d="M61.3624 12.3127H63.9661C64.3741 12.3127 64.7016 12.6402 64.7016 13.0482V15.6519C64.7016 16.0599 64.3741 16.3873 63.9661 16.3873H61.3624C60.9544 16.3873 60.627 16.0599 60.627 15.6519V13.0482C60.627 12.6402 60.9544 12.3127 61.3624 12.3127Z" fill="#435CDB"/>
<path d="M1.6012 6.42711H4.20488C4.61288 6.42711 4.94035 6.75458 4.94035 7.16258V9.76626C4.94035 10.1743 4.61288 10.5017 4.20488 10.5017H1.6012C1.1932 10.5017 0.865723 10.1743 0.865723 9.76626V7.16258C0.865723 6.75458 1.1932 6.42711 1.6012 6.42711Z" fill="#435CDB"/>
<path d="M7.03381 6.42711H9.63749C10.0455 6.42711 10.373 6.75458 10.373 7.16258V9.76626C10.373 10.1743 10.0455 10.5017 9.63749 10.5017H7.03381C6.62581 10.5017 6.29834 10.1743 6.29834 9.76626V7.16258C6.29834 6.75458 6.62581 6.42711 7.03381 6.42711Z" fill="#435CDB"/>
<path d="M12.4669 6.42711H15.0706C15.4786 6.42711 15.8061 6.75458 15.8061 7.16258V9.76626C15.8061 10.1743 15.4786 10.5017 15.0706 10.5017H12.4669C12.0589 10.5017 11.7314 10.1743 11.7314 9.76626V7.16258C11.7314 6.75458 12.0589 6.42711 12.4669 6.42711Z" fill="#435CDB"/>
<path d="M17.8995 6.42711H20.5032C20.9112 6.42711 21.2387 6.75458 21.2387 7.16258V9.76626C21.2387 10.1743 20.9112 10.5017 20.5032 10.5017H17.8995C17.4915 10.5017 17.1641 10.1743 17.1641 9.76626V7.16258C17.1641 6.75458 17.4915 6.42711 17.8995 6.42711Z" fill="#435CDB"/>
<path d="M23.3326 6.42711H25.9363C26.3443 6.42711 26.6718 6.75458 26.6718 7.16258V9.76626C26.6718 10.1743 26.3443 10.5017 25.9363 10.5017H23.3326C22.9246 10.5017 22.5972 10.1743 22.5972 9.76626V7.16258C22.5972 6.75458 22.9246 6.42711 23.3326 6.42711Z" fill="#435CDB"/>
<path d="M28.7653 6.42711H31.3689C31.7769 6.42711 32.1044 6.75458 32.1044 7.16258V9.76626C32.1044 10.1743 31.7769 10.5017 31.3689 10.5017H28.7653C28.3573 10.5017 28.0298 10.1743 28.0298 9.76626V7.16258C28.0298 6.75458 28.3573 6.42711 28.7653 6.42711Z" fill="#435CDB"/>
<path d="M34.1984 6.42711H36.802C37.21 6.42711 37.5375 6.75458 37.5375 7.16258V9.76626C37.5375 10.1743 37.21 10.5017 36.802 10.5017H34.1984C33.7904 10.5017 33.4629 10.1743 33.4629 9.76626V7.16258C33.4629 6.75458 33.7904 6.42711 34.1984 6.42711Z" fill="#435CDB"/>
<path d="M39.631 6.42711H42.2347C42.6427 6.42711 42.9701 6.75458 42.9701 7.16258V9.76626C42.9701 10.1743 42.6427 10.5017 42.2347 10.5017H39.631C39.223 10.5017 38.8955 10.1743 38.8955 9.76626V7.16258C38.8955 6.75458 39.223 6.42711 39.631 6.42711Z" fill="#435CDB"/>
<path d="M45.0641 6.42711H47.6678C48.0758 6.42711 48.4032 6.75458 48.4032 7.16258V9.76626C48.4032 10.1743 48.0758 10.5017 47.6678 10.5017H45.0641C44.6561 10.5017 44.3286 10.1743 44.3286 9.76626V7.16258C44.3286 6.75458 44.6561 6.42711 45.0641 6.42711Z" fill="#435CDB"/>
<path d="M50.4967 6.42711H53.1004C53.5084 6.42711 53.8359 6.75458 53.8359 7.16258V9.76626C53.8359 10.1743 53.5084 10.5017 53.1004 10.5017H50.4967C50.0887 10.5017 49.7612 10.1743 49.7612 9.76626V7.16258C49.7612 6.75458 50.0887 6.42711 50.4967 6.42711Z" fill="#435CDB"/>
<path d="M55.9293 6.42711H58.533C58.941 6.42711 59.2685 6.75458 59.2685 7.16258V9.76626C59.2685 10.1743 58.941 10.5017 58.533 10.5017H55.9293C55.5213 10.5017 55.1938 10.1743 55.1938 9.76626V7.16258C55.1938 6.75458 55.5213 6.42711 55.9293 6.42711Z" fill="#435CDB"/>
<path d="M61.3624 6.42711H63.9661C64.3741 6.42711 64.7016 6.75458 64.7016 7.16258V9.76626C64.7016 10.1743 64.3741 10.5017 63.9661 10.5017H61.3624C60.9544 10.5017 60.627 10.1743 60.627 9.76626V7.16258C60.627 6.75458 60.9544 6.42711 61.3624 6.42711Z" fill="#435CDB"/>
<path d="M1.6012 0.54158H4.20488C4.61288 0.54158 4.94035 0.869053 4.94035 1.27705V3.88073C4.94035 4.28873 4.61288 4.61621 4.20488 4.61621H1.6012C1.1932 4.61621 0.865723 4.28873 0.865723 3.88073V1.27705C0.865723 0.869053 1.1932 0.54158 1.6012 0.54158Z" fill="#435CDB"/>
<path d="M7.03381 0.54158H9.63749C10.0455 0.54158 10.373 0.869053 10.373 1.27705V3.88073C10.373 4.28873 10.0455 4.61621 9.63749 4.61621H7.03381C6.62581 4.61621 6.29834 4.28873 6.29834 3.88073V1.27705C6.29834 0.869053 6.62581 0.54158 7.03381 0.54158Z" fill="#435CDB"/>
<path d="M12.4669 0.54158H15.0706C15.4786 0.54158 15.8061 0.869053 15.8061 1.27705V3.88073C15.8061 4.28873 15.4786 4.61621 15.0706 4.61621H12.4669C12.0589 4.61621 11.7314 4.28873 11.7314 3.88073V1.27705C11.7314 0.869053 12.0589 0.54158 12.4669 0.54158Z" fill="#435CDB"/>
<path d="M17.8995 0.54158H20.5032C20.9112 0.54158 21.2387 0.869053 21.2387 1.27705V3.88073C21.2387 4.28873 20.9112 4.61621 20.5032 4.61621H17.8995C17.4915 4.61621 17.1641 4.28873 17.1641 3.88073V1.27705C17.1641 0.869053 17.4915 0.54158 17.8995 0.54158Z" fill="#435CDB"/>
<path d="M23.3326 0.54158H25.9363C26.3443 0.54158 26.6718 0.869053 26.6718 1.27705V3.88073C26.6718 4.28873 26.3443 4.61621 25.9363 4.61621H23.3326C22.9246 4.61621 22.5972 4.28873 22.5972 3.88073V1.27705C22.5972 0.869053 22.9246 0.54158 23.3326 0.54158Z" fill="#435CDB"/>
<path d="M28.7653 0.54158H31.3689C31.7769 0.54158 32.1044 0.869053 32.1044 1.27705V3.88073C32.1044 4.28873 31.7769 4.61621 31.3689 4.61621H28.7653C28.3573 4.61621 28.0298 4.28873 28.0298 3.88073V1.27705C28.0298 0.869053 28.3573 0.54158 28.7653 0.54158Z" fill="#435CDB"/>
<path d="M34.1984 0.54158H36.802C37.21 0.54158 37.5375 0.869053 37.5375 1.27705V3.88073C37.5375 4.28873 37.21 4.61621 36.802 4.61621H34.1984C33.7904 4.61621 33.4629 4.28873 33.4629 3.88073V1.27705C33.4629 0.869053 33.7904 0.54158 34.1984 0.54158Z" fill="#435CDB"/>
<path d="M39.631 0.54158H42.2347C42.6427 0.54158 42.9701 0.869053 42.9701 1.27705V3.88073C42.9701 4.28873 42.6427 4.61621 42.2347 4.61621H39.631C39.223 4.61621 38.8955 4.28873 38.8955 3.88073V1.27705C38.8955 0.869053 39.223 0.54158 39.631 0.54158Z" fill="#435CDB"/>
<path d="M45.0636 0.54158H47.6673C48.0753 0.54158 48.4028 0.869053 48.4028 1.27705V3.88073C48.4028 4.28873 48.0753 4.61621 47.6673 4.61621H45.0636C44.6556 4.61621 44.3281 4.28873 44.3281 3.88073V1.27705C44.3281 0.869053 44.6556 0.54158 45.0636 0.54158Z" fill="#435CDB"/>
<path d="M50.4967 0.54158H53.1004C53.5084 0.54158 53.8359 0.869053 53.8359 1.27705V3.88073C53.8359 4.28873 53.5084 4.61621 53.1004 4.61621H50.4967C50.0887 4.61621 49.7612 4.28873 49.7612 3.88073V1.27705C49.7612 0.869053 50.0887 0.54158 50.4967 0.54158Z" fill="#435CDB"/>
<path d="M55.9293 0.54158H58.533C58.941 0.54158 59.2685 0.869053 59.2685 1.27705V3.88073C59.2685 4.28873 58.941 4.61621 58.533 4.61621H55.9293C55.5213 4.61621 55.1938 4.28873 55.1938 3.88073V1.27705C55.1938 0.869053 55.5213 0.54158 55.9293 0.54158Z" fill="#435CDB"/>
<path d="M61.3624 0.54158H63.9661C64.3741 0.54158 64.7016 0.869053 64.7016 1.27705V3.88073C64.7016 4.28873 64.3741 4.61621 63.9661 4.61621H61.3624C60.9544 4.61621 60.627 4.28873 60.627 3.88073V1.27705C60.627 0.869053 60.9544 0.54158 61.3624 0.54158Z" fill="#435CDB"/>
</mask>
<g mask="url(#mask0_329_32442)">
<path fill-rule="evenodd" clip-rule="evenodd" d="M65 0H0V46H65V0ZM26.9135 11.2298C25.5811 10.4055 23.8612 11.3639 23.8612 12.9307V33.272C23.8612 34.8388 25.5811 35.7971 26.9135 34.9727L43.352 24.8017C44.6156 24.0199 44.6156 22.182 43.352 21.4002L26.9135 11.2298Z" fill="#A6B3C9"/>
</g>
</g>
<defs>
<clipPath id="clip0_329_32442">
<rect width="65" height="46" fill="white"/>
</clipPath>
</defs>
</svg>
