<svg width="104" height="104" viewBox="0 0 104 104" fill="none" xmlns="http://www.w3.org/2000/svg">
<ellipse cx="52" cy="52" rx="52" ry="52" fill="#243CBB"/>
<mask id="mask0_908_191113" style="mask-type:alpha" maskUnits="userSpaceOnUse" x="0" y="0" width="104" height="104">
<ellipse cx="52" cy="52" rx="52" ry="52" fill="#243CBB"/>
</mask>
<g mask="url(#mask0_908_191113)">
<ellipse cx="61.2146" cy="41.8537" rx="32.9104" ry="32.9104" fill="#22FFAA"/>
<path d="M70.5 94.4358H-6.5C-9.54219 94.4358 -12 91.999 -12 88.9828V34.4529C-12 31.4367 -9.54219 28.9999 -6.5 28.9999H70.5C73.5422 28.9999 76 31.4367 76 34.4529V88.9828C76 91.999 73.5422 94.4358 70.5 94.4358Z" fill="#060C23"/>
<path d="M34.0625 34.4529C34.0625 35.0494 33.4437 35.5435 32.6875 35.5435C31.9313 35.5435 31.3125 35.0494 31.3125 34.4529H29.9375C29.9375 35.0494 29.3187 35.5435 28.5625 35.5435C27.8063 35.5435 27.1875 35.0494 27.1875 34.4529C26.6891 34.4529 26.3109 34.4529 25.8125 34.4529C25.8125 35.0494 25.1938 35.5435 24.4375 35.5435C23.6812 35.5435 23.0625 35.0494 23.0625 34.4529H21.6875C21.6875 35.0494 21.0688 35.5435 20.3125 35.5435C19.5562 35.5435 18.9375 35.0494 18.9375 34.4529H17.5625C17.5625 35.0494 16.9438 35.5435 16.1875 35.5435C15.4312 35.5435 14.8125 35.0494 14.8125 34.4529H13.4375C13.4375 35.0494 12.8188 35.5435 12.0625 35.5435C11.3062 35.5435 10.6875 35.0494 10.6875 34.4529H9.3125C9.3125 35.0494 8.69375 35.5435 7.9375 35.5435C7.18125 35.5435 6.5625 35.0494 6.5625 34.4529H5.1875C5.1875 35.0494 4.56875 35.5435 3.8125 35.5435C3.05625 35.5435 2.4375 35.0494 2.4375 34.4529C1.93906 34.4529 1.56094 34.4529 1.0625 34.4529C1.0625 35.0494 0.44375 35.5435 -0.3125 35.5435C-1.06875 35.5435 -1.6875 35.0494 -1.6875 34.4529H-3.0625C-3.0625 35.0494 -3.68125 35.5435 -4.4375 35.5435C-5.19375 35.5435 -5.8125 35.0494 -5.8125 34.4529H-6.5V70.9999C-4.59219 70.9999 32.8594 70.9999 34.75 70.9999V34.4529H34.0625Z" fill="white"/>
<path d="M32 56.9466H-3.75V58.3098H32V56.9466Z" fill="#F8F9FB"/>
<path d="M32 53.5384H-3.75V54.9016H32V53.5384Z" fill="#F8F9FB"/>
<path d="M32 50.1303H-3.75V51.4936H32V50.1303Z" fill="#F8F9FB"/>
<path d="M32 46.7223H-3.75V48.0855H32V46.7223Z" fill="#F8F9FB"/>
<path d="M32 43.3141H-3.75V44.6774H32V43.3141Z" fill="#F8F9FB"/>
<path d="M32 39.906H-3.75V41.2693H32V39.906Z" fill="#F8F9FB"/>
<path d="M73.2505 63.4219H72.2192C72.0302 63.4219 71.8755 63.2685 71.8755 63.0811C71.8755 62.8936 72.0302 62.7402 72.2192 62.7402H73.2505C73.4396 62.7402 73.5942 62.8936 73.5942 63.0811C73.5942 63.2685 73.4396 63.4219 73.2505 63.4219Z" fill="#2E293D"/>
<path d="M68.1109 92.0501H66.0313C65.8422 92.0501 65.6875 91.8967 65.6875 91.7093C65.6875 91.5218 65.8422 91.3685 66.0313 91.3685H68.1281C68.3172 91.3685 68.4719 91.5218 68.4719 91.7093C68.4719 91.8967 68.3 92.0501 68.1109 92.0501ZM63.9516 92.0501H61.8891C61.7 92.0501 61.5453 91.8967 61.5453 91.7093C61.5453 91.5218 61.7 91.3685 61.8891 91.3685H63.9516C64.1406 91.3685 64.2953 91.5218 64.2953 91.7093C64.2953 91.8967 64.1406 92.0501 63.9516 92.0501ZM59.8266 92.0501H57.7641C57.575 92.0501 57.4203 91.8967 57.4203 91.7093C57.4203 91.5218 57.575 91.3685 57.7641 91.3685H59.8266C60.0156 91.3685 60.1703 91.5218 60.1703 91.7093C60.1703 91.8967 60.0156 92.0501 59.8266 92.0501ZM55.6844 92.0501H53.6219C53.4328 92.0501 53.2781 91.8967 53.2781 91.7093C53.2781 91.5218 53.4328 91.3685 53.6219 91.3685H55.6844C55.8734 91.3685 56.0281 91.5218 56.0281 91.7093C56.0281 91.8967 55.8734 92.0501 55.6844 92.0501ZM51.5422 92.0501H49.4797C49.2906 92.0501 49.1359 91.8967 49.1359 91.7093C49.1359 91.5218 49.2906 91.3685 49.4797 91.3685H51.5422C51.7313 91.3685 51.8859 91.5218 51.8859 91.7093C51.8859 91.8967 51.7313 92.0501 51.5422 92.0501ZM47.4172 92.0501H45.3547C45.1656 92.0501 45.0109 91.8967 45.0109 91.7093C45.0109 91.5218 45.1656 91.3685 45.3547 91.3685H47.4172C47.6063 91.3685 47.7609 91.5218 47.7609 91.7093C47.7609 91.8967 47.6063 92.0501 47.4172 92.0501ZM43.275 92.0501H41.2125C41.0234 92.0501 40.8688 91.8967 40.8688 91.7093C40.8688 91.5218 41.0234 91.3685 41.2125 91.3685H43.275C43.4641 91.3685 43.6188 91.5218 43.6188 91.7093C43.6188 91.8967 43.4641 92.0501 43.275 92.0501ZM39.1328 92.0501H37.0703C36.8813 92.0501 36.7266 91.8967 36.7266 91.7093C36.7266 91.5218 36.8813 91.3685 37.0703 91.3685H39.1328C39.3219 91.3685 39.4766 91.5218 39.4766 91.7093C39.4766 91.8967 39.3219 92.0501 39.1328 92.0501ZM35.0078 92.0501H32.9453C32.7563 92.0501 32.6016 91.8967 32.6016 91.7093C32.6016 91.5218 32.7563 91.3685 32.9453 91.3685H35.0078C35.1969 91.3685 35.3516 91.5218 35.3516 91.7093C35.3516 91.8967 35.1969 92.0501 35.0078 92.0501ZM30.8656 92.0501H28.8031C28.6141 92.0501 28.4594 91.8967 28.4594 91.7093C28.4594 91.5218 28.6141 91.3685 28.8031 91.3685H30.8656C31.0547 91.3685 31.2094 91.5218 31.2094 91.7093C31.2094 91.8967 31.0547 92.0501 30.8656 92.0501ZM26.7234 92.0501H24.6609C24.4719 92.0501 24.3172 91.8967 24.3172 91.7093C24.3172 91.5218 24.4719 91.3685 24.6609 91.3685H26.7234C26.9125 91.3685 27.0672 91.5218 27.0672 91.7093C27.0672 91.8967 26.9125 92.0501 26.7234 92.0501ZM22.5984 92.0501H20.5359C20.3469 92.0501 20.1922 91.8967 20.1922 91.7093C20.1922 91.5218 20.3469 91.3685 20.5359 91.3685H22.5984C22.7875 91.3685 22.9422 91.5218 22.9422 91.7093C22.9422 91.8967 22.7875 92.0501 22.5984 92.0501ZM18.4563 92.0501H16.3938C16.2047 92.0501 16.05 91.8967 16.05 91.7093C16.05 91.5218 16.2047 91.3685 16.3938 91.3685H18.4563C18.6453 91.3685 18.8 91.5218 18.8 91.7093C18.8 91.8967 18.6453 92.0501 18.4563 92.0501ZM14.3141 92.0501H12.2516C12.0625 92.0501 11.9078 91.8967 11.9078 91.7093C11.9078 91.5218 12.0625 91.3685 12.2516 91.3685H14.3141C14.5031 91.3685 14.6578 91.5218 14.6578 91.7093C14.6578 91.8967 14.5031 92.0501 14.3141 92.0501ZM10.1891 92.0501H8.12656C7.9375 92.0501 7.78281 91.8967 7.78281 91.7093C7.78281 91.5218 7.9375 91.3685 8.12656 91.3685H10.1891C10.3781 91.3685 10.5328 91.5218 10.5328 91.7093C10.5328 91.8967 10.3781 92.0501 10.1891 92.0501ZM6.04688 92.0501H3.98438C3.79531 92.0501 3.64063 91.8967 3.64063 91.7093C3.64063 91.5218 3.79531 91.3685 3.98438 91.3685H6.04688C6.23594 91.3685 6.39063 91.5218 6.39063 91.7093C6.39063 91.8967 6.23594 92.0501 6.04688 92.0501ZM1.90469 92.0501H-0.157811C-0.346874 92.0501 -0.501561 91.8967 -0.501561 91.7093C-0.501561 91.5218 -0.346874 91.3685 -0.157811 91.3685H1.90469C2.09375 91.3685 2.24844 91.5218 2.24844 91.7093C2.24844 91.8967 2.09375 92.0501 1.90469 92.0501ZM-2.22031 92.0501H-4.09375C-4.1625 92.0501 -4.23125 92.0501 -4.3 92.0501C-4.48906 92.0501 -4.64375 91.8797 -4.62656 91.6922C-4.62656 91.5048 -4.45469 91.3514 -4.26562 91.3685C-4.19687 91.3685 -4.14531 91.3685 -4.07656 91.3685H-2.20312C-2.01406 91.3685 -1.85937 91.5218 -1.85937 91.7093C-1.85937 91.8967 -2.03125 92.0501 -2.22031 92.0501ZM70.1219 91.6411C69.9844 91.6411 69.8641 91.5559 69.8125 91.4366C69.7438 91.2662 69.8125 91.0617 69.9844 90.9936C70.5859 90.738 71.1016 90.3801 71.5656 89.903C71.7031 89.7667 71.9094 89.7667 72.0469 89.8859C72.1844 90.0223 72.1844 90.2268 72.0641 90.3631C71.5484 90.8913 70.9469 91.3173 70.2594 91.607C70.225 91.6241 70.1734 91.6411 70.1219 91.6411ZM-6.29375 91.573C-6.34531 91.573 -6.39687 91.5559 -6.44844 91.5389C-7.11875 91.2321 -7.70312 90.7891 -8.20156 90.2438C-8.32187 90.1075 -8.32187 89.8859 -8.16719 89.7667C-8.02969 89.6474 -7.80625 89.6474 -7.68594 89.8007C-7.25625 90.2779 -6.74062 90.6698 -6.15625 90.9425C-5.98437 91.0277 -5.91562 91.2321 -5.98437 91.4026C-6.03594 91.4878 -6.15625 91.573 -6.29375 91.573ZM72.9063 88.7613C72.8719 88.7613 72.8203 88.7613 72.7859 88.7442C72.6141 88.6761 72.5281 88.4886 72.5797 88.3012C72.7859 87.7559 72.8891 87.1935 72.8891 86.5971V86.4097C72.8891 86.2222 73.0438 86.0688 73.2328 86.0688C73.4219 86.0688 73.5766 86.2222 73.5766 86.4097V86.5971C73.5766 87.2617 73.4563 87.9263 73.2156 88.5397C73.1813 88.6761 73.0438 88.7613 72.9063 88.7613ZM-8.975 88.5909C-9.1125 88.5909 -9.25 88.5056 -9.30156 88.3523C-9.49063 87.7899 -9.59375 87.1935 -9.59375 86.5971V86.2222C-9.59375 86.0348 -9.43906 85.8814 -9.25 85.8814C-9.06094 85.8814 -8.90625 86.0348 -8.90625 86.2222V86.5971C-8.90625 87.1254 -8.82031 87.6366 -8.64844 88.1478C-8.57969 88.3182 -8.68281 88.5227 -8.85469 88.5738C-8.90625 88.5909 -8.94062 88.5909 -8.975 88.5909ZM73.25 84.7056C73.0609 84.7056 72.9063 84.5522 72.9063 84.3648V82.3199C72.9063 82.1325 73.0609 81.9791 73.25 81.9791C73.4391 81.9791 73.5938 82.1325 73.5938 82.3199V84.3648C73.5938 84.5522 73.4391 84.7056 73.25 84.7056ZM-9.25 84.5181C-9.43906 84.5181 -9.59375 84.3648 -9.59375 84.1773V82.1325C-9.59375 81.945 -9.43906 81.7917 -9.25 81.7917C-9.06094 81.7917 -8.90625 81.945 -8.90625 82.1325V84.1773C-8.90625 84.3648 -9.06094 84.5181 -9.25 84.5181ZM73.25 80.5988C73.0609 80.5988 72.9063 80.4454 72.9063 80.258V78.2131C72.9063 78.0257 73.0609 77.8723 73.25 77.8723C73.4391 77.8723 73.5938 78.0257 73.5938 78.2131V80.258C73.5938 80.4454 73.4391 80.5988 73.25 80.5988ZM-9.25 80.4114C-9.43906 80.4114 -9.59375 80.258 -9.59375 80.0706V78.0257C-9.59375 77.8382 -9.43906 77.6849 -9.25 77.6849C-9.06094 77.6849 -8.90625 77.8382 -8.90625 78.0257V80.0706C-8.90625 80.275 -9.06094 80.4114 -9.25 80.4114ZM73.25 76.492C73.0609 76.492 72.9063 76.3387 72.9063 76.1512V74.1063C72.9063 73.9189 73.0609 73.7655 73.25 73.7655C73.4391 73.7655 73.5938 73.9189 73.5938 74.1063V76.1512C73.5938 76.3387 73.4391 76.492 73.25 76.492ZM-9.25 76.3216C-9.43906 76.3216 -9.59375 76.1683 -9.59375 75.9808V73.9359C-9.59375 73.7485 -9.43906 73.5951 -9.25 73.5951C-9.06094 73.5951 -8.90625 73.7485 -8.90625 73.9359V75.9808C-8.90625 76.1683 -9.06094 76.3216 -9.25 76.3216ZM73.25 72.4023C73.0609 72.4023 72.9063 72.2489 72.9063 72.0615V70.0166C72.9063 69.8292 73.0609 69.6758 73.25 69.6758C73.4391 69.6758 73.5938 69.8292 73.5938 70.0166V72.0615C73.5938 72.2489 73.4391 72.4023 73.25 72.4023ZM-9.25 72.2148C-9.43906 72.2148 -9.59375 72.0615 -9.59375 71.874V69.8292C-9.59375 69.6417 -9.43906 69.4883 -9.25 69.4883C-9.06094 69.4883 -8.90625 69.6417 -8.90625 69.8292V71.874C-8.90625 72.0615 -9.06094 72.2148 -9.25 72.2148ZM73.25 68.2955C73.0609 68.2955 72.9063 68.1421 72.9063 67.9547V65.9098C72.9063 65.7224 73.0609 65.569 73.25 65.569C73.4391 65.569 73.5938 65.7224 73.5938 65.9098V67.9547C73.5938 68.1421 73.4391 68.2955 73.25 68.2955ZM-9.25 68.1081C-9.43906 68.1081 -9.59375 67.9547 -9.59375 67.7672V65.7224C-9.59375 65.5349 -9.43906 65.3816 -9.25 65.3816C-9.06094 65.3816 -8.90625 65.5349 -8.90625 65.7224V67.7672C-8.90625 67.9717 -9.06094 68.1081 -9.25 68.1081ZM73.25 64.1887C73.0609 64.1887 72.9063 64.0353 72.9063 63.8479V61.803C72.9063 61.6156 73.0609 61.4622 73.25 61.4622C73.4391 61.4622 73.5938 61.6156 73.5938 61.803V63.8479C73.5938 64.0353 73.4391 64.1887 73.25 64.1887ZM-9.25 64.0183C-9.43906 64.0183 -9.59375 63.8649 -9.59375 63.6775V61.6326C-9.59375 61.4452 -9.43906 61.2918 -9.25 61.2918C-9.06094 61.2918 -8.90625 61.4452 -8.90625 61.6326V63.6775C-8.90625 63.8649 -9.06094 64.0183 -9.25 64.0183ZM73.25 60.099C73.0609 60.099 72.9063 59.9456 72.9063 59.7582V57.7133C72.9063 57.5258 73.0609 57.3725 73.25 57.3725C73.4391 57.3725 73.5938 57.5258 73.5938 57.7133V59.7582C73.5938 59.9456 73.4391 60.099 73.25 60.099ZM-9.25 59.9115C-9.43906 59.9115 -9.59375 59.7582 -9.59375 59.5707V57.5258C-9.59375 57.3384 -9.43906 57.185 -9.25 57.185C-9.06094 57.185 -8.90625 57.3384 -8.90625 57.5258V59.5707C-8.90625 59.7582 -9.06094 59.9115 -9.25 59.9115ZM73.25 55.9922C73.0609 55.9922 72.9063 55.8388 72.9063 55.6514V53.6065C72.9063 53.4191 73.0609 53.2657 73.25 53.2657C73.4391 53.2657 73.5938 53.4191 73.5938 53.6065V55.6514C73.5938 55.8388 73.4391 55.9922 73.25 55.9922ZM-9.25 55.8218C-9.43906 55.8218 -9.59375 55.6684 -9.59375 55.481V53.4361C-9.59375 53.2486 -9.43906 53.0953 -9.25 53.0953C-9.06094 53.0953 -8.90625 53.2486 -8.90625 53.4361V55.481C-8.90625 55.6684 -9.06094 55.8218 -9.25 55.8218ZM73.25 51.8854C73.0609 51.8854 72.9063 51.732 72.9063 51.5446V49.4997C72.9063 49.3123 73.0609 49.1589 73.25 49.1589C73.4391 49.1589 73.5938 49.3123 73.5938 49.4997V51.5446C73.5938 51.732 73.4391 51.8854 73.25 51.8854ZM-9.25 51.715C-9.43906 51.715 -9.59375 51.5616 -9.59375 51.3742V49.3293C-9.59375 49.1419 -9.43906 48.9885 -9.25 48.9885C-9.06094 48.9885 -8.90625 49.1419 -8.90625 49.3293V51.3742C-8.90625 51.5616 -9.06094 51.715 -9.25 51.715ZM73.25 47.7957C73.0609 47.7957 72.9063 47.6423 72.9063 47.4548V45.41C72.9063 45.2225 73.0609 45.0692 73.25 45.0692C73.4391 45.0692 73.5938 45.2225 73.5938 45.41V47.4548C73.5938 47.6423 73.4391 47.7957 73.25 47.7957ZM-9.25 47.6082C-9.43906 47.6082 -9.59375 47.4548 -9.59375 47.2674V45.2225C-9.59375 45.0351 -9.43906 44.8817 -9.25 44.8817C-9.06094 44.8817 -8.90625 45.0351 -8.90625 45.2225V47.2674C-8.90625 47.4548 -9.06094 47.6082 -9.25 47.6082ZM73.25 43.6889C73.0609 43.6889 72.9063 43.5355 72.9063 43.3481V41.3032C72.9063 41.1157 73.0609 40.9624 73.25 40.9624C73.4391 40.9624 73.5938 41.1157 73.5938 41.3032V43.3481C73.5938 43.5355 73.4391 43.6889 73.25 43.6889ZM-9.25 43.5185C-9.43906 43.5185 -9.59375 43.3651 -9.59375 43.1777V41.1328C-9.59375 40.9453 -9.43906 40.792 -9.25 40.792C-9.06094 40.792 -8.90625 40.9453 -8.90625 41.1328V43.1777C-8.90625 43.3651 -9.06094 43.5185 -9.25 43.5185ZM73.25 39.5821C73.0609 39.5821 72.9063 39.4287 72.9063 39.2413V37.1964C72.9063 37.009 73.0609 36.8556 73.25 36.8556C73.4391 36.8556 73.5938 37.009 73.5938 37.1964V39.2413C73.5938 39.4287 73.4391 39.5821 73.25 39.5821ZM-9.25 39.4117C-9.43906 39.4117 -9.59375 39.2583 -9.59375 39.0709V37.026C-9.59375 36.8386 -9.43906 36.6852 -9.25 36.6852C-9.06094 36.6852 -8.90625 36.8386 -8.90625 37.026V39.0709C-8.90625 39.2583 -9.06094 39.4117 -9.25 39.4117ZM72.975 35.5094C72.8375 35.5094 72.7 35.4242 72.6484 35.2708C72.4422 34.6574 72.1156 34.1121 71.6688 33.6349C71.5484 33.4986 71.5484 33.2771 71.6859 33.1578C71.8234 33.0385 72.0469 33.0385 72.1672 33.1748C72.6656 33.7201 73.0438 34.3506 73.2844 35.0493C73.3531 35.2197 73.25 35.4242 73.0781 35.4753C73.0438 35.5094 73.0094 35.5094 72.975 35.5094ZM-8.90625 35.356C-8.94062 35.356 -8.99219 35.356 -9.02656 35.339C-9.19844 35.2708 -9.28437 35.0663 -9.23281 34.8959C-8.975 34.2143 -8.57969 33.6008 -8.06406 33.0555C-7.92656 32.9192 -7.72031 32.9192 -7.58281 33.0385C-7.44531 33.1748 -7.44531 33.3793 -7.56562 33.5156C-8.0125 33.9757 -8.35625 34.521 -8.59688 35.1175C-8.64844 35.2708 -8.76875 35.356 -8.90625 35.356ZM70.2766 32.5443C70.225 32.5443 70.1734 32.5273 70.1391 32.5102C69.5547 32.2376 68.9188 32.0842 68.2828 32.0672C68.0938 32.0672 67.9391 31.8968 67.9563 31.7093C67.9563 31.5219 68.1281 31.3856 68.3172 31.3856C69.0563 31.4196 69.7781 31.59 70.4484 31.8968C70.6203 31.982 70.6891 32.1865 70.6203 32.3569C70.5344 32.4762 70.4141 32.5443 70.2766 32.5443ZM-6.12187 32.4762C-6.25937 32.4762 -6.37969 32.391 -6.43125 32.2717C-6.5 32.1013 -6.43125 31.8968 -6.24219 31.8286C-5.55469 31.5389 -4.83281 31.4026 -4.09375 31.3856C-3.90469 31.3856 -3.75 31.5389 -3.75 31.7264C-3.75 31.9138 -3.90469 32.0672 -4.09375 32.0672C-4.74687 32.0672 -5.38281 32.2035 -5.96719 32.4421C-6.01875 32.4591 -6.07031 32.4762 -6.12187 32.4762ZM66.2203 32.0672H64.1578C63.9688 32.0672 63.8141 31.9138 63.8141 31.7264C63.8141 31.5389 63.9688 31.3856 64.1578 31.3856H66.2203C66.4094 31.3856 66.5641 31.5389 66.5641 31.7264C66.5641 31.9138 66.4094 32.0672 66.2203 32.0672ZM62.0781 32.0672H60.0156C59.8266 32.0672 59.6719 31.9138 59.6719 31.7264C59.6719 31.5389 59.8266 31.3856 60.0156 31.3856H62.0781C62.2672 31.3856 62.4219 31.5389 62.4219 31.7264C62.4219 31.9138 62.2672 32.0672 62.0781 32.0672ZM57.9359 32.0672H55.8734C55.6844 32.0672 55.5297 31.9138 55.5297 31.7264C55.5297 31.5389 55.6844 31.3856 55.8734 31.3856H57.9359C58.125 31.3856 58.2797 31.5389 58.2797 31.7264C58.2797 31.9138 58.125 32.0672 57.9359 32.0672ZM53.8109 32.0672H51.7484C51.5594 32.0672 51.4047 31.9138 51.4047 31.7264C51.4047 31.5389 51.5594 31.3856 51.7484 31.3856H53.8109C54 31.3856 54.1547 31.5389 54.1547 31.7264C54.1547 31.9138 54 32.0672 53.8109 32.0672ZM49.6688 32.0672H47.6063C47.4172 32.0672 47.2625 31.9138 47.2625 31.7264C47.2625 31.5389 47.4172 31.3856 47.6063 31.3856H49.6688C49.8578 31.3856 50.0125 31.5389 50.0125 31.7264C50.0125 31.9138 49.8578 32.0672 49.6688 32.0672ZM45.5266 32.0672H43.4641C43.275 32.0672 43.1203 31.9138 43.1203 31.7264C43.1203 31.5389 43.275 31.3856 43.4641 31.3856H45.5266C45.7156 31.3856 45.8703 31.5389 45.8703 31.7264C45.8703 31.9138 45.7156 32.0672 45.5266 32.0672ZM41.4016 32.0672H39.3391C39.15 32.0672 38.9953 31.9138 38.9953 31.7264C38.9953 31.5389 39.15 31.3856 39.3391 31.3856H41.4016C41.5906 31.3856 41.7453 31.5389 41.7453 31.7264C41.7453 31.9138 41.5906 32.0672 41.4016 32.0672ZM37.2594 32.0672H35.1969C35.0078 32.0672 34.8531 31.9138 34.8531 31.7264C34.8531 31.5389 35.0078 31.3856 35.1969 31.3856H37.2594C37.4484 31.3856 37.6031 31.5389 37.6031 31.7264C37.6031 31.9138 37.4484 32.0672 37.2594 32.0672ZM33.1172 32.0672H31.0547C30.8656 32.0672 30.7109 31.9138 30.7109 31.7264C30.7109 31.5389 30.8656 31.3856 31.0547 31.3856H33.1172C33.3063 31.3856 33.4609 31.5389 33.4609 31.7264C33.4609 31.9138 33.3063 32.0672 33.1172 32.0672ZM28.9922 32.0672H26.9297C26.7406 32.0672 26.5859 31.9138 26.5859 31.7264C26.5859 31.5389 26.7406 31.3856 26.9297 31.3856H28.9922C29.1813 31.3856 29.3359 31.5389 29.3359 31.7264C29.3359 31.9138 29.1813 32.0672 28.9922 32.0672ZM24.85 32.0672H22.7875C22.5984 32.0672 22.4438 31.9138 22.4438 31.7264C22.4438 31.5389 22.5984 31.3856 22.7875 31.3856H24.85C25.0391 31.3856 25.1938 31.5389 25.1938 31.7264C25.1938 31.9138 25.0391 32.0672 24.85 32.0672ZM20.7078 32.0672H18.6453C18.4563 32.0672 18.3016 31.9138 18.3016 31.7264C18.3016 31.5389 18.4563 31.3856 18.6453 31.3856H20.7078C20.8969 31.3856 21.0516 31.5389 21.0516 31.7264C21.0516 31.9138 20.8969 32.0672 20.7078 32.0672ZM16.5828 32.0672H14.5203C14.3313 32.0672 14.1766 31.9138 14.1766 31.7264C14.1766 31.5389 14.3313 31.3856 14.5203 31.3856H16.5828C16.7719 31.3856 16.9266 31.5389 16.9266 31.7264C16.9266 31.9138 16.7719 32.0672 16.5828 32.0672ZM12.4406 32.0672H10.3781C10.1891 32.0672 10.0344 31.9138 10.0344 31.7264C10.0344 31.5389 10.1891 31.3856 10.3781 31.3856H12.4406C12.6297 31.3856 12.7844 31.5389 12.7844 31.7264C12.7844 31.9138 12.6297 32.0672 12.4406 32.0672ZM8.29844 32.0672H6.23594C6.04688 32.0672 5.89219 31.9138 5.89219 31.7264C5.89219 31.5389 6.04688 31.3856 6.23594 31.3856H8.29844C8.4875 31.3856 8.64219 31.5389 8.64219 31.7264C8.64219 31.9138 8.4875 32.0672 8.29844 32.0672ZM4.17344 32.0672H2.09375C1.90469 32.0672 1.75 31.9138 1.75 31.7264C1.75 31.5389 1.90469 31.3856 2.09375 31.3856H4.15625C4.34531 31.3856 4.5 31.5389 4.5 31.7264C4.5 31.9138 4.3625 32.0672 4.17344 32.0672ZM0.031251 32.0672H-2.03125C-2.22031 32.0672 -2.375 31.9138 -2.375 31.7264C-2.375 31.5389 -2.22031 31.3856 -2.03125 31.3856H0.031251C0.220313 31.3856 0.375001 31.5389 0.375001 31.7264C0.375001 31.9138 0.220313 32.0672 0.031251 32.0672Z" fill="#2E293D"/>
<path d="M53.5129 53.0001C61.033 53.0001 67.1293 46.9559 67.1293 39.5C67.1293 32.0442 61.033 26 53.5129 26C45.9928 26 39.8965 32.0442 39.8965 39.5C39.8965 46.9559 45.9928 53.0001 53.5129 53.0001Z" fill="#243CBB"/>
<path d="M53.5135 50.7498C59.7803 50.7498 64.8605 45.713 64.8605 39.4998C64.8605 33.2866 59.7803 28.2498 53.5135 28.2498C47.2467 28.2498 42.1665 33.2866 42.1665 39.4998C42.1665 45.713 47.2467 50.7498 53.5135 50.7498Z" fill="#435CDB"/>
<path d="M52.6615 47.375V45.5187C51.4417 45.4906 50.2219 45.125 49.5127 44.675L50.0233 42.875C50.7892 43.325 51.8672 43.7187 53.0586 43.7187C54.2784 43.7187 55.1295 43.1281 55.1295 42.2C55.1295 41.3281 54.4486 40.7656 53.0019 40.2593C50.9594 39.5281 49.6545 38.6 49.6545 36.8C49.6545 35.1406 50.8176 33.8749 52.775 33.5374V31.6249H54.3635V33.4249C55.5833 33.4531 56.4344 33.7624 57.0301 34.0718L56.5195 35.8437C56.0656 35.6187 55.1862 35.1968 53.8813 35.1968C52.5197 35.1968 52.0374 35.8999 52.0374 36.5468C52.0374 37.3343 52.7466 37.7843 54.3919 38.4312C56.5762 39.2468 57.5407 40.2875 57.5407 42.0031C57.5407 43.6343 56.406 45.0968 54.2501 45.4343V47.375H52.6615Z" fill="#243CBB"/>
<path d="M72.6077 22C79.8493 22 85.7197 16.1797 85.7197 9C85.7197 1.8203 79.8493 -4 72.6077 -4C65.3661 -4 59.4956 1.8203 59.4956 9C59.4956 16.1797 65.3661 22 72.6077 22Z" fill="#F8F9FB"/>
<path d="M72.6084 19.8331C78.643 19.8331 83.5351 14.9829 83.5351 8.99978C83.5351 3.01669 78.643 -1.83356 72.6084 -1.83356C66.5737 -1.83356 61.6816 3.01669 61.6816 8.99978C61.6816 14.9829 66.5737 19.8331 72.6084 19.8331Z" fill="#D7DEEA"/>
<path d="M71.788 16.5833V14.7958C70.6134 14.7687 69.4388 14.4166 68.7559 13.9833L69.2476 12.25C69.9851 12.6833 71.0232 13.0625 72.1705 13.0625C73.3451 13.0625 74.1646 12.4937 74.1646 11.6C74.1646 10.7604 73.509 10.2187 72.1158 9.73121C70.149 9.02704 68.8924 8.13329 68.8924 6.39996C68.8924 4.80204 70.0124 3.58329 71.8973 3.25829V1.41663H73.427V3.14996C74.6017 3.17704 75.4212 3.47496 75.9948 3.77288L75.5031 5.47913C75.066 5.26246 74.2192 4.85621 72.9626 4.85621C71.6514 4.85621 71.1871 5.53329 71.1871 6.15621C71.1871 6.91454 71.87 7.34788 73.4544 7.97079C75.5577 8.75621 76.4865 9.75829 76.4865 11.4104C76.4865 12.9812 75.3938 14.3895 73.3178 14.7145V16.5833H71.788Z" fill="#F8F9FB"/>
<path d="M70.4995 51.7265C70.4995 50.2269 69.262 49 67.7495 49C65.9964 49 8.16045 49 7.24951 49C5.73701 49 4.49951 50.2269 4.49951 51.7265V83.8974C4.49951 85.397 5.73701 86.6239 7.24951 86.6239C8.29795 86.6239 66.048 86.6239 67.7495 86.6239C69.262 86.6239 70.4995 85.397 70.4995 83.8974V51.7265Z" fill="#22FFAA"/>
<path d="M63.2812 82.6196C65.5594 82.6196 67.4062 80.7886 67.4062 78.5299C67.4062 76.2712 65.5594 74.4401 63.2812 74.4401C61.0031 74.4401 59.1562 76.2712 59.1562 78.5299C59.1562 80.7886 61.0031 82.6196 63.2812 82.6196Z" fill="#24B3C9"/>
<path d="M60.3744 81.7833C62.1867 79.9865 62.1867 77.0734 60.3744 75.2766C58.5622 73.4799 55.6239 73.4799 53.8117 75.2766C51.9994 77.0734 51.9994 79.9865 53.8117 81.7833C55.6239 83.5801 58.5622 83.5801 60.3744 81.7833Z" fill="#0399AF"/>
<path d="M60.4373 80.9235C61.7693 79.0912 61.351 76.5353 59.503 75.2146C57.6549 73.894 55.0769 74.3087 53.7449 76.1409C52.4128 77.9732 52.8312 80.5292 54.6792 81.8498C56.5273 83.1705 59.1052 82.7558 60.4373 80.9235Z" fill="#008096"/>
<path d="M49.7026 70.0096H39.7339C39.3558 70.0096 39.0464 69.7028 39.0464 69.3279V67.2831C39.0464 66.9082 39.3558 66.6014 39.7339 66.6014H49.7026C50.0808 66.6014 50.3901 66.9082 50.3901 67.2831V69.3279C50.3901 69.7028 50.0808 70.0096 49.7026 70.0096Z" fill="#24B3C9"/>
<path d="M64.1401 70.0096H54.1714C53.7933 70.0096 53.4839 69.7028 53.4839 69.3279V67.2831C53.4839 66.9082 53.7933 66.6014 54.1714 66.6014H64.1401C64.5183 66.6014 64.8276 66.9082 64.8276 67.2831V69.3279C64.8276 69.7028 64.5183 70.0096 64.1401 70.0096Z" fill="#24B3C9"/>
<path d="M35.2656 70.0096H25.2969C24.9187 70.0096 24.6094 69.7028 24.6094 69.3279V67.2831C24.6094 66.9082 24.9187 66.6014 25.2969 66.6014H35.2656C35.6438 66.6014 35.9531 66.9082 35.9531 67.2831V69.3279C35.9531 69.7028 35.6438 70.0096 35.2656 70.0096Z" fill="#24B3C9"/>
<path d="M20.8281 70.0096H10.8594C10.4812 70.0096 10.1719 69.7028 10.1719 69.3279V67.2831C10.1719 66.9082 10.4812 66.6014 10.8594 66.6014H20.8281C21.2063 66.6014 21.5156 66.9082 21.5156 67.2831V69.3279C21.5156 69.7028 21.2063 70.0096 20.8281 70.0096Z" fill="#24B3C9"/>
<path d="M21.687 67.184H12.062C11.3058 67.184 10.687 66.5706 10.687 65.8208V59.0897C10.687 58.34 11.3058 57.7265 12.062 57.7265H21.687C22.4433 57.7265 23.062 58.34 23.062 59.0897V65.8208C23.062 66.5706 22.4433 67.184 21.687 67.184Z" fill="#00E98F"/>
<path d="M73 64H-4V89H73V64Z" fill="#060C23"/>
<path d="M70.1567 67.6816H68.0942C67.9052 67.6816 67.7505 67.5283 67.7505 67.3408C67.7505 67.1534 67.9052 67 68.0942 67H70.1567C70.3458 67 70.5005 67.1534 70.5005 67.3408C70.5005 67.5283 70.3458 67.6816 70.1567 67.6816ZM66.0317 67.6816H63.9692C63.7802 67.6816 63.6255 67.5283 63.6255 67.3408C63.6255 67.1534 63.7802 67 63.9692 67H66.0317C66.2208 67 66.3755 67.1534 66.3755 67.3408C66.3755 67.5283 66.2208 67.6816 66.0317 67.6816ZM61.9067 67.6816H59.8442C59.6552 67.6816 59.5005 67.5283 59.5005 67.3408C59.5005 67.1534 59.6552 67 59.8442 67H61.9067C62.0958 67 62.2505 67.1534 62.2505 67.3408C62.2505 67.5283 62.0958 67.6816 61.9067 67.6816ZM57.7817 67.6816H55.7192C55.5302 67.6816 55.3755 67.5283 55.3755 67.3408C55.3755 67.1534 55.5302 67 55.7192 67H57.7817C57.9708 67 58.1255 67.1534 58.1255 67.3408C58.1255 67.5283 57.9708 67.6816 57.7817 67.6816ZM53.6567 67.6816H51.5942C51.4052 67.6816 51.2505 67.5283 51.2505 67.3408C51.2505 67.1534 51.4052 67 51.5942 67H53.6567C53.8458 67 54.0005 67.1534 54.0005 67.3408C54.0005 67.5283 53.8458 67.6816 53.6567 67.6816ZM49.5317 67.6816H47.4692C47.2802 67.6816 47.1255 67.5283 47.1255 67.3408C47.1255 67.1534 47.2802 67 47.4692 67H49.5317C49.7208 67 49.8755 67.1534 49.8755 67.3408C49.8755 67.5283 49.7208 67.6816 49.5317 67.6816ZM45.4067 67.6816H43.3442C43.1552 67.6816 43.0005 67.5283 43.0005 67.3408C43.0005 67.1534 43.1552 67 43.3442 67H45.4067C45.5958 67 45.7505 67.1534 45.7505 67.3408C45.7505 67.5283 45.5958 67.6816 45.4067 67.6816ZM41.2817 67.6816H39.2192C39.0302 67.6816 38.8755 67.5283 38.8755 67.3408C38.8755 67.1534 39.0302 67 39.2192 67H41.2817C41.4708 67 41.6255 67.1534 41.6255 67.3408C41.6255 67.5283 41.4708 67.6816 41.2817 67.6816ZM37.1567 67.6816H35.0942C34.9052 67.6816 34.7505 67.5283 34.7505 67.3408C34.7505 67.1534 34.9052 67 35.0942 67H37.1567C37.3458 67 37.5005 67.1534 37.5005 67.3408C37.5005 67.5283 37.3458 67.6816 37.1567 67.6816ZM33.0317 67.6816H30.9692C30.7802 67.6816 30.6255 67.5283 30.6255 67.3408C30.6255 67.1534 30.7802 67 30.9692 67H33.0317C33.2208 67 33.3755 67.1534 33.3755 67.3408C33.3755 67.5283 33.2208 67.6816 33.0317 67.6816ZM28.9067 67.6816H26.8442C26.6552 67.6816 26.5005 67.5283 26.5005 67.3408C26.5005 67.1534 26.6552 67 26.8442 67H28.9067C29.0958 67 29.2505 67.1534 29.2505 67.3408C29.2505 67.5283 29.0958 67.6816 28.9067 67.6816ZM24.7817 67.6816H22.7192C22.5302 67.6816 22.3755 67.5283 22.3755 67.3408C22.3755 67.1534 22.5302 67 22.7192 67H24.7817C24.9708 67 25.1255 67.1534 25.1255 67.3408C25.1255 67.5283 24.9708 67.6816 24.7817 67.6816ZM20.6567 67.6816H18.5942C18.4052 67.6816 18.2505 67.5283 18.2505 67.3408C18.2505 67.1534 18.4052 67 18.5942 67H20.6567C20.8458 67 21.0005 67.1534 21.0005 67.3408C21.0005 67.5283 20.8458 67.6816 20.6567 67.6816ZM16.5317 67.6816H14.4692C14.2802 67.6816 14.1255 67.5283 14.1255 67.3408C14.1255 67.1534 14.2802 67 14.4692 67H16.5317C16.7208 67 16.8755 67.1534 16.8755 67.3408C16.8755 67.5283 16.7208 67.6816 16.5317 67.6816ZM12.4067 67.6816H10.3442C10.1552 67.6816 10.0005 67.5283 10.0005 67.3408C10.0005 67.1534 10.1552 67 10.3442 67H12.4067C12.5958 67 12.7505 67.1534 12.7505 67.3408C12.7505 67.5283 12.5958 67.6816 12.4067 67.6816ZM8.28174 67.6816H6.21924C6.03018 67.6816 5.87549 67.5283 5.87549 67.3408C5.87549 67.1534 6.03018 67 6.21924 67H8.28174C8.4708 67 8.62549 67.1534 8.62549 67.3408C8.62549 67.5283 8.4708 67.6816 8.28174 67.6816ZM4.15674 67.6816H2.09424C1.90518 67.6816 1.75049 67.5283 1.75049 67.3408C1.75049 67.1534 1.90518 67 2.09424 67H4.15674C4.3458 67 4.50049 67.1534 4.50049 67.3408C4.50049 67.5283 4.3458 67.6816 4.15674 67.6816ZM0.0317388 67.6816H-2.03076C-2.21982 67.6816 -2.37451 67.5283 -2.37451 67.3408C-2.37451 67.1534 -2.21982 67 -2.03076 67H0.0317388C0.220801 67 0.375489 67.1534 0.375489 67.3408C0.375489 67.5283 0.220801 67.6816 0.0317388 67.6816ZM-4.09326 67.6816H-6.15576C-6.34482 67.6816 -6.49951 67.5283 -6.49951 67.3408C-6.49951 67.1534 -6.34482 67 -6.15576 67H-4.09326C-3.9042 67 -3.74951 67.1534 -3.74951 67.3408C-3.74951 67.5283 -3.9042 67.6816 -4.09326 67.6816Z" fill="#2E293D"/>
</g>
<path d="M83 85.9857C89.2507 80.2809 93.9219 72.8749 96.2813 64.5" stroke="white" stroke-width="2" stroke-linecap="round"/>
<path d="M14 24.6699C17.8462 19.1069 22.7016 14.6572 28.1498 11.3967M33.3946 8.70113C35.2527 7.89282 37.1587 7.20999 39.0987 6.65516C40.5411 6.24268 42.0022 5.90095 43.4765 5.631" stroke="white" stroke-width="2.08014" stroke-linecap="round"/>
</svg>
