<svg width="105" height="105" viewBox="0 0 105 105" fill="none" xmlns="http://www.w3.org/2000/svg">
<ellipse cx="52.584" cy="52.9763" rx="52" ry="52" fill="#22FFAA"/>
<mask id="mask0_910_205238" style="mask-type:alpha" maskUnits="userSpaceOnUse" x="0" y="0" width="105" height="105">
<ellipse cx="52.584" cy="52.9763" rx="52" ry="52" fill="#243CBB"/>
</mask>
<g mask="url(#mask0_910_205238)">
<circle cx="55.4526" cy="48.3695" r="35.4824" fill="#00E98F"/>
<path d="M87.2272 47.1556H64.9581V55.2358C64.9581 58.237 62.5302 60.6715 59.5373 60.6715H30.8638V84.3664C30.8638 85.9824 32.1823 87.3046 33.7939 87.3046H69.4161L79.253 97.1687C80.4041 98.3231 82.3506 97.5045 82.3506 95.8885V87.3256H87.2272C88.8387 87.3256 90.1573 86.0034 90.1573 84.3874V50.0938C90.1573 48.4778 88.8597 47.1556 87.2272 47.1556Z" fill="#060C23"/>
<path d="M67.326 55.2358V47.1556L33.794 47.1556C32.1824 47.1556 30.8639 48.4778 30.8639 50.0938L30.8638 63.6734H59.5373C62.5303 63.6944 67.326 58.237 67.326 55.2358Z" fill="#060C23"/>
<path d="M45.4939 79.2601H35.5181V82.2646H45.4939V79.2601Z" fill="#2E293D"/>
<path d="M45.5651 73.2909C45.5651 73.8125 44.9283 74.2392 44.1501 74.2392H36.8628C36.0845 74.2392 35.4478 73.8125 35.4478 73.2909V68.075C35.4478 67.5534 36.0845 67.1266 36.8628 67.1266H44.1501C44.9283 67.1266 45.5651 67.5534 45.5651 68.075V73.2909Z" fill="#2E293D"/>
<path d="M58.9368 79.2601H48.9609V82.2646H58.9368V79.2601Z" fill="#2E293D"/>
<path d="M72.3796 79.2601H62.4038V82.2646H72.3796V79.2601Z" fill="#2E293D"/>
<path d="M85.822 79.2601H75.8462V82.2646H85.822V79.2601Z" fill="#2E293D"/>
<path d="M63.5532 21.1404H8.46846C6.80707 21.1404 5.44775 22.5035 5.44775 24.1694V59.4796C5.44775 61.1456 6.80707 62.5087 8.46846 62.5087H13.4958V71.3362C13.4958 73.0022 15.524 73.846 16.6891 72.656L26.83 62.487H63.5532C65.2146 62.487 66.5739 61.124 66.5739 59.458V24.1694C66.5739 22.5035 65.2146 21.1404 63.5532 21.1404Z" fill="#243CBB"/>
<path d="M62.2371 39.0552H9.78467V42.1275H62.2371V39.0552Z" fill="#314DD8"/>
<path d="M62.2371 31.8287H9.78467V34.9011H62.2371V31.8287Z" fill="#22FFAA"/>
<path d="M62.2371 46.3032H9.78467V49.3755H62.2371V46.3032Z" fill="#314DD8"/>
<path d="M39.5818 53.5297H9.78467V56.602H39.5818V53.5297Z" fill="#314DD8"/>
<path fill-rule="evenodd" clip-rule="evenodd" d="M74.1303 44.8831H74.8413V37.5644C74.8413 35.2114 75.8367 33.0659 77.4187 31.5088C79.0185 29.9516 81.2049 29 83.6402 29C86.0576 29 88.2618 29.9689 89.8616 31.5088C91.4614 33.0659 92.4391 35.1941 92.4391 37.5644V41.8034C92.4391 42.4955 91.8702 43.0491 91.1592 43.0491C90.4482 43.0491 89.8794 42.4955 89.8794 41.8034V37.5644C89.8794 35.8861 89.1684 34.3809 88.0485 33.2736C86.9109 32.1662 85.3644 31.4915 83.6402 31.4915C81.9159 31.4915 80.3695 32.1835 79.2318 33.2736C78.0942 34.3809 77.401 35.9035 77.401 37.5644V44.8831H89.8794H92.4391H93.1501C93.9855 44.8831 94.6788 45.5406 94.6788 46.3711V59.6416C94.6788 60.4548 94.0033 61.1296 93.1501 61.1296H74.1303C73.2948 61.1296 72.6016 60.4721 72.6016 59.6416V46.3711C72.6016 45.5579 73.277 44.8831 74.1303 44.8831Z" fill="white"/>
</g>
<g clip-path="url(#clip0_910_205238)">
<path fill-rule="evenodd" clip-rule="evenodd" d="M88.4621 48.511C89.0446 47.9477 90.0015 47.9477 90.584 48.511C91.1664 49.0744 91.1664 50 90.584 50.5633L83.2199 57.666C82.6374 58.2293 81.6805 58.2293 81.0981 57.666L77.4368 54.1046C76.8544 53.5412 76.8544 52.6157 77.4368 52.0523C78.0193 51.4889 78.9762 51.4889 79.5587 52.0523L82.1798 54.5875L88.4621 48.511Z" fill="#243CBB"/>
</g>
<path d="M37.5732 8.22485C43.9651 6.015 50.5121 5.29976 56.8336 5.89406M62.6569 6.82347C64.6331 7.27096 66.5738 7.84796 68.4662 8.54832C69.873 9.06899 71.2532 9.65784 72.6016 10.3123" stroke="white" stroke-width="2.08014" stroke-linecap="round"/>
<path d="M21.5822 87.8044C23.3521 89.129 25.2127 90.3221 27.1473 91.376C30.5398 93.224 34.1599 94.6438 37.9184 95.5927" stroke="white" stroke-width="2.08014" stroke-linecap="round"/>
<defs>
<clipPath id="clip0_910_205238">
<rect width="14" height="10" fill="white" transform="translate(77 48.0885)"/>
</clipPath>
</defs>
</svg>
