<svg width="104" height="104" viewBox="0 0 104 104" fill="none" xmlns="http://www.w3.org/2000/svg">
<path d="M99.7171 52.4078C99.7171 56.9905 99.0718 61.4226 97.8671 65.6184C97.3417 67.4481 96.71 69.2329 95.979 70.9656M31.4097 9.17737C21.5291 13.8549 13.5082 21.8149 8.75738 31.6482M4.89355 43.2861C5.2882 41.2448 5.8128 39.2497 6.45841 37.3099" stroke="white" stroke-width="1.83542" stroke-linecap="round"/>
<circle cx="43.7401" cy="62.0944" r="38.8471" fill="#00E98F"/>
<circle cx="52" cy="52" r="52" fill="#314DD8"/>
<circle cx="56.6075" cy="39.4782" r="33.36" fill="#22FFAA"/>
<mask id="mask0_248_28770" style="mask-type:alpha" maskUnits="userSpaceOnUse" x="0" y="0" width="104" height="104">
<circle cx="52" cy="52" r="52" fill="#314DD8"/>
</mask>
<g mask="url(#mask0_248_28770)">
<rect x="4.28174" y="36.7087" width="75.2522" height="54.4508" rx="6.72987" fill="#D7DEEA"/>
<path d="M56.1149 82.8849H28.1889V95.3403C28.1889 98.1457 25.9147 100.42 23.1093 100.42H22.9933C20.8413 100.42 19.0967 102.165 19.0967 104.317C19.0967 106.469 20.8413 108.213 22.9933 108.213H61.3105C63.4626 108.213 65.2071 106.469 65.2071 104.317C65.2071 102.165 63.4626 100.42 61.3105 100.42H60.661C58.1503 100.42 56.1149 98.3846 56.1149 95.8738V82.8849Z" fill="#060C23"/>
<rect x="9.17529" y="36.7086" width="70.3578" height="54.4508" rx="6.72987" fill="white"/>
<path d="M9.17627 81.9823H79.534V84.4295C79.534 88.1463 76.521 91.1594 72.8042 91.1594H15.9062C12.1893 91.1594 9.17627 88.1463 9.17627 84.4295V81.9823Z" fill="#E4E9F1"/>
</g>
<path d="M97.6917 59.3474C97.3161 61.3187 96.8175 63.2575 96.2021 65.1531M87.4815 80.9922C90.5147 77.3355 92.9898 73.2463 94.8227 68.8703" stroke="white" stroke-width="2.08014" stroke-linecap="round"/>
<rect x="35.7898" y="32.1201" width="6.72903" height="6.72903" rx="3.36452" fill="#00E98F" stroke="#47FFB9" stroke-width="0.611807"/>
<rect x="53.532" y="32.1201" width="6.72903" height="6.72903" rx="3.36452" fill="#00E98F" stroke="#47FFB9" stroke-width="0.611807"/>
<path d="M39.1562 35.4849V26.0019C39.1562 21.1025 43.128 17.1307 48.0274 17.1307V17.1307C52.9269 17.1307 56.8986 21.1024 56.8986 26.0019V35.4849" stroke="#47FFB9" stroke-width="4.28265" stroke-linecap="round"/>
<path d="M11.6224 28.0703C14.0779 24.029 17.11 20.3959 20.5939 17.2741" stroke="white" stroke-width="2.08014" stroke-linecap="round"/>
<path d="M29.2631 31.7085C29.3204 29.3851 31.2203 27.5316 33.5444 27.5316H71.6853C74.0093 27.5316 75.9093 29.3851 75.9666 31.7085L76.9788 72.6995C77.0382 75.1054 75.104 77.0879 72.6974 77.0879H32.5323C30.1256 77.0879 28.1915 75.1054 28.2509 72.6995L29.2631 31.7085Z" fill="#2E293D"/>
<path d="M34.7689 31.7085C34.8263 29.3851 36.7262 27.5316 39.0503 27.5316H77.1912C79.5152 27.5316 81.4151 29.3851 81.4725 31.7085L82.4846 72.6995C82.544 75.1054 80.6099 77.0879 78.2033 77.0879H38.0381C35.6315 77.0879 33.6974 75.1054 33.7568 72.6995L34.7689 31.7085Z" fill="#060C23"/>
<path d="M95.1614 49.0053C86.4541 48.3828 65.0817 72.3748 61.8953 77.3968C60.2877 75.341 52.4259 64.0407 47.9156 60.424C46.2707 59.1046 43.4577 60.5792 44.4676 62.023C52.5528 74.6877 56.6322 81.3552 58.5137 85.9975C58.9211 87.378 65.101 87.7537 65.7511 86.4156C79.8268 57.4429 98.5808 49.2497 95.1614 49.0053Z" fill="#22FFAA"/>
<path d="M57.785 76.7481C56.8441 75.2331 55.2773 72.81 52.7837 69.7894" stroke="white" stroke-width="1.83542" stroke-linecap="round"/>
<path d="M69.9495 71.9721C68.7449 73.2144 63.9498 79.7128 62.1616 82.7997L59.9829 80.3857" stroke="white" stroke-width="1.83542" stroke-linecap="round" stroke-linejoin="round"/>
<rect x="46.1907" y="32.1201" width="6.72903" height="6.72903" rx="3.36452" fill="#00E98F" stroke="#00E98F" stroke-width="0.611807"/>
<rect x="63.9329" y="32.1201" width="6.72903" height="6.72903" rx="3.36452" fill="#00E98F" stroke="#00E98F" stroke-width="0.611807"/>
<path d="M49.5562 35.4849V26.0019C49.5562 21.1025 53.5279 17.1307 58.4273 17.1307V17.1307C63.3268 17.1307 67.2985 21.1025 67.2985 26.0019V35.4849" stroke="#243CBB" stroke-width="4.28265" stroke-linecap="round"/>
</svg>
