<svg width="104" height="104" viewBox="0 0 104 104" fill="none" xmlns="http://www.w3.org/2000/svg">
<path d="M99.9959 52.4078C99.9959 56.9905 99.3506 61.4226 98.1459 65.6184C97.6206 67.4481 96.9888 69.2329 96.2578 70.9656M31.6885 9.17737C21.8079 13.8549 13.787 21.8149 9.03619 31.6482M5.17236 43.2861C5.56701 41.2448 6.09161 39.2497 6.73722 37.3099" stroke="white" stroke-width="1.04007" stroke-linecap="round"/>
<ellipse cx="52" cy="52" rx="52" ry="52" fill="#060C23"/>
<mask id="mask0_908_191114" style="mask-type:alpha" maskUnits="userSpaceOnUse" x="0" y="0" width="104" height="104">
<ellipse cx="52" cy="52" rx="52" ry="52" fill="#060C23"/>
</mask>
<g mask="url(#mask0_908_191114)">
<ellipse cx="60.9104" cy="40.9104" rx="32.9104" ry="32.9104" fill="#2E293D"/>
<path d="M32.2093 106.72H25.4924C20.0463 106.72 15.5078 102.417 15.5078 96.8578V60.481H21.8616V97.0371C21.8616 98.8303 23.3139 100.444 25.3109 100.444H32.0278C33.8432 100.444 35.477 99.0096 35.477 97.0371V90.0437H42.0124V97.0371C42.0124 102.417 37.6555 106.72 32.2093 106.72Z" fill="#243CBB"/>
<path d="M48.285 82.1537C48.285 87.2184 44.1831 91.27 39.0558 91.27C33.9285 91.27 29.8267 87.2184 29.8267 82.1537C29.8267 77.0891 33.9285 73.0374 39.0558 73.0374C44.1831 73.0374 48.285 77.0891 48.285 82.1537Z" fill="#00E98F"/>
<path d="M42.5718 82.1538C42.5718 84.0349 40.9603 85.6266 39.0559 85.6266C37.1515 85.6266 35.54 84.0349 35.54 82.1538C35.54 80.2726 37.1515 78.6809 39.0559 78.6809C40.9603 78.6809 42.5718 80.2726 42.5718 82.1538Z" fill="#85FFD0"/>
<path d="M37.2922 28.2559H32.9353V34.1734H37.2922C38.926 34.1734 40.3783 35.4286 40.3783 37.2218V54.2323C40.3783 55.8461 39.1076 57.2807 37.2922 57.2807H0.0769024C-1.55694 57.2807 -3.00924 56.0254 -3.00924 54.2323V37.2218C-3.00924 35.6079 -1.73848 34.1734 0.0769024 34.1734H4.43382V28.2559H0.0769024C-5.00616 28.2559 -9 32.2009 -9 37.2218V54.2323C-9 59.2532 -5.00616 63.1982 0.0769024 63.1982H37.2922C42.3753 63.1982 46.3691 59.2532 46.3691 54.2323V37.2218C46.3691 32.3802 42.1937 28.2559 37.2922 28.2559Z" fill="#243CBB"/>
<path d="M14.6001 33.9934C14.6001 35.0693 13.6924 35.9659 12.6032 35.9659H1.89243C0.803198 35.9659 -0.104492 35.0693 -0.104492 33.9934V28.9725C-0.104492 27.8966 0.803198 27 1.89243 27H12.6032C13.6924 27 14.6001 27.8966 14.6001 28.9725V33.9934Z" fill="white"/>
<path d="M37.4738 33.9934C37.4738 35.0693 36.5661 35.9659 35.4769 35.9659H24.7662C23.6769 35.9659 24.04 35.0693 24.04 33.9934V28.9725C24.04 27.8966 23.6769 27 24.7662 27H35.4769C36.5661 27 37.4738 27.8966 37.4738 28.9725V33.9934Z" fill="white"/>
<path d="M22.9512 33.9934C22.9512 35.0693 23.8589 35.9659 24.9481 35.9659V27C23.8589 27 22.9512 27.8966 22.9512 28.9725V33.9934Z" fill="white"/>
<path d="M109.504 40.0278C109.504 42.545 107.457 45.0622 104.897 45.0622H60.119C57.0476 45.0622 55 43.0485 55 40.0278V32.4762C55 29.959 57.0476 27.4418 59.6071 27.4418H104.385C106.945 27.4418 108.992 29.4555 108.992 32.4762V40.0278H109.504Z" fill="#00E98F"/>
<path d="M78.4118 63.5041C75.8523 63.5041 73.8047 61.4904 73.8047 58.4697V14.0344C73.8047 11.5172 75.8523 9 78.4118 9H86.0903C88.6499 9 90.6975 11.0138 90.6975 14.0344V58.4697C90.6975 60.9869 88.6499 63.5041 86.0903 63.5041H78.4118Z" fill="#22FFAA"/>
</g>
<path d="M88.8213 77.8325C84.8736 83.3239 79.9373 87.6836 74.4301 90.8435M69.1366 93.4423C67.264 94.2163 65.3458 94.864 63.3959 95.3831C61.9462 95.769 60.4791 96.0839 59.0001 96.3267" stroke="white" stroke-width="2.08014" stroke-linecap="round"/>
</svg>
