<svg width="25" height="29" viewBox="0 0 25 29" fill="none" xmlns="http://www.w3.org/2000/svg">
<path d="M13.73 26C13.5542 26.3031 13.3018 26.5547 12.9982 26.7295C12.6946 26.9044 12.3504 26.9965 12 26.9965C11.6496 26.9965 11.3054 26.9044 11.0018 26.7295C10.6982 26.5547 10.4458 26.3031 10.27 26M18 13C18 11.4087 17.3679 9.88258 16.2426 8.75736C15.1174 7.63214 13.5913 7 12 7C10.4087 7 8.88258 7.63214 7.75736 8.75736C6.63214 9.88258 6 11.4087 6 13C6 20 3 22 3 22H21C21 22 18 20 18 13Z" stroke="#CCD4E0" stroke-width="2" stroke-linecap="round" stroke-linejoin="round"/>
<path d="M25 7C25 10.866 21.866 14 18 14C14.134 14 11 10.866 11 7C11 3.13401 14.134 0 18 0C21.866 0 25 3.13401 25 7Z" fill="#FF5555"/>
<path d="M20.46 10H15.62V8.78L17.81 6.86C18.1833 6.53333 18.4567 6.24 18.63 5.98C18.8033 5.71333 18.89 5.42667 18.89 5.12V4.99C18.89 4.68333 18.79 4.45 18.59 4.29C18.39 4.12333 18.1467 4.04 17.86 4.04C17.5 4.04 17.2267 4.14333 17.04 4.35C16.8533 4.55 16.72 4.79333 16.64 5.08L15.5 4.64C15.5733 4.40667 15.6767 4.18667 15.81 3.98C15.9433 3.76667 16.11 3.58 16.31 3.42C16.5167 3.26 16.7567 3.13333 17.03 3.04C17.3033 2.94667 17.6167 2.9 17.97 2.9C18.3367 2.9 18.6633 2.95333 18.95 3.06C19.2367 3.16 19.4767 3.30333 19.67 3.49C19.87 3.67667 20.02 3.89667 20.12 4.15C20.2267 4.40333 20.28 4.68 20.28 4.98C20.28 5.27333 20.2333 5.54 20.14 5.78C20.0467 6.02 19.92 6.25 19.76 6.47C19.6 6.68333 19.4133 6.89 19.2 7.09C18.9867 7.28333 18.76 7.48 18.52 7.68L17.05 8.89H20.46V10Z" fill="white"/>
</svg>
