<svg width="13" height="13" viewBox="0 0 13 13" fill="none" xmlns="http://www.w3.org/2000/svg">
  <path d="M4.31329 7.875L4.93017 8.49187L6.06329 7.36312V12.6875H6.93829V7.36312L8.07142 8.49187L8.68829 7.875L6.50079 5.6875L4.31329 7.875Z" fill="white"/>
  <path d="M9.78204 9.625H9.56329V8.75H9.78204C10.3042 8.77088 10.8132 8.58349 11.1972 8.22905C11.5812 7.8746 11.8087 7.38214 11.8295 6.86C11.8504 6.33785 11.663 5.82879 11.3086 5.44481C10.9541 5.06083 10.4617 4.83338 9.93954 4.8125H9.56329L9.51954 4.45375C9.42248 3.71719 9.06098 3.04103 8.50239 2.55123C7.94381 2.06142 7.22621 1.79136 6.48329 1.79136C5.74037 1.79136 5.02278 2.06142 4.46419 2.55123C3.9056 3.04103 3.54411 3.71719 3.44704 4.45375L3.43829 4.8125H3.06204C2.5399 4.83338 2.04744 5.06083 1.69299 5.44481C1.33855 5.82879 1.15116 6.33785 1.17204 6.86C1.19293 7.38214 1.42038 7.8746 1.80436 8.22905C2.18834 8.58349 2.6974 8.77088 3.21954 8.75H3.43829V9.625H3.21954C2.51797 9.62055 1.8428 9.35692 1.32385 8.88479C0.804895 8.41265 0.478788 7.76535 0.408225 7.06732C0.337662 6.36929 0.527625 5.66981 0.94159 5.10337C1.35556 4.53693 1.9643 4.14351 2.65079 3.99875C2.83966 3.11785 3.32491 2.32836 4.02555 1.76201C4.7262 1.19567 5.59987 0.886719 6.50079 0.886719C7.40171 0.886719 8.27538 1.19567 8.97603 1.76201C9.67668 2.32836 10.1619 3.11785 10.3508 3.99875C11.0373 4.14351 11.646 4.53693 12.06 5.10337C12.474 5.66981 12.6639 6.36929 12.5934 7.06732C12.5228 7.76535 12.1967 8.41265 11.6777 8.88479C11.1588 9.35692 10.4836 9.62055 9.78204 9.625Z" fill="white"/>
</svg>
