<svg width="40" height="40" viewBox="0 0 40 40" fill="none" xmlns="http://www.w3.org/2000/svg">
<rect width="40" height="40" rx="20" fill="url(#paint0_radial_473_39006)"/>
<path d="M19.9976 16.9987C18.345 16.9987 16.9964 18.3474 16.9964 20C16.9964 21.6526 18.345 23.0013 19.9976 23.0013C21.6502 23.0013 22.9988 21.6526 22.9988 20C22.9988 18.3474 21.6502 16.9987 19.9976 16.9987ZM28.999 20C28.999 18.7572 29.0103 17.5256 28.9405 16.285C28.8707 14.844 28.5419 13.5652 27.4883 12.5114C26.4323 11.4555 25.1557 11.129 23.7148 11.0592C22.472 10.9894 21.2404 11.0007 19.9998 11.0007C18.757 11.0007 17.5255 10.9894 16.2849 11.0592C14.8439 11.129 13.5651 11.4577 12.5114 12.5114C11.4555 13.5674 11.129 14.844 11.0592 16.285C10.9894 17.5278 11.0007 18.7594 11.0007 20C11.0007 21.2406 10.9894 22.4744 11.0592 23.715C11.129 25.156 11.4577 26.4348 12.5114 27.4886C13.5674 28.5445 14.8439 28.871 16.2849 28.9408C17.5277 29.0106 18.7593 28.9993 19.9998 28.9993C21.2426 28.9993 22.4742 29.0106 23.7148 28.9408C25.1557 28.871 26.4346 28.5423 27.4883 27.4886C28.5442 26.4326 28.8707 25.156 28.9405 23.715C29.0125 22.4744 28.999 21.2428 28.999 20ZM19.9976 24.6179C17.4422 24.6179 15.3798 22.5555 15.3798 20C15.3798 17.4445 17.4422 15.3821 19.9976 15.3821C22.553 15.3821 24.6154 17.4445 24.6154 20C24.6154 22.5555 22.553 24.6179 19.9976 24.6179ZM24.8045 16.2715C24.2078 16.2715 23.726 15.7897 23.726 15.193C23.726 14.5963 24.2078 14.1145 24.8045 14.1145C25.4011 14.1145 25.8829 14.5963 25.8829 15.193C25.8831 15.3347 25.8554 15.475 25.8012 15.6059C25.7471 15.7369 25.6677 15.8558 25.5675 15.956C25.4673 16.0562 25.3483 16.1356 25.2174 16.1897C25.0865 16.2439 24.9462 16.2717 24.8045 16.2715Z" fill="white"/>
<defs>
<radialGradient id="paint0_radial_473_39006" cx="0" cy="0" r="1" gradientUnits="userSpaceOnUse" gradientTransform="translate(13 39) rotate(-67.2703) scale(40.1155)">
<stop stop-color="#FFDC80"/>
<stop offset="0.183916" stop-color="#FCAF45"/>
<stop offset="0.380208" stop-color="#F06856"/>
<stop offset="0.510417" stop-color="#E1306C"/>
<stop offset="0.838542" stop-color="#833AB4"/>
<stop offset="0.9999" stop-color="#405DE6"/>
</radialGradient>
</defs>
</svg>
