<svg width="149" height="35" viewBox="0 0 149 35" fill="none" xmlns="http://www.w3.org/2000/svg">
<g id="Group 250">
<path id="Rectangle 460 (Stroke)" fill-rule="evenodd" clip-rule="evenodd" d="M19.2275 11.6519C10.9682 11.6519 4.27277 18.2797 4.27277 26.4554V27.9482C4.27277 29.8948 5.86692 31.4728 7.83341 31.4728H8.95964C10.1224 31.4728 11.0716 30.5523 11.0956 29.4015L11.1114 28.6386C11.1168 28.3824 11.2621 28.1493 11.491 28.0297C11.7199 27.9101 11.9963 27.9228 12.213 28.063L13.3842 28.8206C16.9343 31.117 21.5206 31.117 25.0708 28.8206L26.2419 28.063C26.4586 27.9228 26.735 27.9101 26.9639 28.0297C27.1928 28.1493 27.3381 28.3824 27.3435 28.6386L27.3593 29.4015C27.3833 30.5523 28.3325 31.4728 29.4953 31.4728H30.6215C32.588 31.4728 34.1822 29.8948 34.1822 27.9482V26.4554C34.1822 18.2797 27.4867 11.6519 19.2275 11.6519ZM2.84851 26.4554C2.84851 17.501 10.1816 10.2421 19.2275 10.2421C28.2733 10.2421 35.6064 17.501 35.6064 26.4554V27.9482C35.6064 30.6734 33.3746 32.8826 30.6215 32.8826H29.4953C27.7243 32.8826 26.2506 31.6015 25.9793 29.9171L25.8499 30.0008C21.8264 32.6034 16.6286 32.6034 12.6051 30.0008L12.4756 29.9171C12.2044 31.6015 10.7306 32.8826 8.95964 32.8826H7.83341C5.08033 32.8826 2.84851 30.6734 2.84851 27.9482V26.4554Z" fill="#243CBB"/>
<path id="Rectangle 461 (Stroke)" fill-rule="evenodd" clip-rule="evenodd" d="M18.5153 7.75236C8.22622 8.12319 0 16.4969 0 26.7725V28.6557C0 32.1596 2.86948 35 6.40915 35H32.0458C35.5854 35 38.4549 32.1596 38.4549 28.6557V26.7725C38.4549 16.4969 30.2287 8.12319 19.9396 7.75236V4.93451H18.5153V7.75236ZM19.2275 9.1494C9.39502 9.1494 1.42426 17.0395 1.42426 26.7725V28.6557C1.42426 31.3809 3.65607 33.5902 6.40915 33.5902H32.0458C34.7989 33.5902 37.0307 31.3809 37.0307 28.6557V26.7725C37.0307 17.0395 29.0599 9.1494 19.2275 9.1494Z" fill="#243CBB"/>
<path id="Ellipse 75 (Stroke)" fill-rule="evenodd" clip-rule="evenodd" d="M19.2274 1.40985C18.4408 1.40985 17.8032 2.04106 17.8032 2.8197C17.8032 3.59834 18.4408 4.22955 19.2274 4.22955C20.014 4.22955 20.6517 3.59834 20.6517 2.8197C20.6517 2.04106 20.014 1.40985 19.2274 1.40985ZM16.3789 2.8197C16.3789 1.26242 17.6542 0 19.2274 0C20.8006 0 22.0759 1.26242 22.0759 2.8197C22.0759 4.37698 20.8006 5.6394 19.2274 5.6394C17.6542 5.6394 16.3789 4.37698 16.3789 2.8197Z" fill="#243CBB"/>
<ellipse id="Ellipse 76" cx="12.6389" cy="22.3611" rx="1.94445" ry="1.94444" fill="#243CBB"/>
<ellipse id="Ellipse 77" cx="26.25" cy="22.3611" rx="1.94444" ry="1.94444" fill="#243CBB"/>
<g id="Bot Kits">
<path d="M50.4304 16.6813H55.8312C57.1985 16.6813 58.2695 17.0498 59.0443 17.7866C59.8191 18.5235 60.2065 19.5085 60.2065 20.7417C60.2065 21.6891 59.971 22.4335 59.5001 22.9749C59.0443 23.5163 58.4518 23.8998 57.7226 24.1253V24.193C58.6189 24.4035 59.3558 24.8021 59.9331 25.3886C60.5104 25.96 60.799 26.7946 60.799 27.8925C60.799 28.5241 60.6927 29.1181 60.48 29.6745C60.2673 30.2309 59.9634 30.7122 59.5685 31.1182C59.1886 31.5242 58.7329 31.8476 58.2012 32.0882C57.6846 32.3137 57.1225 32.4265 56.5148 32.4265H50.4304V16.6813ZM55.9451 30.7798C56.8263 30.7798 57.5175 30.5843 58.0189 30.1933C58.5202 29.8023 58.7709 29.2008 58.7709 28.3887V27.4639C58.7709 26.6668 58.5202 26.0728 58.0189 25.6818C57.5175 25.2758 56.8263 25.0728 55.9451 25.0728H52.3446V30.7798H55.9451ZM55.6261 23.5163C56.4313 23.5163 57.0618 23.3433 57.5175 22.9975C57.9733 22.6365 58.2012 22.0951 58.2012 21.3733V20.4936C58.2012 19.7717 57.9733 19.2303 57.5175 18.8694C57.0618 18.5085 56.4313 18.328 55.6261 18.328H52.3446V23.5163H55.6261Z" fill="#243CBB"/>
<path d="M68.783 32.6972C67.9627 32.6972 67.2183 32.5544 66.5498 32.2686C65.8965 31.9829 65.3344 31.5769 64.8635 31.0505C64.4077 30.5091 64.0583 29.87 63.8152 29.1331C63.5722 28.3812 63.4506 27.539 63.4506 26.6067C63.4506 25.6893 63.5722 24.8547 63.8152 24.1028C64.0583 23.3509 64.4077 22.7117 64.8635 22.1854C65.3344 21.644 65.8965 21.2304 66.5498 20.9447C67.2183 20.659 67.9627 20.5161 68.783 20.5161C69.6034 20.5161 70.3402 20.659 70.9935 20.9447C71.6619 21.2304 72.224 21.644 72.6798 22.1854C73.1508 22.7117 73.5078 23.3509 73.7508 24.1028C73.9939 24.8547 74.1154 25.6893 74.1154 26.6067C74.1154 27.539 73.9939 28.3812 73.7508 29.1331C73.5078 29.87 73.1508 30.5091 72.6798 31.0505C72.224 31.5769 71.6619 31.9829 70.9935 32.2686C70.3402 32.5544 69.6034 32.6972 68.783 32.6972ZM68.783 31.1407C69.8009 31.1407 70.6213 30.84 71.2441 30.2384C71.867 29.6369 72.1785 28.7045 72.1785 27.4413V25.772C72.1785 24.5088 71.867 23.5764 71.2441 22.9749C70.6213 22.3734 69.8009 22.0726 68.783 22.0726C67.7652 22.0726 66.9448 22.3734 66.3219 22.9749C65.699 23.5764 65.3876 24.5088 65.3876 25.772V27.4413C65.3876 28.7045 65.699 29.6369 66.3219 30.2384C66.9448 30.84 67.7652 31.1407 68.783 31.1407Z" fill="#243CBB"/>
<path d="M82.8743 32.4265C81.9779 32.4265 81.3171 32.1784 80.8917 31.6821C80.4815 31.1859 80.2764 30.5467 80.2764 29.7647V22.3207H76.3569V20.7868H79.2738C79.6687 20.7868 79.9422 20.7116 80.0941 20.5612C80.2612 20.3958 80.3448 20.1176 80.3448 19.7266V16.6813H82.0995V20.7868H87.4547V22.3207H82.0995V30.8926H87.4547V32.4265H82.8743Z" fill="#243CBB"/>
<path d="M102.374 24.7118L100.096 27.3736V32.4265H98.1815V16.6813H100.096V24.8923H100.164L102.261 22.2756L106.955 16.6813H109.256L103.673 23.3133L109.416 32.4265H107.183L102.374 24.7118Z" fill="#243CBB"/>
<path d="M117.332 18.2152C116.8 18.2152 116.428 18.11 116.215 17.8994C116.002 17.6739 115.896 17.3956 115.896 17.0648V16.7039C115.896 16.373 116.002 16.1023 116.215 15.8918C116.428 15.6662 116.8 15.5534 117.332 15.5534C117.863 15.5534 118.236 15.6662 118.448 15.8918C118.661 16.1023 118.767 16.373 118.767 16.7039V17.0648C118.767 17.3956 118.661 17.6739 118.448 17.8994C118.236 18.11 117.863 18.2152 117.332 18.2152ZM112.182 30.8926H116.42V22.3207H112.182V20.7868H118.243V30.8926H122.208V32.4265H112.182V30.8926Z" fill="#243CBB"/>
<path d="M130.694 32.4265C129.797 32.4265 129.136 32.1784 128.711 31.6821C128.301 31.1859 128.096 30.5467 128.096 29.7647V22.3207H124.176V20.7868H127.093C127.488 20.7868 127.762 20.7116 127.914 20.5612C128.081 20.3958 128.164 20.1176 128.164 19.7266V16.6813H129.919V20.7868H135.274V22.3207H129.919V30.8926H135.274V32.4265H130.694Z" fill="#243CBB"/>
<path d="M143.782 32.6972C142.552 32.6972 141.488 32.4942 140.592 32.0882C139.711 31.6671 138.959 31.1107 138.336 30.4189L139.566 29.3587C140.129 29.9452 140.744 30.3963 141.412 30.7122C142.081 31.028 142.886 31.1859 143.828 31.1859C144.739 31.1859 145.484 31.028 146.061 30.7122C146.654 30.3813 146.95 29.87 146.95 29.1782C146.95 28.8775 146.889 28.6293 146.767 28.4338C146.661 28.2233 146.509 28.0579 146.312 27.9376C146.114 27.8173 145.894 27.727 145.651 27.6669C145.408 27.5917 145.15 27.5315 144.876 27.4864L143.03 27.2157C142.62 27.1556 142.172 27.0729 141.686 26.9676C141.215 26.8623 140.782 26.6969 140.387 26.4713C139.992 26.2307 139.658 25.9149 139.384 25.5239C139.126 25.1329 138.997 24.6216 138.997 23.99C138.997 23.4035 139.111 22.8997 139.339 22.4786C139.582 22.0425 139.916 21.6816 140.341 21.3959C140.767 21.0951 141.268 20.877 141.845 20.7417C142.423 20.5913 143.053 20.5161 143.737 20.5161C144.8 20.5161 145.719 20.6815 146.494 21.0124C147.284 21.3432 147.96 21.8019 148.522 22.3884L147.337 23.4937C147.2 23.3283 147.026 23.1629 146.813 22.9975C146.616 22.817 146.365 22.6591 146.061 22.5237C145.772 22.3734 145.431 22.253 145.036 22.1628C144.641 22.0726 144.185 22.0275 143.668 22.0275C142.742 22.0275 142.028 22.1854 141.526 22.5012C141.04 22.817 140.797 23.2757 140.797 23.8772C140.797 24.178 140.85 24.4336 140.957 24.6442C141.078 24.8397 141.238 24.9976 141.435 25.1179C141.633 25.2382 141.853 25.3359 142.096 25.4111C142.354 25.4713 142.612 25.5239 142.871 25.569L144.717 25.8397C145.142 25.8999 145.59 25.9826 146.061 26.0878C146.532 26.1931 146.965 26.3661 147.36 26.6067C147.755 26.8322 148.082 27.1405 148.34 27.5315C148.613 27.9225 148.75 28.4338 148.75 29.0654C148.75 30.2234 148.294 31.1182 147.383 31.7498C146.486 32.3814 145.286 32.6972 143.782 32.6972Z" fill="#243CBB"/>
</g>
</g>
</svg>
