<svg width="102" height="24" viewBox="0 0 102 24" fill="none" xmlns="http://www.w3.org/2000/svg">
    <g clip-path="url(#clip0_27_12579)">
        <path d="M52.861 6.60411H49.5886L47.2728 10.6738H46.0808L46.0427 1.86621H42.9448V17.7731H46.0427L46.0808 13.4072H47.2652L50.3403 17.7731H53.7722L49.7631 11.9874L52.861 6.60411Z" fill="white"/>
        <path d="M76.3075 11.8434C75.6782 11.4361 74.9959 11.1167 74.2801 10.8943L73.5966 10.6361L73.4145 10.5678C72.9894 10.4083 72.5414 10.2413 72.5261 9.80851C72.5223 9.68031 72.5505 9.55319 72.6092 9.43902C72.6675 9.32481 72.754 9.22729 72.8602 9.15551C73.0846 9.00092 73.3475 8.91155 73.6195 8.89738C74.2126 8.85643 74.8008 9.03174 75.2747 9.39091L75.3582 9.44405L77.0134 7.53826L76.93 7.46995C76.7239 7.28622 76.5002 7.12344 76.2618 6.98401C75.8347 6.73974 75.3707 6.56786 74.8877 6.47529C74.1917 6.32725 73.4724 6.32725 72.7768 6.47529C72.1041 6.56431 71.466 6.82588 70.9242 7.23456C70.5776 7.50561 70.2881 7.8423 70.0717 8.22531C69.8557 8.60831 69.717 9.03018 69.6637 9.46683C69.5688 10.2548 69.7688 11.05 70.2256 11.6991C70.8321 12.3708 71.6252 12.8466 72.5033 13.0658L72.6401 13.1114L72.9513 13.2176C74.0751 13.5973 74.394 13.7492 74.5761 13.9769C74.661 14.0915 74.7086 14.2293 74.7128 14.3717C74.7128 14.9108 74.0522 15.131 73.6042 15.2677C73.2911 15.3265 72.9692 15.3205 72.6583 15.25C72.3475 15.1795 72.0545 15.046 71.7974 14.8577C71.381 14.5794 71.0248 14.2205 70.7494 13.8023C70.5749 13.9845 68.8587 15.6777 68.8892 15.7081L68.9425 15.784C69.7692 16.8192 70.9277 17.5378 72.2225 17.8189C72.5182 17.8761 72.8176 17.9141 73.1185 17.9328H73.4298C74.4526 17.9542 75.4545 17.6424 76.2846 17.0444C76.8462 16.6473 77.2766 16.0923 77.5223 15.4499C77.6717 15.0187 77.7242 14.5599 77.677 14.106C77.6298 13.6521 77.4839 13.2141 77.2488 12.8228C77.0088 12.4327 76.6877 12.0986 76.3075 11.8434Z" fill="white"/>
        <path d="M86.3146 11.8435C85.688 11.4363 85.0087 11.1169 84.2952 10.8944L83.6042 10.6363L83.4297 10.5679C82.9969 10.4085 82.5565 10.2414 82.5337 9.80865C82.5356 9.68069 82.5676 9.55501 82.627 9.4416C82.6865 9.32823 82.7714 9.23029 82.8754 9.15566C83.0998 9.00103 83.3626 8.9117 83.6346 8.89752C84.2278 8.85794 84.8152 9.03311 85.2899 9.39105L85.3657 9.44419L87.0209 7.5384L86.9451 7.47006C86.7375 7.28457 86.5112 7.12168 86.2693 6.98415C85.8449 6.74019 85.3832 6.56827 84.9025 6.47543C84.2042 6.3272 83.4826 6.3272 82.7844 6.47543C82.1124 6.56709 81.4746 6.82838 80.9314 7.23471C80.5828 7.5032 80.2906 7.83798 80.0716 8.21977C79.8529 8.60156 79.7116 9.02282 79.656 9.45939C79.5565 10.2476 79.7569 11.0444 80.2179 11.6917C80.8244 12.3634 81.6175 12.8392 82.4956 13.0584L82.6247 13.1039L82.936 13.2102C84.0674 13.5898 84.3863 13.7417 84.5684 13.9695C84.656 14.0821 84.7017 14.2217 84.6975 14.3643C84.6975 14.9034 84.0445 15.1236 83.5965 15.2603C83.2823 15.3192 82.9588 15.3133 82.6468 15.2428C82.3348 15.1723 82.0404 15.0387 81.7821 14.8502C81.3691 14.5678 81.0137 14.2097 80.7341 13.7949C80.5672 13.9771 78.851 15.6702 78.8739 15.7006L78.9345 15.7766C79.7615 16.8117 80.92 17.5304 82.2148 17.8114C82.5105 17.8691 82.8099 17.9072 83.1108 17.9253H83.4221C84.4449 17.9467 85.4468 17.6349 86.2769 17.037C86.8385 16.6398 87.2689 16.0849 87.5146 15.4425C87.6636 15.0112 87.7166 14.5525 87.6693 14.0986C87.6221 13.6447 87.4762 13.2067 87.2411 12.8154C87.0042 12.4299 86.6884 12.0987 86.3146 11.8435Z" fill="white"/>
        <path d="M63.035 6.60435V7.69768H62.8987C62.0507 6.84865 60.9017 6.36846 59.7021 6.36138C58.9665 6.34682 58.2358 6.4874 57.5585 6.77387C56.8808 7.06039 56.2709 7.4864 55.7688 8.0242C54.7562 9.1581 54.2133 10.6349 54.2503 12.1546C54.211 13.6999 54.7528 15.2036 55.7688 16.3686C56.259 16.9068 56.859 17.3331 57.5288 17.6187C58.1981 17.9043 58.9211 18.0425 59.6488 18.0239C60.8503 18.0013 62.0057 17.5579 62.9135 16.7711H63.035V17.7505H66.2545V6.60435H63.035ZM63.1947 12.2154C63.227 13.1136 62.9269 13.9922 62.3516 14.6831C62.0762 14.9917 61.736 15.236 61.3554 15.3987C60.9752 15.5614 60.5634 15.6385 60.1501 15.6245C59.7489 15.6313 59.3512 15.5474 58.987 15.3791C58.6229 15.2108 58.3013 14.9625 58.0469 14.6527C57.4785 13.9475 57.187 13.0594 57.2267 12.1546C57.2008 11.2771 57.4979 10.4207 58.0617 9.74774C58.3215 9.4426 58.6453 9.19856 59.0103 9.03319C59.3752 8.86778 59.7722 8.78511 60.1726 8.79105C60.5836 8.77825 60.992 8.85677 61.3688 9.02088C61.7455 9.185 62.0815 9.43063 62.3516 9.74016C62.9269 10.434 63.2267 11.3149 63.1947 12.2154Z" fill="white"/>
        <path d="M98.053 6.60423V7.6976H97.9162C97.0701 6.8504 95.9246 6.37033 94.7273 6.36126C93.9909 6.34758 93.2595 6.48846 92.5806 6.77486C91.9021 7.0613 91.2907 7.48686 90.7867 8.02408C89.7741 9.15798 89.2313 10.6348 89.2682 12.1546C89.229 13.6998 89.7707 15.2035 90.7867 16.3685C91.277 16.9067 91.877 17.333 92.5463 17.6186C93.216 17.9042 93.9391 18.0424 94.6667 18.0238C95.8682 18.0012 97.0233 17.5579 97.9315 16.771H98.053V17.7504H101.272V6.60423H98.053ZM98.2126 12.2153C98.2484 13.1141 97.9478 13.9939 97.3696 14.6829C97.0941 14.9916 96.7539 15.2359 96.3734 15.3986C95.9928 15.5613 95.5814 15.6384 95.1677 15.6245C94.7665 15.6312 94.3692 15.5473 94.005 15.379C93.6408 15.2107 93.3193 14.9624 93.0644 14.6526C92.4964 13.9475 92.2046 13.0593 92.2446 12.1546C92.2187 11.277 92.5158 10.4206 93.0797 9.74766C93.3395 9.44248 93.6633 9.19848 94.0282 9.03307C94.3932 8.8677 94.7901 8.78499 95.1905 8.79097C95.6016 8.77817 96.0099 8.85665 96.3867 9.02077C96.7635 9.18488 97.0991 9.43056 97.3696 9.74004C97.9478 10.4321 98.248 11.3143 98.2126 12.2153Z" fill="white"/>
        <path d="M21.7979 0C15.1143 0 9.79785 5.39242 9.79785 12C9.79785 18.6835 15.1903 24 21.7979 24C28.4055 24 33.7979 18.6076 33.7979 12C33.7979 5.39242 28.4055 0 21.7979 0ZM21.7979 16.4051C19.3675 16.4051 17.3169 14.3544 17.3169 11.924C17.3169 9.49368 19.3675 7.44305 21.7979 7.44305C24.2283 7.44305 26.2789 9.49368 26.2789 11.924C26.2029 14.4304 24.2283 16.4051 21.7979 16.4051Z" fill="white"/>
        <path d="M9.72152 3.41797V20.8863H5.46834L0 3.41797H9.72152Z" fill="white"/>
    </g>
    <defs>
        <clipPath id="clip0_27_12579">
            <rect width="101.333" height="24" fill="white"/>
        </clipPath>
    </defs>
</svg>
