<svg width="88" height="88" viewBox="0 0 88 88" fill="none" xmlns="http://www.w3.org/2000/svg">
<path d="M84.6118 44.3452C84.6118 48.2229 84.0658 51.9732 83.0464 55.5234C82.6019 57.0717 82.0673 58.5818 81.4488 60.048M26.8132 7.76562C18.4527 11.7235 11.6658 18.4589 7.64585 26.7794M4.37646 36.6269C4.7104 34.8996 5.15429 33.2115 5.70057 31.5701" stroke="white" stroke-width="1.23684" stroke-linecap="round"/>
<ellipse cx="44" cy="44" rx="44" ry="44" fill="#314DD8"/>
<mask id="mask0_3834_176412" style="mask-type:alpha" maskUnits="userSpaceOnUse" x="0" y="-1" width="89" height="89">
<circle cx="44.2366" cy="43.8064" r="44" fill="#314DD8"/>
</mask>
<g mask="url(#mask0_3834_176412)">
<path d="M-1.31694 37.4737C-1.31665 36.1075 -0.208901 35.0002 1.15728 35.0005L8.00124 35.002L7.99722 53.6373L1.15325 53.6358C-0.212925 53.6355 -1.32019 52.5278 -1.3199 51.1616L-1.31694 37.4737Z" fill="#2E293D"/>
</g>
<ellipse cx="38.7998" cy="42.7099" rx="30.2216" ry="30.2216" fill="#00E98F"/>
<path fill-rule="evenodd" clip-rule="evenodd" d="M66.091 63.086L61.1696 52.3267L61.1838 52.2863L61.2599 52.088C61.3068 51.9663 61.353 51.8405 61.3951 51.7154L61.4583 51.5404C61.4984 51.4283 61.5344 51.3168 61.5745 51.2047L61.6499 50.9771C61.6859 50.8656 61.7218 50.7542 61.7537 50.6435C61.7816 50.5587 61.8053 50.4746 61.8291 50.3905C61.8582 50.2887 61.8915 50.1861 61.92 50.0802C61.9464 49.9872 61.9729 49.8942 61.9953 49.802C62.0183 49.7138 62.0414 49.6256 62.0637 49.5333C62.0888 49.4322 62.1173 49.3262 62.1417 49.221C62.164 49.1287 62.1871 49.0405 62.2053 48.9489C62.2304 48.8477 62.2514 48.7473 62.2724 48.6468C62.2913 48.5593 62.3103 48.4718 62.3285 48.3802C62.3515 48.2668 62.3745 48.1533 62.3975 48.0399L62.4367 47.8225C62.4618 47.6961 62.482 47.5663 62.5029 47.4405L62.5319 47.2628C62.5549 47.1241 62.5744 46.9901 62.5933 46.8521L62.6182 46.6751C62.6357 46.5289 62.6532 46.3826 62.6713 46.2405L62.6854 46.099C62.7015 45.9446 62.7182 45.7943 62.7302 45.6405L62.7402 45.4998C62.7522 45.346 62.7635 45.1882 62.7748 45.0303L62.7834 44.9067C62.794 44.7447 62.8005 44.5835 62.8063 44.4181L62.8116 44.2992C62.8167 44.1298 62.8218 43.9604 62.8228 43.7916L62.8227 43.7158C62.8257 43.534 62.8247 43.353 62.8196 43.1726L62.8181 43.1139C62.8163 42.9287 62.8112 42.7484 62.8013 42.5646L62.7991 42.5018C62.7933 42.3173 62.784 42.1377 62.77 41.9546L62.7671 41.8877C62.7524 41.7005 62.7418 41.5126 62.7229 41.3262L62.7215 41.2927C62.7013 41.098 62.6811 40.9033 62.6609 40.7087L62.6554 40.6759C62.6311 40.4819 62.6061 40.2838 62.5777 40.0906L62.5756 40.0783L62.5742 40.0701C62.5444 39.8686 62.514 39.663 62.4794 39.4581C60.2496 26.2428 47.7307 17.3385 34.5153 19.5683C21.3 21.7981 12.3957 34.3171 14.6255 47.5324C16.8553 60.7477 29.3743 69.652 42.5896 67.4222C45.5154 66.9285 48.2339 65.9304 50.6612 64.5304C50.769 64.4701 50.8721 64.4064 50.9799 64.346L51.1901 64.2178C51.2897 64.1589 51.3886 64.0958 51.4876 64.0328L51.6854 63.9067C51.7803 63.8443 51.8758 63.7861 51.9666 63.7244C52.0423 63.6737 52.118 63.623 52.1938 63.5723C52.2804 63.5113 52.3711 63.4496 52.4578 63.3886L52.6802 63.2331C52.7593 63.1776 52.8378 63.118 52.9203 63.0577C52.9988 62.9981 53.0813 62.9379 53.1598 62.8783C53.2348 62.8235 53.3092 62.7645 53.3876 62.705C53.4695 62.6406 53.5554 62.5755 53.6373 62.5111L53.8453 62.3454C53.9306 62.2762 54.0192 62.2022 54.1045 62.133C54.1638 62.0851 54.2225 62.0331 54.2811 61.981L54.3071 61.9598L66.091 63.086Z" fill="white"/>
<path d="M47.9669 36.0894C43.6719 36.1091 40.1101 39.7038 40.1298 43.9873C40.1383 45.851 40.8687 47.5623 42.0164 48.9849L35.4391 49.0151C36.568 47.5763 37.2826 45.8641 37.2741 44.0005C37.2544 39.7169 33.6655 36.1551 29.3647 36.1748C25.0812 36.1945 21.5194 39.7892 21.539 44.0727C21.5588 48.3677 25.1534 51.9295 29.437 51.9099L48.0392 51.8244C52.3285 51.8047 55.8846 48.2101 55.8648 43.9151C55.8509 39.6315 52.2562 36.0697 47.9669 36.0894ZM29.4238 49.0484C26.7058 49.0609 24.413 46.7891 24.4005 44.0653C24.3938 41.3472 26.6655 39.0545 29.3779 39.042C32.1017 39.0295 34.3945 41.3013 34.4069 44.0194C34.4252 46.7432 32.1534 49.0359 29.4238 49.0484ZM48.0261 48.963C45.308 48.9755 43.0095 46.7037 42.997 43.9799C42.9845 41.2618 45.262 38.9691 47.9801 38.9566C50.6982 38.9441 52.9967 41.2159 53.0092 43.9339C53.0274 46.6577 50.7441 48.9505 48.0261 48.963Z" fill="#243CBB"/>
<path d="M79.6044 36.4737C79.6047 35.1075 78.4975 33.9998 77.1313 33.9995L70.2873 33.998L70.2833 52.6333L77.1273 52.6348C78.4935 52.6351 79.6012 51.5278 79.6015 50.1616L79.6044 36.4737Z" fill="#2E293D"/>
<path d="M38.7025 74.3629C21.2633 74.3591 7.12907 60.2188 7.13283 42.7796C7.1366 25.3404 21.2769 11.2062 38.7161 11.2099C56.1553 11.2137 70.2895 25.354 70.2858 42.7932C70.2851 46.0366 69.7954 49.1656 68.8865 52.1106" stroke="#060C23" stroke-width="4.12281" stroke-linecap="round"/>
<ellipse cx="38.7021" cy="74.3633" rx="4.65914" ry="4.65914" fill="#2E293D"/>
<path d="M44.2354 5.17578C49.958 5.17578 55.3914 6.41393 60.2824 8.63695M64.6824 10.9903C66.1391 11.8945 67.5315 12.8925 68.8513 13.9758C69.8324 14.7811 70.7733 15.6337 71.6707 16.5299M76.5788 65.4817C72.5715 71.5029 66.9276 76.3413 60.2824 79.3617" stroke="white" stroke-width="2.47368" stroke-linecap="round"/>
</svg>
