<svg width="116" height="104" viewBox="0 0 116 104" fill="none" xmlns="http://www.w3.org/2000/svg">
<ellipse cx="44" cy="44" rx="44" ry="44" fill="#243CBB"/>
<mask id="mask0_3940_176629" style="mask-type:alpha" maskUnits="userSpaceOnUse" x="0" y="0" width="88" height="88">
<ellipse cx="44" cy="44" rx="44" ry="44" fill="#243CBB"/>
</mask>
<g mask="url(#mask0_3940_176629)">
<ellipse cx="51.797" cy="35.4137" rx="27.8473" ry="27.8473" fill="#22FFAA"/>
<path d="M59.6539 79.904H-5.49996C-8.07412 79.904 -10.1538 77.8421 -10.1538 75.2899V29.1492C-10.1538 26.5971 -8.07412 24.5352 -5.49996 24.5352H59.6539C62.228 24.5352 64.3077 26.5971 64.3077 29.1492V75.2899C64.3077 77.8421 62.228 79.904 59.6539 79.904Z" fill="#060C23"/>
<path d="M28.8224 29.1484C28.8224 29.6531 28.2988 30.0713 27.6589 30.0713C27.019 30.0713 26.4954 29.6531 26.4954 29.1484H25.332C25.332 29.6531 24.8084 30.0713 24.1685 30.0713C23.5286 30.0713 23.0051 29.6531 23.0051 29.1484C22.5833 29.1484 22.2633 29.1484 21.8416 29.1484C21.8416 29.6531 21.318 30.0713 20.6781 30.0713C20.0382 30.0713 19.5147 29.6531 19.5147 29.1484H18.3512C18.3512 29.6531 17.8276 30.0713 17.1877 30.0713C16.5478 30.0713 16.0243 29.6531 16.0243 29.1484H14.8608C14.8608 29.6531 14.3373 30.0713 13.6974 30.0713C13.0575 30.0713 12.5339 29.6531 12.5339 29.1484H11.3704C11.3704 29.6531 10.8469 30.0713 10.207 30.0713C9.56707 30.0713 9.04351 29.6531 9.04351 29.1484H7.88005C7.88005 29.6531 7.35649 30.0713 6.71659 30.0713C6.07669 30.0713 5.55313 29.6531 5.55313 29.1484H4.38967C4.38967 29.6531 3.86611 30.0713 3.22621 30.0713C2.5863 30.0713 2.06274 29.6531 2.06274 29.1484C1.64099 29.1484 1.32104 29.1484 0.899282 29.1484C0.899282 29.6531 0.375725 30.0713 -0.264179 30.0713C-0.904083 30.0713 -1.42764 29.6531 -1.42764 29.1484H-2.5911C-2.5911 29.6531 -3.11466 30.0713 -3.75456 30.0713C-4.39447 30.0713 -4.91803 29.6531 -4.91803 29.1484H-5.49976V60.0728C-3.88545 60.0728 27.8043 60.0728 29.4041 60.0728V29.1484H28.8224Z" fill="white"/>
<path d="M27.0772 48.1758H-3.17285V49.3293H27.0772V48.1758Z" fill="#F8F9FB"/>
<path d="M27.0772 45.293H-3.17285V46.4465H27.0772V45.293Z" fill="#F8F9FB"/>
<path d="M27.0772 42.4062H-3.17285V43.5598H27.0772V42.4062Z" fill="#F8F9FB"/>
<path d="M27.0772 39.5273H-3.17285V40.6809H27.0772V39.5273Z" fill="#F8F9FB"/>
<path d="M27.0772 36.6406H-3.17285V37.7941H27.0772V36.6406Z" fill="#F8F9FB"/>
<path d="M27.0772 33.7578H-3.17285V34.9113H27.0772V33.7578Z" fill="#F8F9FB"/>
<path d="M61.9811 53.6588H61.1085C60.9485 53.6588 60.8176 53.529 60.8176 53.3704C60.8176 53.2118 60.9485 53.082 61.1085 53.082H61.9811C62.1411 53.082 62.272 53.2118 62.272 53.3704C62.272 53.529 62.1411 53.6588 61.9811 53.6588Z" fill="#2E293D"/>
<path d="M57.6324 77.8862H55.8727C55.7127 77.8862 55.5818 77.7565 55.5818 77.5978C55.5818 77.4392 55.7127 77.3095 55.8727 77.3095H57.647C57.807 77.3095 57.9379 77.4392 57.9379 77.5978C57.9379 77.7565 57.7924 77.8862 57.6324 77.8862ZM54.113 77.8862H52.3678C52.2078 77.8862 52.0769 77.7565 52.0769 77.5978C52.0769 77.4392 52.2078 77.3095 52.3678 77.3095H54.113C54.2729 77.3095 54.4038 77.4392 54.4038 77.5978C54.4038 77.7565 54.2729 77.8862 54.113 77.8862ZM50.6226 77.8862H48.8774C48.7174 77.8862 48.5865 77.7565 48.5865 77.5978C48.5865 77.4392 48.7174 77.3095 48.8774 77.3095H50.6226C50.7826 77.3095 50.9135 77.4392 50.9135 77.5978C50.9135 77.7565 50.7826 77.8862 50.6226 77.8862ZM47.1177 77.8862H45.3725C45.2125 77.8862 45.0816 77.7565 45.0816 77.5978C45.0816 77.4392 45.2125 77.3095 45.3725 77.3095H47.1177C47.2776 77.3095 47.4085 77.4392 47.4085 77.5978C47.4085 77.7565 47.2776 77.8862 47.1177 77.8862ZM43.6127 77.8862H41.8675C41.7076 77.8862 41.5767 77.7565 41.5767 77.5978C41.5767 77.4392 41.7076 77.3095 41.8675 77.3095H43.6127C43.7727 77.3095 43.9036 77.4392 43.9036 77.5978C43.9036 77.7565 43.7727 77.8862 43.6127 77.8862ZM40.1224 77.8862H38.3772C38.2172 77.8862 38.0863 77.7565 38.0863 77.5978C38.0863 77.4392 38.2172 77.3095 38.3772 77.3095H40.1224C40.2823 77.3095 40.4132 77.4392 40.4132 77.5978C40.4132 77.7565 40.2823 77.8862 40.1224 77.8862ZM36.6174 77.8862H34.8722C34.7123 77.8862 34.5814 77.7565 34.5814 77.5978C34.5814 77.4392 34.7123 77.3095 34.8722 77.3095H36.6174C36.7774 77.3095 36.9083 77.4392 36.9083 77.5978C36.9083 77.7565 36.7774 77.8862 36.6174 77.8862ZM33.1125 77.8862H31.3673C31.2073 77.8862 31.0764 77.7565 31.0764 77.5978C31.0764 77.4392 31.2073 77.3095 31.3673 77.3095H33.1125C33.2725 77.3095 33.4034 77.4392 33.4034 77.5978C33.4034 77.7565 33.2725 77.8862 33.1125 77.8862ZM29.6221 77.8862H27.8769C27.7169 77.8862 27.5861 77.7565 27.5861 77.5978C27.5861 77.4392 27.7169 77.3095 27.8769 77.3095H29.6221C29.7821 77.3095 29.913 77.4392 29.913 77.5978C29.913 77.7565 29.7821 77.8862 29.6221 77.8862ZM26.1172 77.8862H24.372C24.212 77.8862 24.0811 77.7565 24.0811 77.5978C24.0811 77.4392 24.212 77.3095 24.372 77.3095H26.1172C26.2772 77.3095 26.408 77.4392 26.408 77.5978C26.408 77.7565 26.2772 77.8862 26.1172 77.8862ZM22.6123 77.8862H20.8671C20.7071 77.8862 20.5762 77.7565 20.5762 77.5978C20.5762 77.4392 20.7071 77.3095 20.8671 77.3095H22.6123C22.7722 77.3095 22.9031 77.4392 22.9031 77.5978C22.9031 77.7565 22.7722 77.8862 22.6123 77.8862ZM19.1219 77.8862H17.3767C17.2167 77.8862 17.0858 77.7565 17.0858 77.5978C17.0858 77.4392 17.2167 77.3095 17.3767 77.3095H19.1219C19.2818 77.3095 19.4127 77.4392 19.4127 77.5978C19.4127 77.7565 19.2818 77.8862 19.1219 77.8862ZM15.6169 77.8862H13.8717C13.7118 77.8862 13.5809 77.7565 13.5809 77.5978C13.5809 77.4392 13.7118 77.3095 13.8717 77.3095H15.6169C15.7769 77.3095 15.9078 77.4392 15.9078 77.5978C15.9078 77.7565 15.7769 77.8862 15.6169 77.8862ZM12.112 77.8862H10.3668C10.2068 77.8862 10.076 77.7565 10.076 77.5978C10.076 77.4392 10.2068 77.3095 10.3668 77.3095H12.112C12.272 77.3095 12.4029 77.4392 12.4029 77.5978C12.4029 77.7565 12.272 77.8862 12.112 77.8862ZM8.62163 77.8862H6.87644C6.71646 77.8862 6.58557 77.7565 6.58557 77.5978C6.58557 77.4392 6.71646 77.3095 6.87644 77.3095H8.62163C8.7816 77.3095 8.91249 77.4392 8.91249 77.5978C8.91249 77.7565 8.7816 77.8862 8.62163 77.8862ZM5.1167 77.8862H3.37151C3.21153 77.8862 3.08064 77.7565 3.08064 77.5978C3.08064 77.4392 3.21153 77.3095 3.37151 77.3095H5.1167C5.27668 77.3095 5.40757 77.4392 5.40757 77.5978C5.40757 77.7565 5.27668 77.8862 5.1167 77.8862ZM1.61177 77.8862H-0.13342C-0.293396 77.8862 -0.424286 77.7565 -0.424286 77.5978C-0.424286 77.4392 -0.293396 77.3095 -0.13342 77.3095H1.61177C1.77175 77.3095 1.90264 77.4392 1.90264 77.5978C1.90264 77.7565 1.77175 77.8862 1.61177 77.8862ZM-1.87861 77.8862H-3.46383C-3.522 77.8862 -3.58018 77.8862 -3.63835 77.8862C-3.79833 77.8862 -3.92921 77.742 -3.91467 77.5834C-3.91467 77.4248 -3.76924 77.295 -3.60926 77.3095C-3.55109 77.3095 -3.50746 77.3095 -3.44929 77.3095H-1.86407C-1.70409 77.3095 -1.5732 77.4392 -1.5732 77.5978C-1.5732 77.7565 -1.71864 77.8862 -1.87861 77.8862ZM59.334 77.5402C59.2177 77.5402 59.1159 77.4681 59.0722 77.3671C59.0141 77.2229 59.0722 77.0499 59.2177 76.9922C59.7267 76.776 60.163 76.4732 60.5556 76.0694C60.672 75.9541 60.8465 75.9541 60.9629 76.055C61.0792 76.1704 61.0792 76.3434 60.9774 76.4587C60.5411 76.9057 60.0321 77.2662 59.4504 77.5113C59.4213 77.5257 59.3776 77.5402 59.334 77.5402ZM-5.32537 77.4825C-5.369 77.4825 -5.41263 77.4681 -5.45626 77.4537C-6.02345 77.1941 -6.51792 76.8192 -6.93967 76.3578C-7.04147 76.2425 -7.04147 76.055 -6.91058 75.9541C-6.79424 75.8531 -6.60518 75.8531 -6.50337 75.9829C-6.13979 76.3866 -5.70349 76.7183 -5.20902 76.949C-5.06359 77.0211 -5.00542 77.1941 -5.06359 77.3383C-5.10722 77.4104 -5.20902 77.4825 -5.32537 77.4825ZM61.69 75.1034C61.6609 75.1034 61.6173 75.1034 61.5882 75.0889C61.4428 75.0313 61.3701 74.8727 61.4137 74.714C61.5882 74.2526 61.6755 73.7768 61.6755 73.2722V73.1135C61.6755 72.9549 61.8064 72.8252 61.9663 72.8252C62.1263 72.8252 62.2572 72.9549 62.2572 73.1135V73.2722C62.2572 73.8345 62.1554 74.3968 61.9518 74.9159C61.9227 75.0313 61.8064 75.1034 61.69 75.1034ZM-7.59412 74.9592C-7.71046 74.9592 -7.82681 74.8871 -7.87044 74.7573C-8.03042 74.2815 -8.11768 73.7768 -8.11768 73.2722V72.9549C-8.11768 72.7963 -7.98679 72.6666 -7.82681 72.6666C-7.66683 72.6666 -7.53594 72.7963 -7.53594 72.9549V73.2722C-7.53594 73.7191 -7.46323 74.1517 -7.3178 74.5843C-7.25962 74.7285 -7.34688 74.9015 -7.49232 74.9448C-7.53595 74.9592 -7.56503 74.9592 -7.59412 74.9592ZM61.9809 71.6716C61.8209 71.6716 61.69 71.5419 61.69 71.3833V69.653C61.69 69.4944 61.8209 69.3646 61.9809 69.3646C62.1409 69.3646 62.2718 69.4944 62.2718 69.653V71.3833C62.2718 71.5419 62.1409 71.6716 61.9809 71.6716ZM-7.82681 71.513C-7.98679 71.513 -8.11768 71.3833 -8.11768 71.2247V69.4944C-8.11768 69.3358 -7.98679 69.206 -7.82681 69.206C-7.66683 69.206 -7.53594 69.3358 -7.53594 69.4944V71.2247C-7.53594 71.3833 -7.66683 71.513 -7.82681 71.513ZM61.9809 68.1967C61.8209 68.1967 61.69 68.0669 61.69 67.9083V66.178C61.69 66.0194 61.8209 65.8896 61.9809 65.8896C62.1409 65.8896 62.2718 66.0194 62.2718 66.178V67.9083C62.2718 68.0669 62.1409 68.1967 61.9809 68.1967ZM-7.82681 68.0381C-7.98679 68.0381 -8.11768 67.9083 -8.11768 67.7497V66.0194C-8.11768 65.8608 -7.98679 65.731 -7.82681 65.731C-7.66683 65.731 -7.53594 65.8608 -7.53594 66.0194V67.7497C-7.53594 67.9227 -7.66683 68.0381 -7.82681 68.0381ZM61.9809 64.7217C61.8209 64.7217 61.69 64.5919 61.69 64.4333V62.703C61.69 62.5444 61.8209 62.4147 61.9809 62.4147C62.1409 62.4147 62.2718 62.5444 62.2718 62.703V64.4333C62.2718 64.5919 62.1409 64.7217 61.9809 64.7217ZM-7.82681 64.5775C-7.98679 64.5775 -8.11768 64.4477 -8.11768 64.2891V62.5589C-8.11768 62.4002 -7.98679 62.2705 -7.82681 62.2705C-7.66683 62.2705 -7.53594 62.4002 -7.53594 62.5589V64.2891C-7.53594 64.4477 -7.66683 64.5775 -7.82681 64.5775ZM61.9809 61.2612C61.8209 61.2612 61.69 61.1314 61.69 60.9728V59.2425C61.69 59.0839 61.8209 58.9541 61.9809 58.9541C62.1409 58.9541 62.2718 59.0839 62.2718 59.2425V60.9728C62.2718 61.1314 62.1409 61.2612 61.9809 61.2612ZM-7.82681 61.1025C-7.98679 61.1025 -8.11768 60.9728 -8.11768 60.8142V59.0839C-8.11768 58.9253 -7.98679 58.7955 -7.82681 58.7955C-7.66683 58.7955 -7.53594 58.9253 -7.53594 59.0839V60.8142C-7.53594 60.9728 -7.66683 61.1025 -7.82681 61.1025ZM61.9809 57.7862C61.8209 57.7862 61.69 57.6564 61.69 57.4978V55.7675C61.69 55.6089 61.8209 55.4791 61.9809 55.4791C62.1409 55.4791 62.2718 55.6089 62.2718 55.7675V57.4978C62.2718 57.6564 62.1409 57.7862 61.9809 57.7862ZM-7.82681 57.6276C-7.98679 57.6276 -8.11768 57.4978 -8.11768 57.3392V55.6089C-8.11768 55.4503 -7.98679 55.3205 -7.82681 55.3205C-7.66683 55.3205 -7.53594 55.4503 -7.53594 55.6089V57.3392C-7.53594 57.5122 -7.66683 57.6276 -7.82681 57.6276ZM61.9809 54.3112C61.8209 54.3112 61.69 54.1814 61.69 54.0228V52.2925C61.69 52.1339 61.8209 52.0042 61.9809 52.0042C62.1409 52.0042 62.2718 52.1339 62.2718 52.2925V54.0228C62.2718 54.1814 62.1409 54.3112 61.9809 54.3112ZM-7.82681 54.167C-7.98679 54.167 -8.11768 54.0372 -8.11768 53.8786V52.1484C-8.11768 51.9897 -7.98679 51.86 -7.82681 51.86C-7.66683 51.86 -7.53594 51.9897 -7.53594 52.1484V53.8786C-7.53594 54.0372 -7.66683 54.167 -7.82681 54.167ZM61.9809 50.8507C61.8209 50.8507 61.69 50.7209 61.69 50.5623V48.832C61.69 48.6734 61.8209 48.5436 61.9809 48.5436C62.1409 48.5436 62.2718 48.6734 62.2718 48.832V50.5623C62.2718 50.7209 62.1409 50.8507 61.9809 50.8507ZM-7.82681 50.692C-7.98679 50.692 -8.11768 50.5623 -8.11768 50.4037V48.6734C-8.11768 48.5148 -7.98679 48.385 -7.82681 48.385C-7.66683 48.385 -7.53594 48.5148 -7.53594 48.6734V50.4037C-7.53594 50.5623 -7.66683 50.692 -7.82681 50.692ZM61.9809 47.3757C61.8209 47.3757 61.69 47.2459 61.69 47.0873V45.357C61.69 45.1984 61.8209 45.0686 61.9809 45.0686C62.1409 45.0686 62.2718 45.1984 62.2718 45.357V47.0873C62.2718 47.2459 62.1409 47.3757 61.9809 47.3757ZM-7.82681 47.2315C-7.98679 47.2315 -8.11768 47.1017 -8.11768 46.9431V45.2128C-8.11768 45.0542 -7.98679 44.9245 -7.82681 44.9245C-7.66683 44.9245 -7.53594 45.0542 -7.53594 45.2128V46.9431C-7.53594 47.1017 -7.66683 47.2315 -7.82681 47.2315ZM61.9809 43.9007C61.8209 43.9007 61.69 43.7709 61.69 43.6123V41.8821C61.69 41.7234 61.8209 41.5937 61.9809 41.5937C62.1409 41.5937 62.2718 41.7234 62.2718 41.8821V43.6123C62.2718 43.7709 62.1409 43.9007 61.9809 43.9007ZM-7.82681 43.7565C-7.98679 43.7565 -8.11768 43.6267 -8.11768 43.4681V41.7379C-8.11768 41.5793 -7.98679 41.4495 -7.82681 41.4495C-7.66683 41.4495 -7.53594 41.5793 -7.53594 41.7379V43.4681C-7.53594 43.6267 -7.66683 43.7565 -7.82681 43.7565ZM61.9809 40.4402C61.8209 40.4402 61.69 40.3104 61.69 40.1518V38.4215C61.69 38.2629 61.8209 38.1331 61.9809 38.1331C62.1409 38.1331 62.2718 38.2629 62.2718 38.4215V40.1518C62.2718 40.3104 62.1409 40.4402 61.9809 40.4402ZM-7.82681 40.2815C-7.98679 40.2815 -8.11768 40.1518 -8.11768 39.9932V38.2629C-8.11768 38.1043 -7.98679 37.9745 -7.82681 37.9745C-7.66683 37.9745 -7.53594 38.1043 -7.53594 38.2629V39.9932C-7.53594 40.1518 -7.66683 40.2815 -7.82681 40.2815ZM61.9809 36.9652C61.8209 36.9652 61.69 36.8354 61.69 36.6768V34.9465C61.69 34.7879 61.8209 34.6581 61.9809 34.6581C62.1409 34.6581 62.2718 34.7879 62.2718 34.9465V36.6768C62.2718 36.8354 62.1409 36.9652 61.9809 36.9652ZM-7.82681 36.821C-7.98679 36.821 -8.11768 36.6912 -8.11768 36.5326V34.8023C-8.11768 34.6437 -7.98679 34.514 -7.82681 34.514C-7.66683 34.514 -7.53594 34.6437 -7.53594 34.8023V36.5326C-7.53594 36.6912 -7.66683 36.821 -7.82681 36.821ZM61.9809 33.4902C61.8209 33.4902 61.69 33.3604 61.69 33.2018V31.4716C61.69 31.3129 61.8209 31.1832 61.9809 31.1832C62.1409 31.1832 62.2718 31.3129 62.2718 31.4716V33.2018C62.2718 33.3604 62.1409 33.4902 61.9809 33.4902ZM-7.82681 33.346C-7.98679 33.346 -8.11768 33.2163 -8.11768 33.0576V31.3274C-8.11768 31.1688 -7.98679 31.039 -7.82681 31.039C-7.66683 31.039 -7.53594 31.1688 -7.53594 31.3274V33.0576C-7.53594 33.2163 -7.66683 33.346 -7.82681 33.346ZM61.7482 30.0441C61.6318 30.0441 61.5155 29.972 61.4719 29.8422C61.2973 29.3231 61.021 28.8617 60.6429 28.458C60.5411 28.3426 60.5411 28.1552 60.6574 28.0543C60.7738 27.9533 60.9629 27.9533 61.0647 28.0687C61.4864 28.5301 61.8064 29.0636 62.01 29.6548C62.0681 29.799 61.9809 29.972 61.8354 30.0152C61.8064 30.0441 61.7773 30.0441 61.7482 30.0441ZM-7.53594 29.9143C-7.56503 29.9143 -7.60866 29.9143 -7.63775 29.8999C-7.78318 29.8422 -7.8559 29.6692 -7.81227 29.525C-7.59412 28.9482 -7.25962 28.4292 -6.82332 27.9677C-6.70698 27.8524 -6.53246 27.8524 -6.41611 27.9533C-6.29977 28.0687 -6.29977 28.2417 -6.40157 28.3571C-6.7797 28.7464 -7.07056 29.2078 -7.27417 29.7124C-7.3178 29.8422 -7.4196 29.9143 -7.53594 29.9143ZM59.4649 27.5352C59.4213 27.5352 59.3776 27.5208 59.3485 27.5063C58.8541 27.2756 58.316 27.1459 57.7779 27.1314C57.6179 27.1314 57.487 26.9873 57.5016 26.8286C57.5016 26.67 57.647 26.5547 57.807 26.5547C58.4323 26.5835 59.0431 26.7277 59.6103 26.9873C59.7558 27.0594 59.8139 27.2324 59.7558 27.3766C59.6831 27.4775 59.5812 27.5352 59.4649 27.5352ZM-5.17994 27.4775C-5.29628 27.4775 -5.39808 27.4054 -5.44171 27.3045C-5.49989 27.1603 -5.44171 26.9873 -5.28174 26.9296C-4.70001 26.6845 -4.08919 26.5691 -3.46383 26.5547C-3.30385 26.5547 -3.17296 26.6845 -3.17296 26.8431C-3.17296 27.0017 -3.30385 27.1314 -3.46383 27.1314C-4.01647 27.1314 -4.55457 27.2468 -5.04905 27.4487C-5.09268 27.4631 -5.13631 27.4775 -5.17994 27.4775ZM56.0327 27.1314H54.2875C54.1275 27.1314 53.9966 27.0017 53.9966 26.8431C53.9966 26.6845 54.1275 26.5547 54.2875 26.5547H56.0327C56.1927 26.5547 56.3236 26.6845 56.3236 26.8431C56.3236 27.0017 56.1927 27.1314 56.0327 27.1314ZM52.5278 27.1314H50.7826C50.6226 27.1314 50.4917 27.0017 50.4917 26.8431C50.4917 26.6845 50.6226 26.5547 50.7826 26.5547H52.5278C52.6877 26.5547 52.8186 26.6845 52.8186 26.8431C52.8186 27.0017 52.6877 27.1314 52.5278 27.1314ZM49.0228 27.1314H47.2776C47.1177 27.1314 46.9868 27.0017 46.9868 26.8431C46.9868 26.6845 47.1177 26.5547 47.2776 26.5547H49.0228C49.1828 26.5547 49.3137 26.6845 49.3137 26.8431C49.3137 27.0017 49.1828 27.1314 49.0228 27.1314ZM45.5324 27.1314H43.7873C43.6273 27.1314 43.4964 27.0017 43.4964 26.8431C43.4964 26.6845 43.6273 26.5547 43.7873 26.5547H45.5324C45.6924 26.5547 45.8233 26.6845 45.8233 26.8431C45.8233 27.0017 45.6924 27.1314 45.5324 27.1314ZM42.0275 27.1314H40.2823C40.1223 27.1314 39.9915 27.0017 39.9915 26.8431C39.9915 26.6845 40.1223 26.5547 40.2823 26.5547H42.0275C42.1875 26.5547 42.3184 26.6845 42.3184 26.8431C42.3184 27.0017 42.1875 27.1314 42.0275 27.1314ZM38.5226 27.1314H36.7774C36.6174 27.1314 36.4865 27.0017 36.4865 26.8431C36.4865 26.6845 36.6174 26.5547 36.7774 26.5547H38.5226C38.6826 26.5547 38.8135 26.6845 38.8135 26.8431C38.8135 27.0017 38.6826 27.1314 38.5226 27.1314ZM35.0322 27.1314H33.287C33.127 27.1314 32.9962 27.0017 32.9962 26.8431C32.9962 26.6845 33.127 26.5547 33.287 26.5547H35.0322C35.1922 26.5547 35.3231 26.6845 35.3231 26.8431C35.3231 27.0017 35.1922 27.1314 35.0322 27.1314ZM31.5273 27.1314H29.7821C29.6221 27.1314 29.4912 27.0017 29.4912 26.8431C29.4912 26.6845 29.6221 26.5547 29.7821 26.5547H31.5273C31.6873 26.5547 31.8181 26.6845 31.8181 26.8431C31.8181 27.0017 31.6873 27.1314 31.5273 27.1314ZM28.0224 27.1314H26.2772C26.1172 27.1314 25.9863 27.0017 25.9863 26.8431C25.9863 26.6845 26.1172 26.5547 26.2772 26.5547H28.0224C28.1823 26.5547 28.3132 26.6845 28.3132 26.8431C28.3132 27.0017 28.1823 27.1314 28.0224 27.1314ZM24.532 27.1314H22.7868C22.6268 27.1314 22.4959 27.0017 22.4959 26.8431C22.4959 26.6845 22.6268 26.5547 22.7868 26.5547H24.532C24.6919 26.5547 24.8228 26.6845 24.8228 26.8431C24.8228 27.0017 24.6919 27.1314 24.532 27.1314ZM21.027 27.1314H19.2818C19.1219 27.1314 18.991 27.0017 18.991 26.8431C18.991 26.6845 19.1219 26.5547 19.2818 26.5547H21.027C21.187 26.5547 21.3179 26.6845 21.3179 26.8431C21.3179 27.0017 21.187 27.1314 21.027 27.1314ZM17.5221 27.1314H15.7769C15.6169 27.1314 15.4861 27.0017 15.4861 26.8431C15.4861 26.6845 15.6169 26.5547 15.7769 26.5547H17.5221C17.6821 26.5547 17.813 26.6845 17.813 26.8431C17.813 27.0017 17.6821 27.1314 17.5221 27.1314ZM14.0317 27.1314H12.2865C12.1266 27.1314 11.9957 27.0017 11.9957 26.8431C11.9957 26.6845 12.1266 26.5547 12.2865 26.5547H14.0317C14.1917 26.5547 14.3226 26.6845 14.3226 26.8431C14.3226 27.0017 14.1917 27.1314 14.0317 27.1314ZM10.5268 27.1314H8.7816C8.62163 27.1314 8.49074 27.0017 8.49074 26.8431C8.49074 26.6845 8.62163 26.5547 8.7816 26.5547H10.5268C10.6868 26.5547 10.8177 26.6845 10.8177 26.8431C10.8177 27.0017 10.6868 27.1314 10.5268 27.1314ZM7.02187 27.1314H5.27668C5.1167 27.1314 4.98581 27.0017 4.98581 26.8431C4.98581 26.6845 5.1167 26.5547 5.27668 26.5547H7.02187C7.18184 26.5547 7.31273 26.6845 7.31273 26.8431C7.31273 27.0017 7.18184 27.1314 7.02187 27.1314ZM3.53148 27.1314H1.77175C1.61177 27.1314 1.48088 27.0017 1.48088 26.8431C1.48088 26.6845 1.61177 26.5547 1.77175 26.5547H3.51694C3.67692 26.5547 3.80781 26.6845 3.80781 26.8431C3.80781 27.0017 3.69146 27.1314 3.53148 27.1314ZM0.0265551 27.1314H-1.71864C-1.87861 27.1314 -2.0095 27.0017 -2.0095 26.8431C-2.0095 26.6845 -1.87861 26.5547 -1.71864 26.5547H0.0265551C0.186531 26.5547 0.317421 26.6845 0.317421 26.8431C0.317421 27.0017 0.186531 27.1314 0.0265551 27.1314Z" fill="#2E293D"/>
<path d="M45.2804 44.8462C51.6436 44.8462 56.8019 39.7319 56.8019 33.4231C56.8019 27.1143 51.6436 22 45.2804 22C38.9172 22 33.7588 27.1143 33.7588 33.4231C33.7588 39.7319 38.9172 44.8462 45.2804 44.8462Z" fill="#243CBB"/>
<path d="M45.281 42.9448C50.5837 42.9448 54.8823 38.6828 54.8823 33.4255C54.8823 28.1682 50.5837 23.9062 45.281 23.9062C39.9783 23.9062 35.6797 28.1682 35.6797 33.4255C35.6797 38.6828 39.9783 42.9448 45.281 42.9448Z" fill="#435CDB"/>
<path d="M44.5604 40.0887V38.518C43.5282 38.4942 42.4961 38.1848 41.896 37.8041L42.3281 36.281C42.9761 36.6617 43.8883 36.9949 44.8964 36.9949C45.9285 36.9949 46.6487 36.4952 46.6487 35.7098C46.6487 34.9721 46.0726 34.4961 44.8484 34.0677C43.1202 33.449 42.016 32.6637 42.016 31.1406C42.016 29.7365 43.0001 28.6656 44.6564 28.38V26.7617H46.0006V28.2848C47.0327 28.3086 47.7528 28.5704 48.2569 28.8322L47.8248 30.3314C47.4408 30.1411 46.6967 29.7841 45.5925 29.7841C44.4403 29.7841 44.0323 30.379 44.0323 30.9264C44.0323 31.5927 44.6324 31.9735 46.0246 32.5209C47.8728 33.211 48.6889 34.0915 48.6889 35.5432C48.6889 36.9235 47.7288 38.161 45.9045 38.4466V40.0887H44.5604Z" fill="#243CBB"/>
<path d="M61.4371 18.6133C67.5646 18.6133 72.5319 13.6884 72.5319 7.61328C72.5319 1.53815 67.5646 -3.38672 61.4371 -3.38672C55.3096 -3.38672 50.3423 1.53815 50.3423 7.61328C50.3423 13.6884 55.3096 18.6133 61.4371 18.6133Z" fill="#F8F9FB"/>
<path d="M61.4376 16.7826C66.5438 16.7826 70.6833 12.6785 70.6833 7.61589C70.6833 2.55328 66.5438 -1.55078 61.4376 -1.55078C56.3313 -1.55078 52.1919 2.55328 52.1919 7.61589C52.1919 12.6785 56.3313 16.7826 61.4376 16.7826Z" fill="#D7DEEA"/>
<path d="M60.7437 14.0326V12.5201C59.7497 12.4971 58.7558 12.1992 58.178 11.8326L58.594 10.3659C59.2181 10.7326 60.0965 11.0534 61.0673 11.0534C62.0612 11.0534 62.7546 10.5721 62.7546 9.81589C62.7546 9.10547 62.1999 8.64714 61.021 8.23464C59.3568 7.6388 58.2935 6.88255 58.2935 5.41589C58.2935 4.0638 59.2412 3.03255 60.8361 2.75755V1.19922H62.1305V2.66589C63.1244 2.6888 63.8179 2.94089 64.3033 3.19297L63.8872 4.63672C63.5174 4.45339 62.8008 4.10964 61.7376 4.10964C60.6281 4.10964 60.2351 4.68255 60.2351 5.20964C60.2351 5.8513 60.813 6.21797 62.1536 6.74505C63.9334 7.40964 64.7193 8.25755 64.7193 9.65547C64.7193 10.9846 63.7947 12.1763 62.0381 12.4513V14.0326H60.7437Z" fill="#F8F9FB"/>
<path d="M59.6533 43.7641C59.6533 42.4952 58.6062 41.457 57.3264 41.457C55.8429 41.457 6.90485 41.457 6.13405 41.457C4.85424 41.457 3.80713 42.4952 3.80713 43.7641V70.9856C3.80713 72.2545 4.85424 73.2927 6.13405 73.2927C7.02119 73.2927 55.8866 73.2927 57.3264 73.2927C58.6062 73.2927 59.6533 72.2545 59.6533 70.9856V43.7641Z" fill="#22FFAA"/>
<path d="M53.5456 69.9055C55.4732 69.9055 57.0359 68.3561 57.0359 66.4449C57.0359 64.5337 55.4732 62.9844 53.5456 62.9844C51.6179 62.9844 50.0552 64.5337 50.0552 66.4449C50.0552 68.3561 51.6179 69.9055 53.5456 69.9055Z" fill="#24B3C9"/>
<path d="M51.086 69.1981C52.6195 67.6778 52.6195 65.2128 51.086 63.6925C49.5526 62.1722 47.0664 62.1722 45.5329 63.6925C43.9995 65.2128 43.9995 67.6778 45.5329 69.1981C47.0664 70.7185 49.5526 70.7185 51.086 69.1981Z" fill="#0399AF"/>
<path d="M51.1389 68.47C52.266 66.9197 51.9121 64.7569 50.3484 63.6394C48.7846 62.522 46.6032 62.8729 45.4761 64.4233C44.349 65.9736 44.703 68.1364 46.2667 69.2539C47.8304 70.3713 50.0118 70.0204 51.1389 68.47Z" fill="#008096"/>
<path d="M42.0559 59.2354H33.6208C33.3008 59.2354 33.0391 58.9758 33.0391 58.6586V56.9283C33.0391 56.6111 33.3008 56.3516 33.6208 56.3516H42.0559C42.3758 56.3516 42.6376 56.6111 42.6376 56.9283V58.6586C42.6376 58.9758 42.3758 59.2354 42.0559 59.2354Z" fill="#24B3C9"/>
<path d="M54.2722 59.2354H45.8371C45.5171 59.2354 45.2554 58.9758 45.2554 58.6586V56.9283C45.2554 56.6111 45.5171 56.3516 45.8371 56.3516H54.2722C54.5921 56.3516 54.8539 56.6111 54.8539 56.9283V58.6586C54.8539 58.9758 54.5921 59.2354 54.2722 59.2354Z" fill="#24B3C9"/>
<path d="M29.8398 59.2354H21.4047C21.0848 59.2354 20.823 58.9758 20.823 58.6586V56.9283C20.823 56.6111 21.0848 56.3516 21.4047 56.3516H29.8398C30.1598 56.3516 30.4216 56.6111 30.4216 56.9283V58.6586C30.4216 58.9758 30.1598 59.2354 29.8398 59.2354Z" fill="#24B3C9"/>
<path d="M17.6233 59.2354H9.18818C8.86822 59.2354 8.60645 58.9758 8.60645 58.6586V56.9283C8.60645 56.6111 8.86822 56.3516 9.18818 56.3516H17.6233C17.9432 56.3516 18.205 56.6111 18.205 56.9283V58.6586C18.205 58.9758 17.9432 59.2354 17.6233 59.2354Z" fill="#24B3C9"/>
<path d="M18.3504 56.8463H10.2062C9.56628 56.8463 9.04272 56.3272 9.04272 55.6928V49.9973C9.04272 49.3628 9.56628 48.8438 10.2062 48.8438H18.3504C18.9903 48.8438 19.5139 49.3628 19.5139 49.9973V55.6928C19.5139 56.3272 18.9903 56.8463 18.3504 56.8463Z" fill="#00E98F"/>
<path d="M61.7693 54.1484H-3.38452V75.3023H61.7693V54.1484Z" fill="#060C23"/>
<path d="M59.3635 57.2682H57.6183C57.4583 57.2682 57.3274 57.1384 57.3274 56.9798C57.3274 56.8212 57.4583 56.6914 57.6183 56.6914H59.3635C59.5235 56.6914 59.6543 56.8212 59.6543 56.9798C59.6543 57.1384 59.5235 57.2682 59.3635 57.2682ZM55.8731 57.2682H54.1279C53.9679 57.2682 53.837 57.1384 53.837 56.9798C53.837 56.8212 53.9679 56.6914 54.1279 56.6914H55.8731C56.0331 56.6914 56.164 56.8212 56.164 56.9798C56.164 57.1384 56.0331 57.2682 55.8731 57.2682ZM52.3827 57.2682H50.6375C50.4775 57.2682 50.3466 57.1384 50.3466 56.9798C50.3466 56.8212 50.4775 56.6914 50.6375 56.6914H52.3827C52.5427 56.6914 52.6736 56.8212 52.6736 56.9798C52.6736 57.1384 52.5427 57.2682 52.3827 57.2682ZM48.8923 57.2682H47.1471C46.9872 57.2682 46.8563 57.1384 46.8563 56.9798C46.8563 56.8212 46.9872 56.6914 47.1471 56.6914H48.8923C49.0523 56.6914 49.1832 56.8212 49.1832 56.9798C49.1832 57.1384 49.0523 57.2682 48.8923 57.2682ZM45.4019 57.2682H43.6567C43.4968 57.2682 43.3659 57.1384 43.3659 56.9798C43.3659 56.8212 43.4968 56.6914 43.6567 56.6914H45.4019C45.5619 56.6914 45.6928 56.8212 45.6928 56.9798C45.6928 57.1384 45.5619 57.2682 45.4019 57.2682ZM41.9116 57.2682H40.1664C40.0064 57.2682 39.8755 57.1384 39.8755 56.9798C39.8755 56.8212 40.0064 56.6914 40.1664 56.6914H41.9116C42.0715 56.6914 42.2024 56.8212 42.2024 56.9798C42.2024 57.1384 42.0715 57.2682 41.9116 57.2682ZM38.4212 57.2682H36.676C36.516 57.2682 36.3851 57.1384 36.3851 56.9798C36.3851 56.8212 36.516 56.6914 36.676 56.6914H38.4212C38.5811 56.6914 38.712 56.8212 38.712 56.9798C38.712 57.1384 38.5811 57.2682 38.4212 57.2682ZM34.9308 57.2682H33.1856C33.0256 57.2682 32.8947 57.1384 32.8947 56.9798C32.8947 56.8212 33.0256 56.6914 33.1856 56.6914H34.9308C35.0908 56.6914 35.2216 56.8212 35.2216 56.9798C35.2216 57.1384 35.0908 57.2682 34.9308 57.2682ZM31.4404 57.2682H29.6952C29.5352 57.2682 29.4043 57.1384 29.4043 56.9798C29.4043 56.8212 29.5352 56.6914 29.6952 56.6914H31.4404C31.6004 56.6914 31.7313 56.8212 31.7313 56.9798C31.7313 57.1384 31.6004 57.2682 31.4404 57.2682ZM27.95 57.2682H26.2048C26.0448 57.2682 25.914 57.1384 25.914 56.9798C25.914 56.8212 26.0448 56.6914 26.2048 56.6914H27.95C28.11 56.6914 28.2409 56.8212 28.2409 56.9798C28.2409 57.1384 28.11 57.2682 27.95 57.2682ZM24.4596 57.2682H22.7144C22.5545 57.2682 22.4236 57.1384 22.4236 56.9798C22.4236 56.8212 22.5545 56.6914 22.7144 56.6914H24.4596C24.6196 56.6914 24.7505 56.8212 24.7505 56.9798C24.7505 57.1384 24.6196 57.2682 24.4596 57.2682ZM20.9692 57.2682H19.224C19.0641 57.2682 18.9332 57.1384 18.9332 56.9798C18.9332 56.8212 19.0641 56.6914 19.224 56.6914H20.9692C21.1292 56.6914 21.2601 56.8212 21.2601 56.9798C21.2601 57.1384 21.1292 57.2682 20.9692 57.2682ZM17.4789 57.2682H15.7337C15.5737 57.2682 15.4428 57.1384 15.4428 56.9798C15.4428 56.8212 15.5737 56.6914 15.7337 56.6914H17.4789C17.6388 56.6914 17.7697 56.8212 17.7697 56.9798C17.7697 57.1384 17.6388 57.2682 17.4789 57.2682ZM13.9885 57.2682H12.2433C12.0833 57.2682 11.9524 57.1384 11.9524 56.9798C11.9524 56.8212 12.0833 56.6914 12.2433 56.6914H13.9885C14.1484 56.6914 14.2793 56.8212 14.2793 56.9798C14.2793 57.1384 14.1484 57.2682 13.9885 57.2682ZM10.4981 57.2682H8.75289C8.59292 57.2682 8.46203 57.1384 8.46203 56.9798C8.46203 56.8212 8.59292 56.6914 8.75289 56.6914H10.4981C10.6581 56.6914 10.789 56.8212 10.789 56.9798C10.789 57.1384 10.6581 57.2682 10.4981 57.2682ZM7.0077 57.2682H5.26251C5.10253 57.2682 4.97164 57.1384 4.97164 56.9798C4.97164 56.8212 5.10253 56.6914 5.26251 56.6914H7.0077C7.16768 56.6914 7.29857 56.8212 7.29857 56.9798C7.29857 57.1384 7.16768 57.2682 7.0077 57.2682ZM3.51732 57.2682H1.77212C1.61215 57.2682 1.48126 57.1384 1.48126 56.9798C1.48126 56.8212 1.61215 56.6914 1.77212 56.6914H3.51732C3.67729 56.6914 3.80818 56.8212 3.80818 56.9798C3.80818 57.1384 3.67729 57.2682 3.51732 57.2682ZM0.0269313 57.2682H-1.71826C-1.87824 57.2682 -2.00913 57.1384 -2.00913 56.9798C-2.00913 56.8212 -1.87824 56.6914 -1.71826 56.6914H0.0269313C0.186907 56.6914 0.317797 56.8212 0.317797 56.9798C0.317797 57.1384 0.186907 57.2682 0.0269313 57.2682ZM-3.46345 57.2682H-5.20865C-5.36862 57.2682 -5.49951 57.1384 -5.49951 56.9798C-5.49951 56.8212 -5.36862 56.6914 -5.20865 56.6914H-3.46345C-3.30348 56.6914 -3.17259 56.8212 -3.17259 56.9798C-3.17259 57.1384 -3.30348 57.2682 -3.46345 57.2682Z" fill="#2E293D"/>
</g>
<path d="M98.7026 102.254C106.136 95.4696 111.691 86.6624 114.497 76.7031" stroke="white" stroke-width="2.37838" stroke-linecap="round"/>
<path d="M11.8459 20.875C15.1004 16.1679 19.2088 12.4027 23.8188 9.64389M28.2568 7.363C29.829 6.67904 31.4418 6.10126 33.0833 5.63179C34.3038 5.28277 35.5401 4.99361 36.7876 4.7652" stroke="white" stroke-width="2.47368" stroke-linecap="round"/>
</svg>
