<svg width="88" height="88" viewBox="0 0 88 88" fill="none" xmlns="http://www.w3.org/2000/svg">
<ellipse cx="44" cy="44" rx="44" ry="44" fill="#22FFAA"/>
<circle cx="42.3054" cy="41.3193" r="30.2216" fill="#00E98F"/>
<mask id="mask0_3940_176720" style="mask-type:alpha" maskUnits="userSpaceOnUse" x="0" y="0" width="89" height="88">
<ellipse cx="44.2361" cy="44" rx="44" ry="44" fill="#314DD8"/>
</mask>
<g mask="url(#mask0_3940_176720)">
<path d="M15.8114 35.3906H12.4973C10.7044 35.3906 9.26465 36.8439 9.26465 38.6232C9.26465 38.7047 9.26465 85.4419 9.26465 85.5234C9.26465 87.3027 10.7044 88.7424 12.4973 88.7424H15.825V35.3906H15.8114Z" fill="#060C23"/>
<path d="M34.433 35.3906H15.0781C13.2852 35.3906 11.8455 36.8439 11.8455 38.6232C11.8455 38.7047 11.8455 85.4419 11.8455 85.5234C11.8455 87.3027 13.2852 88.756 15.0781 88.756H34.433C36.2123 88.756 37.6657 87.3162 37.6657 85.5234C37.6657 85.4419 37.6657 56.0223 37.6657 56.0223C37.6657 56.0223 37.6657 38.7047 37.6657 38.6368C37.6657 36.8439 36.2123 35.3906 34.433 35.3906Z" fill="#0C1A45"/>
<path d="M36.1577 41.5859H13.3528V83.5063H36.1577V41.5859Z" fill="#85FFD0"/>
<path d="M24.7483 87.6695C25.8209 87.6695 26.6905 86.7999 26.6905 85.7273C26.6905 84.6547 25.8209 83.7852 24.7483 83.7852C23.6757 83.7852 22.8062 84.6547 22.8062 85.7273C22.8062 86.7999 23.6757 87.6695 24.7483 87.6695Z" fill="#635245"/>
<path d="M67.8739 15.7358L57.613 14.7395L52.938 22.6766L49.43 49.3507C49.2727 50.5486 50.1639 51.6326 51.4215 51.7474C51.4643 51.751 51.5071 51.7547 51.5499 51.7583L64.2995 52.9907C65.5603 53.1187 66.7166 52.238 66.8707 51.0268L70.3787 24.3528L67.8739 15.7358Z" fill="#243CBB"/>
<path d="M56.6221 14.6825L68.8285 15.8647L69.1357 13.5544L56.9293 12.3722L56.6221 14.6825Z" fill="#060C23"/>
<path d="M56.4714 38.5337L49.9844 38.6455L50.3181 20.2388L53.5502 16.7681L56.7913 20.2171L56.4714 38.5337Z" fill="#E4E9F1"/>
<path d="M43.7942 16.9207L40.5791 20.4002L40.2454 38.8068L49.9844 38.6436L50.3181 20.2369L53.5503 16.7662L43.7942 16.9207Z" fill="white"/>
<path d="M53.495 16.7713L43.7941 16.922L43.8444 13.8082L53.5412 13.6445L53.495 16.7713Z" fill="#D7DEEA"/>
<path d="M53.55 16.7675L43.7938 16.922L40.5788 20.4015L50.3178 20.2383L53.55 16.7675Z" fill="#F2F4F8"/>
<path d="M45.4136 25.9151C45.4355 25.4386 45.7001 25.0066 46.1107 24.7401L46.2094 21.8773L33.9 21.3339C33.594 21.695 33.1056 21.9195 32.5476 21.8883C32.0059 21.8589 31.525 21.5887 31.2547 21.2106L29.3813 21.1268L29.1438 27.7728C29.5833 27.9721 29.8825 28.3865 29.8624 28.8467C29.8424 29.307 29.5165 29.6988 29.0682 29.8619L29.0269 31.0795L45.8551 31.83L46.032 27.1427C45.62 26.8474 45.3899 26.4079 45.4136 25.9151Z" fill="#435CDB"/>
<path d="M45.4086 25.9634C45.4305 25.4868 45.6951 25.0548 46.1058 24.7883L46.2101 21.8764L37.8281 21.5049L37.4574 31.4563L45.8394 31.8278L46.0107 27.1891C45.6313 26.8976 45.3849 26.4562 45.4086 25.9634Z" fill="#243CBB"/>
<path d="M34.0148 26.0709C34.7983 26.1612 35.5066 25.5993 35.5969 24.8159C35.6872 24.0324 35.1253 23.3241 34.3419 23.2338C33.5584 23.1435 32.8501 23.7054 32.7598 24.4888C32.6695 25.2723 33.2314 25.9806 34.0148 26.0709Z" fill="#243CBB"/>
<path d="M74.3635 29.625H59.7217V79.3639H74.3635V29.625Z" fill="#060C23"/>
<path d="M59.7214 29.625H23.1304V79.3639H59.7214V29.625Z" fill="#2E293D"/>
<path d="M74.3634 29.625H67.0425V79.3639H74.3634V29.625Z" fill="#252130"/>
<path d="M67.0426 72.9922L59.7217 79.3624H74.35V79.145L67.0426 72.9922Z" fill="#252130"/>
<path d="M13.1628 72.7442H25.6722V58.5234H13.1492" fill="#243CBB"/>
<path d="M49.0067 72.0504C49.7401 72.0504 50.3378 71.3441 50.3378 70.4749C50.3378 69.6056 49.7401 68.94 49.0067 68.94C49.0067 68.94 41.9031 68.94 42.0796 68.94C42.1883 68.94 49.224 68.94 49.224 68.94H51.7503C52.4838 68.94 53.0814 68.2338 53.0814 67.3645C53.0814 66.4952 52.4838 65.7889 51.7503 65.7889C51.7503 65.7889 41.8623 65.7753 42.0525 65.7753C42.1611 65.7753 42.3241 65.7753 42.3241 65.7753H43.207H49.1968H53.0542C53.7877 65.7753 54.3853 65.069 54.3853 64.1998C54.3853 63.3305 53.7877 62.6242 53.0542 62.6242C53.0542 62.6242 41.8216 62.597 41.9981 62.597C42.1068 62.597 42.2698 62.597 42.2698 62.597H43.1527H49.1425H51.6417C52.3751 62.597 52.9727 61.8908 52.9727 61.0215C52.9727 60.1522 52.3751 59.4459 51.6417 59.4459H49.1153H36.1849L41.5907 54.0537C42.1068 53.4425 42.1068 52.4374 41.5907 51.8262C41.0745 51.215 40.1238 51.3644 39.7027 51.8262L37.1492 53.6462L28.959 59.4188C28.959 59.4188 27.6415 60.5597 27.1526 61.7821H25.6138L25.6409 70.7058H27.3291C27.56 71.1947 27.8996 71.5614 28.3614 71.7244C29.5838 72.1183 49.0067 72.0504 49.0067 72.0504Z" fill="white"/>
</g>
<path d="M30.5557 7.84766C25.2015 9.86802 20.5551 12.9447 16.7639 16.7513M13.4781 20.5065C12.4344 21.8668 11.484 23.2921 10.6317 24.7716C9.99811 25.8715 9.41872 27.0013 8.8956 28.1566" stroke="white" stroke-width="2.47368" stroke-linecap="round"/>
<path d="M83.1633 43.6404C83.3899 50.8697 81.5972 58.0842 77.9345 64.3982" stroke="white" stroke-width="2.47368" stroke-linecap="round"/>
</svg>
