<svg width="80" height="80" viewBox="0 0 80 80" fill="none" xmlns="http://www.w3.org/2000/svg">
<rect width="80" height="80" rx="40" transform="matrix(-1 0 0 1 80 0)" fill="#D8E8F3"/>
<g clip-path="url(#clip0_1879_334710)">
<path fill-rule="evenodd" clip-rule="evenodd" d="M39.9226 38.3706C40.7517 28.087 49.36 20 59.8571 20C59.8571 30.4485 51.8449 39.0256 41.6294 39.9226C51.913 40.7516 60 49.36 60 59.8572C49.5515 59.8572 40.9744 51.845 40.0774 41.6294C39.2484 51.913 30.64 60 20.1428 60C20.1428 49.5516 28.155 40.9744 38.3706 40.0774C28.087 39.2483 20 30.64 20 20.1429C30.4484 20.1429 39.0256 28.1551 39.9226 38.3706ZM40.0005 40.0004C40.0002 40.0004 39.9998 40.0006 39.9996 40.0006L39.9994 39.9995C39.9998 39.9995 40.0002 39.9995 40.0005 39.9995C40.0005 39.9998 40.0005 40.0002 40.0005 40.0004Z" fill="#222A54"/>
</g>
<defs>
<clipPath id="clip0_1879_334710">
<rect width="40" height="40" fill="white" transform="matrix(-1 0 0 1 60 20)"/>
</clipPath>
</defs>
</svg>
