<svg width="36" height="36" viewBox="0 0 36 36" fill="none" xmlns="http://www.w3.org/2000/svg">
<circle cx="18" cy="18" r="18" fill="#F2F4F8"/>
<path d="M24.6668 25.5V23.8333C24.6668 22.9493 24.3156 22.1014 23.6905 21.4763C23.0654 20.8512 22.2176 20.5 21.3335 20.5H14.6668C13.7828 20.5 12.9349 20.8512 12.3098 21.4763C11.6847 22.1014 11.3335 22.9493 11.3335 23.8333V25.5" stroke="#A6B3C9" stroke-width="2" stroke-linecap="round" stroke-linejoin="round"/>
<path d="M17.9998 17.1667C19.8408 17.1667 21.3332 15.6743 21.3332 13.8333C21.3332 11.9924 19.8408 10.5 17.9998 10.5C16.1589 10.5 14.6665 11.9924 14.6665 13.8333C14.6665 15.6743 16.1589 17.1667 17.9998 17.1667Z" stroke="#A6B3C9" stroke-width="2" stroke-linecap="round" stroke-linejoin="round"/>
</svg>
