<svg width="24" height="24" viewBox="0 0 24 24" fill="none" xmlns="http://www.w3.org/2000/svg">
<g clip-path="url(#clip0_805_1198)">
<path d="M13.7185 9.76986C12.3004 8.913 10.4562 9.36795 9.59934 10.786C8.74248 12.2041 9.19743 14.0483 10.6155 14.9052" stroke="#060C23" stroke-width="2" stroke-linecap="round" stroke-linejoin="round"/>
<path d="M8.2893 21.2867C7.84287 21.1045 7.48707 20.7525 7.30018 20.308C7.11329 19.8636 7.11063 19.3631 7.29276 18.9166L7.32374 18.8407C7.43098 18.5595 7.45117 18.2526 7.38168 17.9598C7.31219 17.667 7.15623 17.4019 6.93408 17.1988C6.7259 16.9831 6.45785 16.8347 6.16451 16.7728C5.87117 16.7109 5.566 16.7383 5.28838 16.8514L5.21761 16.882C4.88583 17.0222 4.51987 17.0608 4.16616 16.9927C3.81244 16.9246 3.48692 16.753 3.2309 16.4996C2.97487 16.2463 2.79988 15.9226 2.72814 15.5696C2.65639 15.2166 2.69112 14.8502 2.82791 14.517C2.91815 14.2959 3.05108 14.0946 3.21911 13.9249C3.38715 13.7551 3.58699 13.6201 3.80721 13.5276L3.87799 13.4971C4.15285 13.3779 4.38572 13.1791 4.54659 12.9264C4.70746 12.6736 4.78895 12.3785 4.78057 12.079C4.77563 11.7865 4.68529 11.5019 4.52066 11.2601C4.35603 11.0183 4.12429 10.8299 3.85398 10.7181L3.71046 10.6596C3.26403 10.4775 2.90823 10.1254 2.72134 9.68096C2.53445 9.23649 2.53178 8.73598 2.71392 8.28954C2.89606 7.8431 3.24809 7.4873 3.69256 7.30042C4.13703 7.11353 4.63754 7.11086 5.08398 7.293L5.1599 7.32398C5.44108 7.43122 5.74801 7.4514 6.04081 7.38191C6.33362 7.31242 6.59874 7.15647 6.80175 6.93432C7.01749 6.72614 7.1659 6.45808 7.22782 6.16474C7.28975 5.8714 7.26235 5.56624 7.14916 5.28862L7.11863 5.21784C7.02597 4.99757 6.97759 4.7612 6.97627 4.52224C6.97495 4.28327 7.02071 4.04638 7.11094 3.8251C7.20117 3.60381 7.3341 3.40247 7.50214 3.23256C7.67019 3.06265 7.87005 2.9275 8.09032 2.83484C8.31059 2.74217 8.54696 2.69379 8.78593 2.69247C9.0249 2.69115 9.26179 2.73691 9.48307 2.82714C9.70435 2.91737 9.9057 3.0503 10.0756 3.21835C10.2455 3.38639 10.3807 3.58625 10.4733 3.80652L10.5029 3.87692C10.6221 4.15201 10.821 4.38506 11.074 4.54601C11.3269 4.70696 11.6223 4.78842 11.922 4.77988L11.9896 4.80745C12.2819 4.80231 12.5664 4.71182 12.808 4.54714C13.0496 4.38245 13.2378 4.15073 13.3495 3.88049L13.408 3.73697C13.5902 3.29053 13.9422 2.93474 14.3867 2.74785C14.8312 2.56096 15.3317 2.55829 15.7781 2.74043C16.2245 2.92257 16.5803 3.2746 16.7672 3.71907C16.9541 4.16354 16.9568 4.66405 16.7746 5.11049L16.7433 5.18734C16.6337 5.45876 16.606 5.75633 16.6635 6.04333C16.7211 6.33033 16.8614 6.59419 17.0672 6.80236C17.2754 7.01785 17.5433 7.16607 17.8364 7.22793C18.1296 7.28978 18.4345 7.26243 18.712 7.1494L18.7828 7.11887C19.003 7.02594 19.2393 6.97737 19.4784 6.97594C19.7174 6.97451 19.9543 7.02024 20.1756 7.11053C20.3969 7.20082 20.5982 7.33388 20.768 7.5021C20.9378 7.67032 21.0728 7.87038 21.1651 8.09083" stroke="#060C23" stroke-width="2" stroke-linecap="round" stroke-linejoin="round"/>
<path d="M20.601 14.8951C20.601 14.0111 20.2498 13.1632 19.6247 12.5381C18.9996 11.913 18.1517 11.5618 17.2676 11.5618C16.3836 11.5618 15.5357 11.913 14.9106 12.5381C14.2855 13.1632 13.9343 14.0111 13.9343 14.8951C13.9343 18.7841 12.2676 19.8952 12.2676 19.8952H22.2677C22.2677 19.8952 20.601 18.7841 20.601 14.8951Z" stroke="#060C23" stroke-width="2" stroke-linecap="round" stroke-linejoin="round"/>
<line x1="16.8247" y1="22.5441" x2="17.7909" y2="22.5441" stroke="#060C23" stroke-width="2" stroke-linecap="round"/>
</g>
<defs>
<clipPath id="clip0_805_1198">
<rect width="24" height="24" fill="white"/>
</clipPath>
</defs>
</svg>
