<svg width="40" height="40" viewBox="0 0 40 40" fill="none" xmlns="http://www.w3.org/2000/svg">
<rect width="40" height="40" rx="20" fill="#243CBB"/>
<g clip-path="url(#clip0_473_38568)">
<path d="M27.545 18.558C27.6383 19.0949 27.6848 19.639 27.684 20.184C27.684 22.618 26.814 24.676 25.3 26.069H25.302C23.978 27.292 22.158 28 20 28C17.8783 28 15.8434 27.1571 14.3431 25.6568C12.8429 24.1565 12 22.1217 12 20C12 17.8782 12.8429 15.8434 14.3431 14.3431C15.8434 12.8428 17.8783 12 20 12C21.9859 11.9767 23.9038 12.7228 25.352 14.082L23.068 16.366C22.2424 15.579 21.1405 15.148 20 15.166C17.913 15.166 16.14 16.574 15.508 18.47C15.1729 19.4635 15.1729 20.5395 15.508 21.533H15.511C16.146 23.426 17.916 24.834 20.003 24.834C21.081 24.834 22.007 24.558 22.725 24.07H22.722C23.1389 23.7938 23.4955 23.436 23.7704 23.0182C24.0452 22.6003 24.2325 22.1312 24.321 21.639H20V18.559H27.545V18.558Z" fill="white"/>
</g>
<defs>
<clipPath id="clip0_473_38568">
<rect width="16" height="16" fill="white" transform="translate(12 12)"/>
</clipPath>
</defs>
</svg>
