<svg width="40" height="40" viewBox="0 0 40 40" fill="none" xmlns="http://www.w3.org/2000/svg">
<rect width="40" height="40" rx="20" fill="#CCD4E0"/>
<path d="M28.3923 12.1323C27.849 11.631 25.6537 10.0373 20.7638 10.0157C20.7638 10.0157 14.9973 9.66796 12.1862 12.2464C10.6214 13.8116 10.0709 16.1017 10.0128 18.941C9.95477 21.7803 9.87964 27.1013 15.0087 28.5441H15.0137L15.0104 30.7457C15.0104 30.7457 14.9776 31.637 15.5645 31.8187C16.2744 32.0392 16.691 31.3617 17.3688 30.6315C17.7408 30.2306 18.2545 29.6418 18.6416 29.1917C22.1495 29.4869 24.8474 28.8121 25.1538 28.7124C25.862 28.4827 29.8698 27.969 30.5217 22.6487C31.1945 17.1646 30.1963 13.6958 28.3923 12.1323ZM28.9867 22.2553C28.4366 26.6978 25.1859 26.977 24.5866 27.1692C24.3317 27.2512 21.9621 27.8407 18.9824 27.6462C18.9824 27.6462 16.7622 30.3248 16.0687 31.0212C15.9604 31.1301 15.8331 31.1741 15.7482 31.1524C15.6288 31.1232 15.596 30.9819 15.5973 30.7752C15.5992 30.4799 15.6163 27.1167 15.6163 27.1167C15.6137 27.1167 15.6163 27.1167 15.6163 27.1167C11.2775 25.9121 11.5304 21.3834 11.5796 19.0119C11.6288 16.6404 12.0743 14.6977 13.3977 13.391C15.7754 11.2374 20.6736 11.5592 20.6736 11.5592C24.81 11.5772 26.7921 12.8228 27.2517 13.2401C28.7778 14.5468 29.5552 17.6734 28.9867 22.254V22.2553Z" fill="white"/>
<path d="M22.7768 18.8166C22.723 17.7321 22.1722 17.1626 21.124 17.1078" stroke="white" stroke-width="0.907307" stroke-linecap="round" stroke-linejoin="round"/>
<path d="M24.1947 19.2926C24.2167 18.2822 23.9172 17.4382 23.2969 16.7601C22.6736 16.0797 21.8108 15.7051 20.7036 15.624" stroke="white" stroke-width="0.907307" stroke-linecap="round" stroke-linejoin="round"/>
<path d="M25.6471 19.861C25.6336 18.1076 25.1097 16.7268 24.0754 15.7184C23.041 14.7099 21.7544 14.2005 20.2158 14.1896" stroke="white" stroke-width="0.907307" stroke-linecap="round" stroke-linejoin="round"/>
<path d="M21.1768 22.5209C21.1768 22.5209 21.5656 22.5537 21.7749 22.2959L22.183 21.7825C22.3798 21.5279 22.8548 21.3655 23.32 21.6247C23.6687 21.8235 24.007 22.0397 24.334 22.2723C24.6427 22.4993 25.2749 23.0268 25.2768 23.0268C25.578 23.281 25.6475 23.6544 25.4425 24.048C25.4425 24.0503 25.4409 24.0543 25.4409 24.0562C25.2152 24.4476 24.9285 24.8006 24.5915 25.1021C24.5876 25.104 24.5876 25.106 24.584 25.108C24.2914 25.3524 24.004 25.4915 23.7215 25.5249C23.6799 25.5321 23.6376 25.5348 23.5956 25.5328C23.4709 25.5341 23.3472 25.5151 23.2288 25.4764L23.2196 25.4629C22.7846 25.3402 22.0583 25.0332 20.8488 24.3659C20.1487 23.9844 19.4825 23.5441 18.8569 23.0501C18.5432 22.8027 18.2441 22.5373 17.9609 22.2555L17.9308 22.2254L17.9006 22.1952L17.8704 22.165C17.8602 22.1552 17.8504 22.145 17.8402 22.1348C17.5584 21.8517 17.293 21.5525 17.0457 21.2389C16.5516 20.6133 16.1114 19.947 15.7299 19.2473C15.0626 18.0374 14.7555 17.3118 14.6329 16.8761L14.6194 16.867C14.581 16.7485 14.562 16.6245 14.5633 16.5002C14.561 16.4582 14.5636 16.4159 14.5709 16.3742C14.606 16.0924 14.7454 15.8047 14.9885 15.5111C14.9904 15.5075 14.9924 15.5075 14.9944 15.5036C15.2955 15.1667 15.6485 14.8803 16.0402 14.6546C16.0422 14.6546 16.0461 14.6526 16.0484 14.6526C16.4421 14.4476 16.8154 14.5171 17.0693 14.8166C17.0713 14.8186 17.5978 15.4508 17.8238 15.7594C18.0564 16.0868 18.2726 16.4254 18.4714 16.7744C18.7306 17.2393 18.5682 17.7153 18.3136 17.9115L17.8002 18.3196C17.541 18.5289 17.5752 18.9176 17.5752 18.9176C17.5752 18.9176 18.3356 21.7956 21.1768 22.5209Z" fill="white"/>
</svg>
