<svg width="104" height="104" viewBox="0 0 104 104" fill="none" xmlns="http://www.w3.org/2000/svg">
<path d="M99.9959 52.4078C99.9959 56.9905 99.3506 61.4226 98.1459 65.6184C97.6206 67.4481 96.9888 69.2329 96.2578 70.9656M31.6885 9.17737C21.8079 13.8549 13.787 21.8149 9.03619 31.6482M5.17236 43.2861C5.56701 41.2448 6.09161 39.2497 6.73722 37.3099" stroke="white" stroke-width="1.04007" stroke-linecap="round"/>
<ellipse cx="52" cy="52" rx="52" ry="52" fill="#314DD8"/>
<mask id="mask0_248_28962" style="mask-type:alpha" maskUnits="userSpaceOnUse" x="0" y="-1" width="105" height="105">
<circle cx="52.2798" cy="51.7743" r="52" fill="#314DD8"/>
</mask>
<g mask="url(#mask0_248_28962)">
<path d="M-1.55562 43.4448C-1.55538 42.296 -0.623864 41.3649 0.524967 41.3651L9.45659 41.367L9.45183 63.3906L0.520215 63.3886C-0.628616 63.3884 -1.55973 62.4569 -1.55948 61.308L-1.55562 43.4448Z" fill="#2E293D"/>
</g>
<ellipse cx="45.8542" cy="50.4708" rx="35.7165" ry="35.7165" fill="#00E98F"/>
<path fill-rule="evenodd" clip-rule="evenodd" d="M78.1072 74.5543L72.2909 61.8387L72.3078 61.7911L72.3978 61.5567C72.4532 61.4129 72.5078 61.2642 72.5575 61.1164L72.6322 60.9095C72.6796 60.777 72.7221 60.6453 72.7695 60.5128L72.8586 60.2438C72.9011 60.1121 72.9436 59.9804 72.9813 59.8495C73.0142 59.7493 73.0423 59.6499 73.0703 59.5506C73.1048 59.4302 73.1441 59.309 73.1778 59.1838C73.2091 59.0739 73.2403 58.9641 73.2668 58.855C73.294 58.7508 73.3212 58.6466 73.3477 58.5375C73.3773 58.418 73.411 58.2928 73.4398 58.1684C73.4662 58.0593 73.4935 57.9551 73.515 57.8469C73.5447 57.7273 73.5695 57.6086 73.5943 57.4898C73.6167 57.3864 73.6391 57.283 73.6606 57.1748C73.6878 57.0407 73.715 56.9066 73.7422 56.7725L73.7885 56.5157C73.8181 56.3663 73.842 56.2128 73.8667 56.0642L73.901 55.8542C73.9282 55.6902 73.9512 55.5319 73.9735 55.3688L74.003 55.1596C74.0236 54.9868 74.0443 54.814 74.0657 54.646L74.0824 54.4788C74.1014 54.2963 74.1212 54.1186 74.1354 53.9369L74.1471 53.7706C74.1613 53.5889 74.1747 53.4023 74.188 53.2158L74.1982 53.0696C74.2108 52.8783 74.2185 52.6877 74.2253 52.4923L74.2315 52.3518C74.2376 52.1515 74.2436 51.9513 74.2448 51.7519L74.2447 51.6622C74.2483 51.4475 74.247 51.2335 74.2409 51.0203L74.2392 50.9509C74.2371 50.7321 74.2311 50.519 74.2193 50.3018L74.2167 50.2275C74.2099 50.0095 74.1989 49.7972 74.1824 49.5809L74.179 49.5017C74.1616 49.2805 74.149 49.0585 74.1268 48.8381L74.1251 48.7986C74.1012 48.5685 74.0773 48.3385 74.0534 48.1084L74.0469 48.0696C74.0182 47.8404 73.9886 47.6063 73.9551 47.3779L73.9526 47.3634L73.951 47.3537C73.9158 47.1156 73.8798 46.8726 73.8389 46.6304C71.2037 31.0123 56.4086 20.4891 40.7905 23.1243C25.1723 25.7596 14.6491 40.5547 17.2844 56.1728C19.9196 71.7909 34.7147 82.3141 50.3328 79.6789C53.7906 79.0955 57.0033 77.9159 59.872 76.2614C59.9994 76.1901 60.1212 76.1148 60.2486 76.0434L60.497 75.892C60.6147 75.8223 60.7317 75.7478 60.8486 75.6733L61.0824 75.5242C61.1945 75.4505 61.3074 75.3817 61.4147 75.3088C61.5042 75.2489 61.5937 75.1889 61.6832 75.129C61.7856 75.0569 61.8928 74.9841 61.9952 74.912L62.258 74.7282C62.3516 74.6626 62.4443 74.5922 62.5418 74.5209C62.6346 74.4505 62.7321 74.3792 62.8248 74.3088C62.9135 74.244 63.0014 74.1744 63.0941 74.104C63.1908 74.0279 63.2924 73.951 63.3891 73.8749L63.635 73.679C63.7358 73.5973 63.8406 73.5099 63.9413 73.4281C64.0114 73.3714 64.0808 73.3099 64.1501 73.2484L64.1807 73.2233L78.1072 74.5543Z" fill="white"/>
<path d="M56.6882 42.6517C51.6123 42.6751 47.4029 46.9233 47.4262 51.9857C47.4363 54.1882 48.2995 56.2106 49.6558 57.8918L41.8827 57.9275C43.2167 56.2271 44.0613 54.2037 44.0512 52.0012C44.028 46.9388 39.7865 42.7294 34.7038 42.7527C29.6414 42.776 25.432 47.0242 25.4553 52.0866C25.4786 57.1625 29.7268 61.3719 34.7892 61.3487L56.7736 61.2477C61.8428 61.2244 66.0454 56.9762 66.0221 51.9003C66.0056 46.8379 61.7574 42.6285 56.6882 42.6517ZM34.7737 57.967C31.5614 57.9817 28.8518 55.2969 28.837 52.0778C28.829 48.8655 31.5139 46.1559 34.7194 46.1412C37.9384 46.1264 40.648 48.8112 40.6628 52.0235C40.6843 55.2425 37.9995 57.9522 34.7737 57.967ZM56.7581 57.866C53.5458 57.8808 50.8294 55.196 50.8147 51.9769C50.7999 48.7646 53.4915 46.055 56.7038 46.0402C59.9161 46.0255 62.6325 48.7103 62.6472 51.9226C62.6688 55.1416 59.9704 57.8513 56.7581 57.866Z" fill="#243CBB"/>
<path d="M94.0782 42.2579C94.0784 41.109 93.1473 40.1775 91.9985 40.1773L83.0668 40.1754L83.0621 62.1989L91.9937 62.2008C93.1425 62.2011 94.0741 61.2699 94.0743 60.1211L94.0782 42.2579Z" fill="#2E293D"/>
<path d="M45.7395 87.8857C25.1296 87.8813 8.42548 71.17 8.42993 50.56C8.43438 29.95 25.1457 13.2459 45.7556 13.2504C66.3656 13.2548 83.0697 29.9661 83.0652 50.5761C83.0644 54.4091 82.4857 58.107 81.4116 61.5875" stroke="#060C23" stroke-width="3.4669" stroke-linecap="round"/>
<circle cx="45.739" cy="87.8854" r="5.50626" fill="#2E293D"/>
<path d="M52.2783 6.11783C59.0414 6.11783 65.4628 7.58109 71.243 10.2083M76.443 12.9895C78.1646 14.0581 79.8102 15.2376 81.3698 16.5178C82.5294 17.4696 83.6414 18.4771 84.7019 19.5363M90.5024 77.3884C85.7665 84.5044 79.0965 90.2226 71.243 93.7921" stroke="white" stroke-width="2.08014" stroke-linecap="round"/>
</svg>
