<svg width="104" height="104" viewBox="0 0 104 104" fill="none" xmlns="http://www.w3.org/2000/svg">
<circle cx="51.9811" cy="51.9811" r="51.9811" fill="#243CBB"/>
<mask id="mask0_908_191112" style="mask-type:alpha" maskUnits="userSpaceOnUse" x="0" y="0" width="104" height="104">
<circle cx="52" cy="52" r="52" fill="#314DD8"/>
</mask>
<g mask="url(#mask0_908_191112)">
<path d="M24.7004 55.1115H78.294L110.385 104H-6.4668L24.7004 55.1115Z" fill="#435CDB"/>
<circle cx="51.5002" cy="39.2136" r="33.6784" fill="#22FFAA"/>
<line x1="52.3574" y1="81.0493" x2="52.3574" y2="90.684" stroke="#85FFD0" stroke-width="3" stroke-linecap="round"/>
<path d="M34.1933 60.9775L27.812 76.3153H75.7288L68.0039 60.9775H34.1933Z" fill="#85FFD0"/>
<line x1="52.3574" y1="95.6264" x2="52.3574" y2="105.261" stroke="#85FFD0" stroke-width="3" stroke-linecap="round"/>
<path d="M82.2713 67.8945H76.8874C75.7585 67.8945 74.8323 68.8221 74.8033 69.9705L72.0535 62.6089C71.1417 60.1501 68.8261 58.5306 66.25 58.5306H37.2756C34.6995 58.5306 32.3838 60.1501 31.472 62.6089L28.7222 69.9705C28.6933 68.8221 27.7815 67.8945 26.6382 67.8945H21.2398C20.082 67.8945 19.1558 68.8515 19.1558 70.0146C19.1558 72.1201 20.8346 73.8132 22.8897 73.8132H26.8842C26.5079 74.196 26.9421 73.7838 22.2529 77.8032C19.6478 80.0264 20.2991 83.0299 20.1978 83.6336C20.1978 85.6212 20.1978 94.8232 20.1978 99.3726C20.1978 100.845 21.3701 102.023 22.8029 102.023H28.3749C29.8221 102.023 30.98 100.83 30.98 99.3726V94.6907H72.5311V99.3726C72.5311 100.845 73.7034 102.023 75.1362 102.023H80.6937C82.141 102.023 83.2988 100.83 83.2988 99.3726C83.2988 93.7925 83.2988 88.8897 83.2988 82.2938C83.2988 78.1271 79.6517 76.9493 76.6124 73.8132H80.6214C84.7316 73.8132 85.6723 67.8945 82.2713 67.8945ZM34.3811 63.7279C34.8297 62.5206 35.9875 61.6961 37.2611 61.6961H66.2355C67.5091 61.6961 68.6669 62.5058 69.1156 63.7279C70.201 66.6283 72.5745 73.0476 72.9074 73.8132H30.6037C30.9365 73.0476 32.572 68.5571 34.3811 63.7279ZM29.634 87.2555C27.6657 87.2555 26.0737 85.6359 26.0737 83.6336C26.0737 81.6312 27.6657 80.0117 29.634 80.0117C31.6023 80.0117 33.1943 81.6312 33.1943 83.6336C33.1943 85.6359 31.6023 87.2555 29.634 87.2555ZM77.4518 83.6336C77.4518 85.6359 75.8598 87.2555 73.8916 87.2555C71.9233 87.2555 70.3313 85.6359 70.3313 83.6336C70.3313 81.6312 71.9233 80.0117 73.8916 80.0117C75.8598 80.0117 77.4518 81.6312 77.4518 83.6336Z" fill="#060C23"/>
<circle cx="29.4669" cy="83.5725" r="3.87173" fill="white"/>
<circle cx="73.8546" cy="83.5722" r="3.87173" fill="white"/>
<path d="M48.0374 48.2867L51.8084 52.123L55.5795 48.2867C62.4011 46.564 67.4572 40.2964 67.4572 32.8314C67.4572 24.0347 60.4555 16.9118 51.8084 16.9118C43.1614 16.9118 36.1597 24.0347 36.1597 32.8314C36.1597 40.3086 41.2158 46.5762 48.0374 48.2867ZM51.8084 19.7219C58.9303 19.7219 64.707 25.5985 64.707 32.8436C64.707 40.0887 58.9303 45.9531 51.8084 45.9531C44.6866 45.9531 38.9099 40.0764 38.9099 32.8314C38.9099 25.5863 44.6866 19.7219 51.8084 19.7219Z" fill="white"/>
<path d="M51.8086 44.2427C56 44.2427 59.651 41.9091 61.5726 38.4393V37.0587C61.5726 36.3134 61.1762 35.6292 60.5277 35.2749C59.7951 34.8717 54.9191 32.025 54.9191 32.025C54.1625 33.0513 53.4179 33.7844 52.253 34.3586C51.9888 34.3464 51.7125 34.3464 51.4483 34.3586C50.2834 33.7844 49.5388 33.0635 48.7821 32.025L43.1616 35.2749C42.513 35.6292 42.1167 36.3134 42.1167 37.0587V38.5737C44.0623 41.9702 47.6772 44.2427 51.8086 44.2427Z" fill="#333333"/>
<path d="M51.7507 46.028C59.0727 46.028 65.0083 40.1028 65.0083 32.7936C65.0083 25.4845 59.0727 19.5593 51.7507 19.5593C44.4288 19.5593 38.4932 25.4845 38.4932 32.7936C38.4932 40.1028 44.4288 46.028 51.7507 46.028Z" fill="#85FFD0"/>
<path d="M51.7506 46.0281C56.3746 46.0281 60.446 43.664 62.8175 40.0796C60.6954 36.1519 56.5343 33.4819 51.7506 33.4819C46.9652 33.4819 42.8057 36.1519 40.6836 40.0796C43.0551 43.664 47.1266 46.0281 51.7506 46.0281Z" fill="#060C23"/>
<path d="M55.3626 30.6953C57.3575 28.704 57.3575 25.4754 55.3626 23.4841C53.3678 21.4928 50.1336 21.4928 48.1388 23.4841C46.144 25.4754 46.144 28.704 48.1388 30.6953C50.1336 32.6867 53.3678 32.6867 55.3626 30.6953Z" fill="#060C23"/>
<path d="M21.7461 52.4295C26.1782 52.4295 29.7711 48.8429 29.7711 44.4186C29.7711 39.9943 26.1782 36.4077 21.7461 36.4077C17.3141 36.4077 13.7212 39.9943 13.7212 44.4186C13.7212 48.8429 17.3141 52.4295 21.7461 52.4295Z" fill="#EFEEFE"/>
<path d="M21.7461 52.4295C26.1782 52.4295 29.7711 48.8429 29.7711 44.4186C29.7711 39.9943 26.1782 36.4077 21.7461 36.4077C17.3141 36.4077 13.7212 39.9943 13.7212 44.4186C13.7212 48.8429 17.3141 52.4295 21.7461 52.4295Z" fill="#22FFAA"/>
<path d="M21.7463 52.4297C24.5453 52.4297 27.0098 50.9987 28.4453 48.829C27.1607 46.4516 24.642 44.8354 21.7463 44.8354C18.8497 44.8354 16.3319 46.4516 15.0474 48.829C16.4829 50.9987 18.9474 52.4297 21.7463 52.4297Z" fill="white"/>
<path d="M23.9326 43.1484C25.14 41.943 25.14 39.9887 23.9326 38.7834C22.7251 37.578 20.7674 37.578 19.5599 38.7834C18.3524 39.9887 18.3524 41.943 19.5599 43.1484C20.7674 44.3538 22.7251 44.3538 23.9326 43.1484Z" fill="white"/>
<path d="M29.7297 52.514V49.2519C30.5824 47.8102 31.0748 46.1119 31.0748 44.3037C31.0748 39.0135 26.8594 34.7251 21.6591 34.7251C16.4469 34.7251 12.2314 39.0135 12.2314 44.3037C12.2314 49.594 16.4469 53.8823 21.6471 53.8823C23.4246 53.8823 25.0819 53.3814 26.5111 52.514H29.7297ZM13.8888 44.3037C13.8888 39.942 17.3596 36.4111 21.6471 36.4111C25.9346 36.4111 29.4055 39.942 29.4055 44.3037C29.4055 48.6654 25.9346 52.1963 21.6471 52.1963C17.3596 52.1963 13.8888 48.6654 13.8888 44.3037Z" fill="white"/>
<path d="M81.2378 53.4567C76.8057 53.4567 73.2128 49.8701 73.2128 45.4458C73.2128 41.0215 76.8057 37.4349 81.2378 37.4349C85.6698 37.4349 89.2627 41.0215 89.2627 45.4458C89.2627 49.8701 85.6698 53.4567 81.2378 53.4567Z" fill="#EFEEFE"/>
<path d="M81.2378 53.4567C76.8057 53.4567 73.2128 49.8701 73.2128 45.4458C73.2128 41.0215 76.8057 37.4349 81.2378 37.4349C85.6698 37.4349 89.2627 41.0215 89.2627 45.4458C89.2627 49.8701 85.6698 53.4567 81.2378 53.4567Z" fill="#22FFAA"/>
<path d="M81.2376 53.4569C78.4386 53.4569 75.9741 52.0258 74.5386 49.8562C75.8231 47.4787 78.3419 45.8625 81.2376 45.8625C84.1342 45.8625 86.652 47.4787 87.9365 49.8562C86.501 52.0258 84.0365 53.4569 81.2376 53.4569Z" fill="white"/>
<path d="M79.0518 44.1756C77.8443 42.9702 77.8443 41.0159 79.0518 39.8105C80.2593 38.6052 82.217 38.6052 83.4245 39.8105C84.632 41.0159 84.632 42.9702 83.4245 44.1756C82.217 45.3809 80.2593 45.3809 79.0518 44.1756Z" fill="white"/>
<path d="M73.2546 53.5412V50.2791C72.402 48.8374 71.9095 47.1392 71.9095 45.3309C71.9095 40.0407 76.125 35.7523 81.3252 35.7523C86.5375 35.7523 90.7529 40.0407 90.7529 45.3309C90.7529 50.6212 86.5375 54.9096 81.3372 54.9096C79.5598 54.9096 77.9024 54.4086 76.4733 53.5412H73.2546ZM89.0956 45.3309C89.0956 40.9692 85.6247 37.4384 81.3372 37.4384C77.0497 37.4384 73.5789 40.9692 73.5789 45.3309C73.5789 49.6926 77.0497 53.2235 81.3372 53.2235C85.6247 53.2235 89.0956 49.6926 89.0956 45.3309Z" fill="white"/>
</g>
<path d="M5.80244 45C5.47804 47.0147 5.28904 49.0306 5.23018 51.0363M5.44065 57.0302C5.89706 61.6043 7.02401 66.0635 8.75642 70.268" stroke="white" stroke-width="2.08014" stroke-linecap="round"/>
<path d="M95.3075 67.3844C97.0377 63.2327 98.1265 58.9737 98.6193 54.7176C98.8342 52.8616 98.9357 51.0062 98.9277 49.1604" stroke="white" stroke-width="2.08014" stroke-linecap="round"/>
</svg>
