<svg width="104" height="104" viewBox="0 0 104 104" fill="none" xmlns="http://www.w3.org/2000/svg">
<ellipse cx="52" cy="52" rx="52" ry="52" fill="#22FFAA"/>
<circle cx="59.2114" cy="41.3963" r="35.4824" fill="#00E98F"/>
<mask id="mask0_248_29038" style="mask-type:alpha" maskUnits="userSpaceOnUse" x="0" y="0" width="104" height="104">
<ellipse cx="52" cy="52" rx="52" ry="52" fill="#243CBB"/>
</mask>
<g mask="url(#mask0_248_29038)">
<path d="M65.2476 38.8035H41.0918V81.1242H65.2476V38.8035Z" fill="#B3A18F"/>
<rect x="11.019" y="24.6277" width="70.6878" height="86.2542" rx="4.85367" fill="#060C23"/>
<path d="M29.9452 24.1903C28.5732 25.7427 27.6752 27.6311 27.3517 29.6529C27.2876 30.0472 27.2485 30.4472 27.229 30.8443H65.5849C65.5654 30.4444 65.5264 30.0445 65.4622 29.6529C65.1415 27.6339 64.2436 25.7455 62.8715 24.1903C60.7911 21.8381 57.81 20.4884 54.6922 20.4884H52.8182C52.6788 20.4884 52.5477 20.4273 52.4585 20.3217C52.3692 20.2162 52.333 20.0774 52.3553 19.9413C52.4278 19.5358 52.4613 19.1942 52.4613 18.8693C52.4613 15.5423 49.7451 12.8374 46.4042 12.8374C43.0661 12.8374 40.3499 15.5423 40.3499 18.8665C40.3499 19.1942 40.3861 19.5441 40.4587 19.9329C40.4837 20.069 40.4475 20.2107 40.3583 20.3162C40.269 20.4245 40.1379 20.4856 39.9985 20.4856H38.1217C35.0039 20.4884 32.0228 21.8353 29.9452 24.1903ZM46.4042 15.5506C48.2419 15.5506 49.7367 17.0364 49.7367 18.8665C49.7367 20.6967 48.2419 22.1852 46.4042 22.1852C44.5692 22.1852 43.0745 20.6967 43.0745 18.8665C43.0745 17.0392 44.5692 15.5506 46.4042 15.5506Z" fill="#243CBB"/>
<path d="M31.4992 53.1697C28.3645 53.1697 25.8154 55.7082 25.8154 58.8327C25.8154 61.9544 28.3645 64.4928 31.4992 64.4928C34.6312 64.4928 37.1858 61.9544 37.1858 58.8327C37.1858 55.7082 34.6312 53.1697 31.4992 53.1697Z" fill="#243CBB"/>
<path d="M34.6566 60.7711C34.8119 61.0373 34.8195 61.3591 34.6821 61.6303C34.6363 61.7216 34.5803 61.8103 34.5014 61.8888C34.1323 62.2563 33.5394 62.2513 33.1703 61.8838L31.4677 60.1907L29.7676 61.8838C29.704 61.9471 29.6327 61.9953 29.5589 62.0358C29.3095 62.1752 29.0066 62.1981 28.7445 62.0891C28.63 62.0435 28.5256 61.975 28.434 61.8838C28.065 61.5163 28.065 60.9308 28.434 60.5659L28.4391 60.5633L30.1341 58.8703L28.434 57.1773C28.065 56.7996 28.065 56.2091 28.434 55.8467C28.5943 55.6845 28.803 55.5983 29.0194 55.578C29.0474 55.5755 29.0728 55.5704 29.1008 55.5704C29.1033 55.5704 29.1033 55.5704 29.1033 55.5704C29.3426 55.5704 29.5844 55.6616 29.7676 55.8441L31.4677 57.5372L33.1703 55.8441C33.2467 55.7681 33.3357 55.7123 33.4248 55.6667C33.5521 55.6034 33.6921 55.5679 33.832 55.5679C34.0738 55.5679 34.3156 55.6591 34.4988 55.8416C34.5345 55.8771 34.565 55.9151 34.593 55.9556C34.8679 56.3206 34.8373 56.8326 34.4963 57.1722L32.7987 58.8602L34.4988 60.5582C34.565 60.6241 34.6134 60.6951 34.6566 60.7711Z" fill="white"/>
<path d="M37.1858 41.4784C37.1858 44.6001 34.6312 47.1385 31.4992 47.1385C28.3645 47.1385 25.8154 44.6001 25.8154 41.4784C25.8154 38.3594 28.3645 35.8182 31.4992 35.8182C34.6312 35.8182 37.1858 38.3594 37.1858 41.4784Z" fill="#22FFAA"/>
<path d="M31.4992 70.5266C28.3645 70.5266 25.8154 73.0623 25.8154 76.1868C25.8154 79.0586 27.9768 81.436 30.7629 81.797C31.502 80.7916 32.6566 80.1917 33.9256 80.1917C34.3774 80.1917 34.8208 80.275 35.2531 80.4333C36.4384 79.3946 37.1858 77.8782 37.1858 76.1868C37.1858 73.0623 34.6312 70.5266 31.4992 70.5266Z" fill="white"/>
<path d="M68.8259 30.0443H66.461H26.3538H23.9862C21.652 30.0443 19.7529 31.9355 19.7529 34.2628V82.7598C19.7529 85.0981 21.6186 87.3032 23.9248 87.7142C24.0001 87.7003 24.0782 87.6837 24.1507 87.6698C24.2316 87.6531 24.3125 87.6392 24.3933 87.6198C24.4798 87.6003 24.5662 87.5753 24.6499 87.5531C24.7308 87.5309 24.8089 87.5115 24.8897 87.4865C24.9734 87.4587 25.0571 87.4282 25.1435 87.4004C25.2216 87.3726 25.2969 87.3504 25.375 87.3199C25.4586 87.2893 25.5423 87.2532 25.6232 87.2171C25.6985 87.1866 25.7765 87.156 25.8518 87.1227C25.9327 87.0866 26.0136 87.0449 26.0945 87.006C26.1698 86.9699 26.245 86.9338 26.3176 86.895C26.3984 86.8533 26.4737 86.8061 26.5518 86.7616C26.6243 86.72 26.6968 86.6811 26.7693 86.6367C26.8474 86.5895 26.9199 86.5395 26.9952 86.4895C27.0649 86.4423 27.1374 86.3978 27.2072 86.3506C27.2797 86.3006 27.3494 86.2451 27.4191 86.1923C27.4888 86.1423 27.5585 86.0924 27.6255 86.0396C27.6952 85.9841 27.7649 85.9257 27.8318 85.8674C27.8988 85.8119 27.9657 85.7591 28.0298 85.7008C28.0968 85.6397 28.1609 85.5758 28.225 85.5175C28.2892 85.4564 28.3533 85.3981 28.4147 85.337C28.4816 85.2731 28.5402 85.2065 28.6015 85.1398C28.6601 85.0732 28.7242 85.0148 28.78 84.9482C28.8413 84.8815 28.8999 84.8093 28.9585 84.7371C29.0142 84.6705 29.07 84.6066 29.1258 84.5399C29.1843 84.4677 29.2401 84.3872 29.2959 84.315C29.3461 84.2484 29.3991 84.1789 29.4493 84.1095C29.5051 84.0289 29.5608 83.9429 29.6138 83.8595C29.6584 83.7929 29.7058 83.7262 29.7477 83.6596C29.8062 83.5652 29.8592 83.4624 29.9178 83.3652C29.954 83.3069 29.9875 83.2486 30.021 83.1875C30.0712 83.0931 30.1186 82.9931 30.166 82.8959C27.0203 82.2738 24.6415 79.505 24.6415 76.1947C24.6415 72.4261 27.7231 69.3629 31.5046 69.3629C35.2916 69.3629 38.3676 72.4261 38.3676 76.1947C38.3676 78.0359 37.6286 79.7077 36.4378 80.938L69.0211 94.9847C70.1003 95.143 71.107 94.8764 71.8684 94.2294C72.6408 93.574 73.0647 92.6047 73.0647 91.5022V34.2628C73.0591 31.9355 71.16 30.0443 68.8259 30.0443ZM31.499 65.661C27.7175 65.661 24.636 62.5978 24.636 58.832C24.636 55.0635 27.7175 51.9948 31.499 51.9948C35.2861 51.9948 38.362 55.0635 38.362 58.832C38.362 62.5978 35.2861 65.661 31.499 65.661ZM31.499 48.3123C27.7175 48.3123 24.636 45.2491 24.636 41.4778C24.636 37.712 27.7175 34.646 31.499 34.646C35.2861 34.646 38.362 37.712 38.362 41.4778C38.362 45.2491 35.2861 48.3123 31.499 48.3123Z" fill="white"/>
<path d="M31.4992 51.9949C27.7175 51.9949 24.6357 55.0638 24.6357 58.8327C24.6357 62.5987 27.7175 65.6621 31.4992 65.6621C35.2866 65.6621 38.3627 62.5987 38.3627 58.8327C38.3627 55.0638 35.2866 51.9949 31.4992 51.9949ZM31.4992 64.4928C28.3645 64.4928 25.8154 61.9544 25.8154 58.8327C25.8154 55.7082 28.3645 53.1697 31.4992 53.1697C34.6312 53.1697 37.1858 55.7082 37.1858 58.8327C37.1858 61.9544 34.6312 64.4928 31.4992 64.4928Z" fill="#243CBB"/>
<path d="M31.5007 69.3553C27.7189 69.3553 24.6372 72.4243 24.6372 76.1931C24.6372 79.9592 27.7189 83.0225 31.5007 83.0225C35.288 83.0225 38.3642 79.9592 38.3642 76.1931C38.3642 72.4243 35.288 69.3553 31.5007 69.3553ZM31.5007 81.8533C28.366 81.8533 25.8169 79.3148 25.8169 76.1931C25.8169 73.0686 28.366 70.5302 31.5007 70.5302C34.6326 70.5302 37.1873 73.0686 37.1873 76.1931C37.1873 79.3148 34.6326 81.8533 31.5007 81.8533Z" fill="#D7DEEA"/>
<path d="M31.4992 34.6463C27.7175 34.6463 24.6357 37.7125 24.6357 41.4785C24.6357 45.2501 27.7175 48.3135 31.4992 48.3135C35.2866 48.3135 38.3627 45.2501 38.3627 41.4785C38.3627 37.7125 35.2866 34.6463 31.4992 34.6463ZM31.4992 47.1387C28.3645 47.1387 25.8154 44.6002 25.8154 41.4785C25.8154 38.3596 28.3645 35.8183 31.4992 35.8183C34.6312 35.8183 37.1858 38.3568 37.1858 41.4785C37.1858 44.6002 34.6312 47.1387 31.4992 47.1387Z" fill="#22FFAA"/>
<path d="M23.8926 87.7194L69.0288 94.9888L34.5813 79.7312C34.1633 79.5627 33.7221 79.4735 33.2709 79.4735C31.9008 79.4735 30.6701 80.2465 30.063 81.492L29.927 81.7959C28.6763 84.495 26.4735 86.616 23.8926 87.7194Z" fill="#E4E9F1"/>
<path d="M30.7818 45.3807L27.6764 42.424C27.2607 42.0282 27.2457 41.3699 27.643 40.9555C28.039 40.5426 28.6946 40.5284 29.108 40.9239L30.7202 42.466L33.8617 39.1741C34.2577 38.7592 34.9153 38.7446 35.3293 39.1415C35.7426 39.5379 35.7563 40.1942 35.3599 40.6074L30.7818 45.3807Z" fill="white"/>
<rect x="42.0693" y="39.3617" width="21.5572" height="2.11625" fill="#D7DEEA"/>
<rect x="42.0693" y="56.1078" width="21.5572" height="2.11625" fill="#D7DEEA"/>
<rect x="42.0693" y="72.8542" width="21.5572" height="2.11625" fill="#D7DEEA"/>
<rect x="42.0693" y="42.6863" width="10.3764" height="2.11639" fill="#D7DEEA"/>
<rect x="42.0693" y="59.432" width="10.3764" height="2.11639" fill="#D7DEEA"/>
<rect x="42.0693" y="76.1783" width="10.3764" height="2.11639" fill="#D7DEEA"/>
</g>
<path d="M85.0439 82.1359C89.8403 77.3678 93.3626 71.8029 95.6097 65.8645M97.3367 60.226C97.8042 58.2544 98.1397 56.2578 98.3432 54.2503C98.4945 52.7578 98.5728 51.2593 98.5782 49.7605" stroke="white" stroke-width="2.08014" stroke-linecap="round"/>
<path d="M6.54372 61.4897C6.13283 59.3176 5.87979 57.1218 5.78439 54.9209C5.61711 51.0613 5.9346 47.1857 6.73575 43.393" stroke="white" stroke-width="2.08014" stroke-linecap="round"/>
</svg>
