<svg width="104" height="104" viewBox="0 0 104 104" fill="none" xmlns="http://www.w3.org/2000/svg">
<circle cx="51.9811" cy="51.9811" r="51.9811" fill="#314DD8"/>
<circle cx="51.9811" cy="51.9811" r="51.9811" fill="#22FFAA"/>
<mask id="mask0_908_204944" style="mask-type:alpha" maskUnits="userSpaceOnUse" x="0" y="0" width="104" height="104">
<circle cx="51.9811" cy="51.9811" r="51.9811" fill="#22FFAA"/>
</mask>
<g mask="url(#mask0_908_204944)">
<circle cx="41.7481" cy="61.7481" r="33.3478" transform="rotate(-4.28838 41.7481 61.7481)" fill="#00E98F"/>
<path d="M58.3299 16.866L18.4004 19.8602L23.28 84.933L63.2094 81.9388C68.1062 81.5716 71.7992 77.5656 71.4589 73.0275L67.816 24.4474C67.4757 19.9093 63.2266 16.4988 58.3299 16.866Z" fill="#2E293D"/>
<path d="M88.8783 91.8659C88.4455 96.8715 83.9475 100.586 78.845 100.145L49.9961 97.6506C44.8936 97.2094 41.0755 92.7757 41.5083 87.7701L47.9665 13.0787C48.3993 8.07315 52.8973 4.35844 58.0243 4.80175L86.8732 7.29617C91.9757 7.73736 95.7693 12.169 95.3365 17.1746L88.8783 91.8659Z" fill="#D7DEEA"/>
<path d="M91.2017 31.5506L50.2344 28.0084L45.7434 79.948L86.7108 83.4902L91.2017 31.5506Z" fill="white"/>
<path d="M59.0404 64.7879L49.5713 63.9692L49.497 64.828L58.9661 65.6467L59.0404 64.7879Z" fill="#19364B"/>
<path d="M59.1457 63.5611L59.1096 63.9782L49.6405 63.1594L49.6787 62.7178L59.1457 63.5611Z" fill="#19364B"/>
<path d="M59.3138 61.6226L49.8447 60.8039L49.7493 61.908L59.2184 62.7268L59.3138 61.6226Z" fill="#19364B"/>
<path d="M59.4574 59.9542L49.9883 59.1354L49.914 59.9942L59.3831 60.813L59.4574 59.9542Z" fill="#19364B"/>
<path d="M59.6298 57.9666L50.1606 57.1478L50.0588 58.3256L59.5279 59.1444L59.6298 57.9666Z" fill="#19364B"/>
<path d="M59.7459 56.6081L50.2754 55.8058L50.2297 56.3457L59.7002 57.148L59.7459 56.6081Z" fill="#19364B"/>
<path d="M59.8529 55.3902L59.8147 55.8318L50.3477 54.9885L50.3838 54.5714L59.8529 55.3902Z" fill="#19364B"/>
<path d="M59.9823 53.8934L50.5132 53.0747L50.4538 53.7617L59.9229 54.5805L59.9823 53.8934Z" fill="#19364B"/>
<path d="M50.6401 51.615L50.584 52.2528L60.0518 53.0859L60.108 52.448L50.6401 51.615Z" fill="#19364B"/>
<path d="M50.8054 49.637L50.7021 50.8147L60.1702 51.6451L60.2735 50.4674L50.8054 49.637Z" fill="#19364B"/>
<path d="M60.4105 48.9368L50.9414 48.1181L50.8671 48.9769L60.3363 49.7956L60.4105 48.9368Z" fill="#19364B"/>
<path d="M60.5174 47.7099L60.4814 48.1271L51.0123 47.3083L51.0483 46.8912L60.5174 47.7099Z" fill="#19364B"/>
<path d="M60.684 45.7716L51.2148 44.9529L51.1172 46.0816L60.5864 46.9003L60.684 45.7716Z" fill="#19364B"/>
<path d="M60.8269 44.1189L51.3564 43.3161L51.2836 44.1751L60.7541 44.9778L60.8269 44.1189Z" fill="#19364B"/>
<path d="M51.5408 41.3142L51.4375 42.4918L60.9056 43.322L61.0089 42.1444L51.5408 41.3142Z" fill="#19364B"/>
<path d="M61.1171 40.766L51.6479 39.9472L51.6013 40.487L61.0704 41.3058L61.1171 40.766Z" fill="#19364B"/>
<path d="M61.223 39.5391L51.7539 38.7203L51.7157 39.162L61.1848 39.9807L61.223 39.5391Z" fill="#19364B"/>
<path d="M61.3529 38.0423L61.2914 38.7539L51.8244 37.9106L51.8838 37.2236L61.3529 38.0423Z" fill="#19364B"/>
<path d="M61.4779 36.5946L61.4227 37.2326L51.9536 36.4138L52.0088 35.7758L61.4779 36.5946Z" fill="#19364B"/>
<path d="M52.2043 33.8013L52.1006 34.9789L61.5684 35.813L61.6721 34.6354L52.2043 33.8013Z" fill="#19364B"/>
<line x1="94.4752" y1="27.1313" x2="50.9217" y2="23.3654" stroke="#F2F4F8" stroke-width="2.5709"/>
<path d="M57.1835 15.6485L18.2285 18.5696L23.0354 82.6735L61.9904 79.7524C66.7654 79.3944 70.3648 75.4477 70.0293 70.9734L66.4436 23.1561C66.1062 18.6562 61.9585 15.2905 57.1835 15.6485Z" fill="#060C23"/>
<path d="M29.0038 69.4713L28.5635 63.5986L30.1227 63.4817C30.7073 63.4379 31.099 63.433 31.275 63.4933C31.5503 63.5707 31.8085 63.7474 32.001 64.027C32.2178 64.3048 32.3201 64.6892 32.3548 65.1522C32.3822 65.5177 32.3554 65.8138 32.2519 66.0666C32.1727 66.3176 32.0412 66.5235 31.8816 66.6825C31.722 66.8415 31.5588 66.9517 31.3901 66.9889C31.1745 67.0541 30.8353 67.104 30.3967 67.1369L29.7633 67.1844L29.9296 69.4019L29.0038 69.4713ZM29.6111 64.5003L29.7353 66.1573L30.2713 66.1171C30.6611 66.0879 30.9029 66.0452 31.0192 65.963C31.1355 65.8808 31.2275 65.8004 31.2896 65.6487C31.3536 65.5213 31.3895 65.3471 31.3767 65.1765C31.3603 64.9572 31.2987 64.7903 31.1903 64.6514C31.0819 64.5125 30.9303 64.4504 30.7804 64.4126C30.6568 64.3974 30.4357 64.3894 30.0703 64.4168L29.6074 64.4515L29.6111 64.5003Z" fill="#243CBB"/>
<path d="M37.3354 68.8466L36.2878 68.9251L35.7732 67.6159L33.8486 67.7603L33.5593 69.1297L32.5361 69.2064L33.9716 63.1931L34.9948 63.1164L37.3354 68.8466ZM35.3572 66.6424L34.5368 64.523L34.0416 66.7411L35.3572 66.6424Z" fill="#243CBB"/>
<path d="M37.4593 66.9014L38.4003 66.7083C38.4783 67.0946 38.622 67.3779 38.8053 67.5356C38.9887 67.6934 39.2396 67.7726 39.5319 67.7507C39.8486 67.727 40.0624 67.6374 40.2202 67.4541C40.3535 67.2725 40.4382 67.0946 40.4218 66.8753C40.4108 66.7291 40.3773 66.6091 40.2969 66.5171C40.2165 66.4251 40.1117 66.335 39.9376 66.299C39.8121 66.2594 39.563 66.2046 39.1379 66.0894C38.6153 65.9816 38.2353 65.814 37.9977 65.5868C37.6816 65.2919 37.5044 64.8886 37.4697 64.4257C37.4477 64.1332 37.4989 63.8353 37.625 63.5563C37.751 63.2773 37.9313 63.0678 38.1902 62.9258C38.4472 62.7595 38.7602 62.687 39.1257 62.6596C39.7347 62.614 40.186 62.7517 40.5265 63.0447C40.8426 63.3396 41.046 63.7654 41.1106 64.2997L40.1398 64.4215C40.0691 64.1327 39.9796 63.9189 39.8224 63.7836C39.6671 63.6728 39.4667 63.6143 39.1988 63.6344C38.9064 63.6563 38.6926 63.7458 38.5574 63.903C38.4673 64.0078 38.4277 64.1333 38.4387 64.2795C38.4496 64.4257 38.5075 64.5439 38.6123 64.634C38.7432 64.7467 39.0465 64.871 39.5429 64.9563C40.0167 65.0678 40.3913 65.1623 40.6215 65.292C40.8517 65.4218 41.0613 65.6021 41.2013 65.8367C41.3414 66.0712 41.4383 66.3825 41.4657 66.748C41.4913 67.0892 41.4419 67.4115 41.3177 67.7148C41.1934 68.0182 40.9906 68.254 40.7092 68.4221C40.4522 68.5884 40.0923 68.6889 39.6781 68.72C39.0691 68.7656 38.5934 68.6298 38.2511 68.3124C37.7907 68.0528 37.5574 67.5557 37.4593 66.9014Z" fill="#243CBB"/>
<path d="M41.9178 66.5671L42.8588 66.374C42.9368 66.7603 43.0805 67.0435 43.2638 67.2013C43.4472 67.3591 43.6981 67.4383 43.9904 67.4164C44.3071 67.3926 44.5209 67.3031 44.6787 67.1197C44.812 66.9382 44.8967 66.7603 44.8802 66.541C44.8693 66.3948 44.8358 66.2748 44.7554 66.1828C44.675 66.0908 44.5702 66.0006 44.3961 65.9647C44.2706 65.9251 44.0215 65.8703 43.5964 65.7551C43.0738 65.6473 42.6937 65.4797 42.4562 65.2525C42.1401 64.9576 41.9629 64.5543 41.9282 64.0913C41.9062 63.7989 41.9574 63.501 42.0835 63.222C42.2095 62.943 42.3898 62.7334 42.6487 62.5915C42.9057 62.4252 43.2187 62.3527 43.5842 62.3253C44.1932 62.2797 44.6445 62.4173 44.985 62.7104C45.3011 63.0052 45.5045 63.4311 45.5691 63.9653L44.5982 64.0871C44.5276 63.7984 44.4381 63.5846 44.2809 63.4493C44.1256 63.3384 43.9252 63.2799 43.6573 63.3C43.3649 63.322 43.1511 63.4115 43.0159 63.5687C42.9258 63.6735 42.8862 63.7989 42.8972 63.9452C42.9081 64.0914 42.966 64.2096 43.0707 64.2997C43.2017 64.4124 43.505 64.5367 44.0014 64.622C44.4752 64.7335 44.8498 64.8279 45.08 64.9577C45.3102 65.0875 45.5197 65.2678 45.6598 65.5023C45.7999 65.7369 45.8968 66.0482 45.9242 66.4137C45.9497 66.7549 45.9004 67.0771 45.7762 67.3805C45.6519 67.6839 45.4491 67.9196 45.1677 68.0878C44.9107 68.2541 44.5508 68.3546 44.1366 68.3856C43.5276 68.4313 43.0519 68.2954 42.7096 67.978C42.2735 67.7167 42.0402 67.2196 41.9178 66.5671Z" fill="#243CBB"/>
<path d="M46.788 68.1377L46.3477 62.2651L47.9068 62.1482C48.4915 62.1043 48.8831 62.0995 49.0592 62.1598C49.3344 62.2371 49.5927 62.4138 49.7851 62.6934C50.002 62.9713 50.1043 63.3557 50.139 63.8186C50.1664 64.1842 50.1396 64.4802 50.0361 64.7331C49.9569 64.984 49.8254 65.1899 49.6658 65.3489C49.5062 65.5079 49.343 65.6182 49.1743 65.6553C48.9587 65.7205 48.6194 65.7705 48.1809 65.8033L47.5475 65.8508L47.7138 68.0683L46.788 68.1377ZM47.3952 63.1667L47.5195 64.8237L48.0554 64.7836C48.4452 64.7543 48.687 64.7117 48.8034 64.6294C48.9197 64.5472 49.0117 64.4668 49.0738 64.3151C49.1377 64.1878 49.1493 64.0154 49.1365 63.8448C49.1201 63.6255 49.0586 63.4586 48.9501 63.3197C48.8417 63.1808 48.6901 63.1186 48.5402 63.0809C48.4166 63.0656 48.1955 63.0577 47.8301 63.0851L47.3916 63.118L47.3952 63.1667Z" fill="#243CBB"/>
<path d="M50.8571 64.8921C50.8114 64.2829 50.8479 63.7901 50.963 63.3648C51.0386 63.0651 51.189 62.7843 51.3412 62.5278C51.5179 62.2695 51.7 62.0843 51.9345 61.9442C52.2158 61.7761 52.5496 61.653 52.9394 61.6238C53.6459 61.5708 54.2263 61.7969 54.705 62.3001C55.1594 62.8051 55.4353 63.5441 55.5066 64.4944C55.5778 65.4448 55.4134 66.1923 55.0394 66.7594C54.6655 67.3266 54.1252 67.6366 53.4187 67.6896C52.7122 67.7426 52.1075 67.5184 51.6531 67.0133C51.2024 66.557 50.9283 65.8424 50.8571 64.8921ZM51.8541 64.7928C51.9034 65.4508 52.0636 65.9533 52.3328 66.2762C52.602 66.5991 52.9315 66.7459 53.3213 66.7167C53.7111 66.6875 54.015 66.4932 54.233 66.1337C54.4511 65.7743 54.5345 65.2535 54.4834 64.5712C54.4322 63.8889 54.2738 63.4106 54.0046 63.0877C53.7354 62.7649 53.4078 62.6424 52.9936 62.6735C52.6038 62.7027 52.2755 62.8988 52.0575 63.2583C51.8864 63.5897 51.8029 64.1105 51.8541 64.7928Z" fill="#243CBB"/>
<path d="M56.4843 67.4107L56.0439 61.538L58.0904 61.3845C58.602 61.3462 58.971 61.3675 59.2238 61.4711C59.4747 61.5503 59.6599 61.7324 59.8262 61.9895C59.9924 62.2466 60.0893 62.5579 60.1149 62.8991C60.1477 63.3377 60.0777 63.7105 59.8804 64.0194C59.683 64.3282 59.3791 64.5226 58.9705 64.6267C59.2007 64.7565 59.384 64.9143 59.5186 65.0757C59.6776 65.2353 59.8719 65.5393 60.1502 65.984L60.8208 67.0855L59.6514 67.1732L58.848 65.9347C58.5697 65.4899 58.3772 65.2103 58.2725 65.1201C58.1659 65.0056 58.063 64.9398 57.9619 64.8984C57.8608 64.857 57.6884 64.8454 57.4691 64.8618L57.2742 64.8764L57.4588 67.3376L56.4843 67.4107ZM57.203 63.9261L57.9095 63.8731C58.3724 63.8384 58.6629 63.7921 58.781 63.7342C58.8992 63.6764 58.9668 63.5978 59.0307 63.4705C59.0947 63.3431 59.1081 63.1951 59.0953 63.0245C59.0807 62.8296 59.0192 62.6627 58.9369 62.5463C58.8304 62.4318 58.7031 62.3678 58.5551 62.3544C58.4802 62.3355 58.2365 62.3538 57.8467 62.383L57.0915 62.4396L57.203 63.9261Z" fill="#243CBB"/>
<path d="M62.4291 66.9649L62.0636 62.0913L60.6506 62.1972L60.5757 61.1982L64.4005 60.9113L64.4754 61.9104L63.0624 62.0164L63.4279 66.89L62.4291 66.9649Z" fill="#243CBB"/>
<path d="M42.8025 38.2029C42.2248 36.1687 40.8996 31.5682 40.2219 29.4892C40.9347 28.9683 41.9217 29.1219 42.4404 29.7859L47.9506 37.099C48.0547 37.2415 48.161 37.4331 48.2183 37.6267L54.3659 36.97C56.1251 36.8453 57.6881 37.8567 57.798 39.2737C57.908 40.6907 56.5908 41.9731 54.7827 42.0999L48.6225 42.4629C48.6309 42.6587 48.5436 42.9076 48.4541 43.1075L44.2453 51.2309C43.8365 51.9839 42.8707 52.3196 42.1179 51.9107C42.4166 49.7407 42.9931 44.9113 43.2471 42.8413L36.353 43.236C36.0595 43.2486 35.7659 43.2612 35.5192 43.2228L33.5292 45.9559L32.2103 46.0616L32.8931 41.4238L31.4231 36.8785L32.742 36.7727L34.9999 39.1269C35.2913 39.0654 35.6317 39.0017 35.9252 38.9891L42.8025 38.2029Z" fill="#22FFAA"/>
<line x1="79.4091" y1="52.6086" x2="80.9186" y2="33.8664" stroke="#22FFAA" stroke-width="2.5709"/>
<line x1="86.4911" y1="34.2507" x2="82.7258" y2="77.8043" stroke="#22FFAA" stroke-width="2.5709"/>
</g>
<path d="M5.03873 53.7472C4.93364 51.7093 4.96326 49.6848 5.12119 47.6844M5.97721 41.7483C7.29334 35.499 9.87223 29.6098 13.4999 24.4348" stroke="white" stroke-width="2.08014" stroke-linecap="round"/>
<path d="M98.6456 46C99.1519 50.4693 99.0122 54.8631 98.3009 59.0881C97.9907 60.9306 97.5718 62.741 97.0503 64.5115" stroke="white" stroke-width="2.08014" stroke-linecap="round"/>
</svg>
