<svg width="24" height="24" viewBox="0 0 24 24" fill="none" xmlns="http://www.w3.org/2000/svg">
<path d="M1 9C0.447715 9 0 9.44772 0 10C0 10.5523 0.447715 11 1 11V9ZM23 11C23.5523 11 24 10.5523 24 10C24 9.44772 23.5523 9 23 9V11ZM3 5H21V3H3V5ZM21 5C21.5523 5 22 5.44771 22 6H24C24 4.34315 22.6569 3 21 3V5ZM22 6V18H24V6H22ZM22 18C22 18.5523 21.5523 19 21 19V21C22.6569 21 24 19.6569 24 18H22ZM21 19H3V21H21V19ZM3 19C2.44772 19 2 18.5523 2 18H0C0 19.6569 1.34315 21 3 21V19ZM2 18V6H0V18H2ZM2 6C2 5.44772 2.44772 5 3 5V3C1.34315 3 0 4.34315 0 6H2ZM1 11H23V9H1V11ZM4 17H9V15H4V17Z" fill="#060C23"/>
</svg>
