<svg width="24" height="24" viewBox="0 0 24 24" fill="none" xmlns="http://www.w3.org/2000/svg">
<path d="M12 15C13.6569 15 15 13.6568 15 12C15 10.3431 13.6569 8.99999 12 8.99999C10.3431 8.99999 9 10.3431 9 12C9 13.6568 10.3431 15 12 15Z" stroke="#060C23" stroke-width="2" stroke-linecap="round" stroke-linejoin="round"/>
<path d="M18.727 14.727C18.6059 15.0012 18.5697 15.3055 18.6232 15.6005C18.6767 15.8955 18.8173 16.1677 19.027 16.382L19.082 16.436C19.2514 16.6047 19.3857 16.8052 19.4774 17.026C19.5691 17.2467 19.6163 17.4834 19.6163 17.7225C19.6163 17.9615 19.5691 18.1982 19.4774 18.419C19.3857 18.6398 19.2514 18.8403 19.082 19.009C18.9131 19.1781 18.7126 19.3123 18.4919 19.4038C18.2711 19.4953 18.0345 19.5425 17.7955 19.5425C17.5565 19.5425 17.3199 19.4953 17.0991 19.4038C16.8784 19.3123 16.6779 19.1781 16.509 19.009L16.454 18.954C16.2398 18.7445 15.9678 18.604 15.673 18.5505C15.3782 18.4971 15.0741 18.5331 14.8 18.654C14.5309 18.7691 14.3014 18.9604 14.1397 19.2044C13.978 19.4484 13.8912 19.7343 13.89 20.027V20.182C13.89 20.6642 13.6985 21.1266 13.3575 21.4675C13.0166 21.8085 12.5542 22 12.072 22C11.5898 22 11.1274 21.8085 10.7865 21.4675C10.4455 21.1266 10.254 20.6642 10.254 20.182V20.1C10.2471 19.7991 10.1498 19.5073 9.97488 19.2625C9.79993 19.0176 9.55538 18.831 9.273 18.727C8.99875 18.6059 8.69449 18.5697 8.3995 18.6232C8.1045 18.6767 7.83229 18.8173 7.618 19.027L7.564 19.082C7.30979 19.3372 6.9855 19.5111 6.63228 19.5817C6.27906 19.6523 5.91284 19.6164 5.58007 19.4785C5.2473 19.3406 4.96299 19.107 4.76322 18.8072C4.56345 18.5075 4.45721 18.1552 4.458 17.795C4.45801 17.5561 4.50508 17.3196 4.59654 17.099C4.68799 16.8783 4.82203 16.6778 4.991 16.509L5.045 16.454C5.25447 16.2398 5.39499 15.9678 5.44846 15.673C5.50193 15.3782 5.46589 15.0741 5.345 14.8C5.22995 14.5311 5.03877 14.3016 4.795 14.1399C4.55123 13.9783 4.26551 13.8914 3.973 13.89H3.818C3.33584 13.89 2.87342 13.6985 2.53248 13.3575C2.19154 13.0166 2 12.5542 2 12.072C2 11.5898 2.19154 11.1274 2.53248 10.7865C2.87342 10.4455 3.33584 10.254 3.818 10.254H3.9C4.20085 10.2471 4.49267 10.1498 4.73753 9.97487C4.98238 9.79992 5.16896 9.55537 5.273 9.27299C5.39411 8.99874 5.43027 8.69449 5.37679 8.39949C5.32332 8.10449 5.18267 7.83228 4.973 7.61799L4.918 7.56399C4.74899 7.39505 4.61491 7.19447 4.52342 6.9737C4.43192 6.75294 4.38481 6.51632 4.38476 6.27735C4.38471 6.03838 4.43174 5.80173 4.52314 5.58094C4.61455 5.36014 4.74855 5.1595 4.9175 4.99049C5.08645 4.82148 5.28703 4.6874 5.50779 4.59591C5.72855 4.50441 5.96517 4.4573 6.20415 4.45725C6.44312 4.45721 6.67976 4.50423 6.90056 4.59564C7.12136 4.68705 7.32199 4.82105 7.491 4.98999L7.545 5.04399C7.75929 5.25366 8.0315 5.39431 8.3265 5.44778C8.62149 5.50126 8.92575 5.46511 9.2 5.34399H9.273C9.54175 5.22879 9.77097 5.03755 9.93247 4.79379C10.094 4.55004 10.1807 4.26439 10.182 3.97199V3.81699C10.182 3.33483 10.3735 2.87241 10.7145 2.53147C11.0554 2.19053 11.5178 1.99899 12 1.99899C12.4822 1.99899 12.9446 2.19053 13.2855 2.53147C13.6265 2.87241 13.818 3.33483 13.818 3.81699V3.89999C13.8191 4.1927 13.9058 4.4787 14.0675 4.72269C14.2292 4.96668 14.4588 5.15798 14.728 5.27299C15.0021 5.39389 15.3062 5.42992 15.601 5.37645C15.8958 5.32298 16.1678 5.18246 16.382 4.97299L16.436 4.91799C16.6048 4.74876 16.8053 4.6145 17.0261 4.52288C17.2468 4.43127 17.4835 4.38412 17.7225 4.38412C17.9615 4.38412 18.1982 4.43127 18.4189 4.52288C18.6397 4.6145 18.8402 4.74876 19.009 4.91799C19.178 5.08691 19.312 5.28747 19.4035 5.50821C19.495 5.72896 19.542 5.96555 19.542 6.20449C19.542 6.44343 19.495 6.68003 19.4035 6.90077C19.312 7.12151 19.178 7.32207 19.009 7.49099L18.954 7.54499C18.7443 7.75928 18.6037 8.03149 18.5502 8.32649C18.4967 8.62149 18.5329 8.92574 18.654 9.19999V9.27299C18.7693 9.5419 18.9607 9.77123 19.2046 9.93273C19.4486 10.0942 19.7344 10.1809 20.027 10.182H20.182C20.6642 10.182 21.1266 10.3735 21.4675 10.7145C21.8085 11.0554 22 11.5178 22 12C22 12.4822 21.8085 12.9446 21.4675 13.2855C21.1266 13.6265 20.6642 13.818 20.182 13.818H20.1C19.8073 13.8191 19.5213 13.9058 19.2773 14.0675C19.0333 14.2292 18.842 14.4578 18.727 14.727Z" stroke="#060C23" stroke-width="2" stroke-linecap="round" stroke-linejoin="round"/>
</svg>
