<svg width="47" height="47" viewBox="0 0 47 47" fill="none" xmlns="http://www.w3.org/2000/svg">
    <path d="M23.5 43.0837C34.3155 43.0837 43.0833 34.3159 43.0833 23.5003C43.0833 12.6847 34.3155 3.91699 23.5 3.91699C12.6844 3.91699 3.91663 12.6847 3.91663 23.5003C3.91663 34.3159 12.6844 43.0837 23.5 43.0837Z" fill="#ECEFFF"/>
    <path d="M26.0175 15.3623H17.4582C16.924 15.3623 16.4118 15.5678 16.0341 15.9336C15.6564 16.2993 15.4442 16.7954 15.4442 17.3127V29.6866C15.4442 30.2038 15.6564 30.6999 16.0341 31.0657C16.4118 31.4314 16.924 31.6369 17.4582 31.6369H29.5419C30.076 31.6369 30.5883 31.4314 30.966 31.0657C31.3437 30.6999 31.5558 30.2038 31.5558 29.6866V20.7258L26.0175 15.3623Z" fill="#ECEFFF" stroke="#243CBB" stroke-width="2" stroke-linecap="round" stroke-linejoin="round"/>
    <path d="M25.2355 15.3623V21.5762H31.5558" stroke="#243CBB" stroke-width="2" stroke-linecap="round" stroke-linejoin="round"/>
</svg>
