  <svg xmlns="http://www.w3.org/2000/svg" width="38" height="34" fill="none">
    <g fill="#243CBB" clip-path="url(#a)">
      <path
        fill-rule="evenodd"
        d="M18.678 11.319c-8.023 0-14.527 6.438-14.527 14.38v1.45c0 1.892 1.548 3.425 3.459 3.425h1.094c1.13 0 2.051-.895 2.074-2.013l.016-.74a.684.684 0 0 1 .369-.592.698.698 0 0 1 .701.032l1.138.736a10.466 10.466 0 0 0 11.352 0l1.138-.736a.698.698 0 0 1 .701-.032.684.684 0 0 1 .37.591l.015.741a2.066 2.066 0 0 0 2.075 2.013h1.094c1.91 0 3.459-1.533 3.459-3.424V25.7c0-7.943-6.505-14.381-14.528-14.381Zm-15.91 14.38c0-8.698 7.123-15.75 15.91-15.75 8.787 0 15.911 7.052 15.911 15.75v1.45c0 2.648-2.168 4.794-4.842 4.794h-1.095c-1.72 0-3.152-1.244-3.415-2.88l-.126.08a11.86 11.86 0 0 1-12.866 0l-.126-.08c-.263 1.636-1.695 2.88-3.415 2.88H7.61c-2.675 0-4.843-2.146-4.843-4.793V25.7Z"
        clip-rule="evenodd"
      />
      <path
        fill-rule="evenodd"
        d="M17.986 7.53C7.991 7.892 0 16.027 0 26.009v1.829C0 31.241 2.787 34 6.226 34H31.13c3.439 0 6.226-2.76 6.226-6.163v-1.83c0-9.981-7.991-18.116-17.986-18.476V4.794h-1.384V7.53Zm.692 1.358c-9.551 0-17.294 7.665-17.294 17.12v1.829c0 2.647 2.168 4.793 4.842 4.793H31.13c2.675 0 4.843-2.146 4.843-4.793v-1.83c0-9.454-7.743-17.119-17.295-17.119Z"
        clip-rule="evenodd"
      />
      <path
        fill-rule="evenodd"
        d="M18.678 1.37c-.764 0-1.383.613-1.383 1.37 0 .756.619 1.369 1.383 1.369s1.384-.613 1.384-1.37c0-.756-.62-1.37-1.384-1.37Zm-2.767 1.37c0-1.514 1.239-2.74 2.767-2.74 1.528 0 2.767 1.226 2.767 2.74 0 1.512-1.239 2.738-2.767 2.738-1.528 0-2.767-1.226-2.767-2.739Z"
        clip-rule="evenodd"
      />
      <path d="M12.278 23.611a1.889 1.889 0 1 0 0-3.778 1.889 1.889 0 0 0 0 3.778ZM25.5 23.611a1.889 1.889 0 1 0 0-3.778 1.889 1.889 0 0 0 0 3.778Z" />
    </g>
    <defs>
      <clip-path id="a">
        <path fill="#fff" d="M0 0h38v34H0z" />
      </clip-path>
    </defs>
  </svg>
