<svg xmlns="http://www.w3.org/2000/svg" width="22" height="22" viewBox="0 0 22 22" fill="none">
<path d="M16.4187 1.50001V9.1744" stroke="#243CBB" stroke-width="2" stroke-linecap="round" stroke-linejoin="round"/>
<path d="M12.5815 5.33721H20.2559" stroke="#243CBB" stroke-width="2" stroke-linecap="round" stroke-linejoin="round"/>
<path d="M19.7436 15.9764V18.6862C19.7446 18.9377 19.693 19.1867 19.592 19.4172C19.491 19.6477 19.3429 19.8546 19.1572 20.0247C18.9715 20.1947 18.7522 20.3242 18.5134 20.4048C18.2746 20.4854 18.0216 20.5153 17.7706 20.4927C14.9857 20.1906 12.3105 19.2409 9.96015 17.7197C7.77343 16.3329 5.91948 14.4826 4.52994 12.3002C3.00042 9.94387 2.04856 7.26106 1.75149 4.46914C1.72887 4.21936 1.75861 3.96762 1.83882 3.72995C1.91903 3.49227 2.04795 3.27387 2.21737 3.08864C2.38679 2.90342 2.59299 2.75543 2.82286 2.65409C3.05273 2.55276 3.30121 2.50031 3.55251 2.50007H6.26761C6.70683 2.49576 7.13264 2.65098 7.46566 2.93682C7.79869 3.22265 8.01621 3.61959 8.07768 4.05365C8.19228 4.92082 8.40481 5.77227 8.71121 6.59176C8.83297 6.91505 8.85933 7.2664 8.78714 7.60418C8.71496 7.94197 8.54727 8.25202 8.30394 8.4976L7.15455 9.64472C8.44291 11.906 10.319 13.7784 12.5848 15.0642L13.7341 13.9171C13.9802 13.6742 14.2909 13.5068 14.6293 13.4348C14.9678 13.3628 15.3198 13.3891 15.6438 13.5106C16.4649 13.8164 17.318 14.0285 18.1869 14.1429C18.6266 14.2048 19.0281 14.4258 19.3151 14.7638C19.6021 15.1019 19.7546 15.5335 19.7436 15.9764Z" stroke="#243CBB" stroke-width="2" stroke-linecap="round" stroke-linejoin="round"/>
</svg>
