<svg width="47" height="47" viewBox="0 0 47 47" fill="none" xmlns="http://www.w3.org/2000/svg">
<g id="icon / add content / doc-circle ">
<path id="Vector" d="M23.5001 43.0837C34.3157 43.0837 43.0834 34.3159 43.0834 23.5003C43.0834 12.6847 34.3157 3.91699 23.5001 3.91699C12.6845 3.91699 3.91675 12.6847 3.91675 23.5003C3.91675 34.3159 12.6845 43.0837 23.5001 43.0837Z" fill="#ECEFFF"/>
<g id="Group 828">
<path id="Vector_2" d="M26.0173 15.3623H17.458C16.9239 15.3623 16.4117 15.5678 16.034 15.9336C15.6563 16.2993 15.4441 16.7954 15.4441 17.3127V29.6866C15.4441 30.2038 15.6563 30.6999 16.034 31.0657C16.4117 31.4314 16.9239 31.6369 17.458 31.6369H29.5418C30.0759 31.6369 30.5882 31.4314 30.9658 31.0657C31.3435 30.6999 31.5557 30.2038 31.5557 29.6866V20.7258L26.0173 15.3623Z" fill="#ECEFFF" stroke="#243CBB" stroke-width="2" stroke-linecap="round" stroke-linejoin="round"/>
<g id="Group 827">
<path id="Vector_3" d="M25.2354 15.3623V21.5762H31.5556" stroke="#243CBB" stroke-width="2" stroke-linecap="round" stroke-linejoin="round"/>
</g>
</g>
</g>
</svg>
