<svg width="47" height="47" viewBox="0 0 47 47" fill="none" xmlns="http://www.w3.org/2000/svg">
<path d="M23.4998 43.0833C34.3154 43.0833 43.0832 34.3156 43.0832 23.5C43.0832 12.6844 34.3154 3.91666 23.4998 3.91666C12.6843 3.91666 3.9165 12.6844 3.9165 23.5C3.9165 34.3156 12.6843 43.0833 23.4998 43.0833Z" />
<path d="M26.0176 15.3627H17.4583C16.9242 15.3627 16.4119 15.5682 16.0342 15.9339C15.6565 16.2997 15.4443 16.7958 15.4443 17.313V29.6869C15.4443 30.2042 15.6565 30.7003 16.0342 31.066C16.4119 31.4318 16.9242 31.6373 17.4583 31.6373H29.542C30.0761 31.6373 30.5884 31.4318 30.9661 31.066C31.3438 30.7003 31.556 30.2042 31.556 29.6869V20.7262L26.0176 15.3627Z" fill="white"/>
<path d="M26 15L29 18M29 18L32 21M29 18L32 15M29 18L26 21" stroke-width="5" stroke-linecap="round" stroke-linejoin="round"/>
<path d="M26 15L29 18M29 18L32 21M29 18L32 15M29 18L26 21" stroke="white" stroke-width="1.6" stroke-linecap="round" stroke-linejoin="round"/>
</svg>
